<?xml version="1.0" encoding="utf-8"?>
<!-- Generator: Adobe Illustrator 21.1.0, SVG Export Plug-In . SVG Version: 6.00 Build 0)  -->
<svg version="1.1" id="armRotor" xmlns="http://www.w3.org/2000/svg" xmlns:xlink="http://www.w3.org/1999/xlink" x="0px" y="0px"
	 viewBox="0 0 1330 1300" style="enable-background:new 0 0 1330 1300;" xml:space="preserve">
<style type="text/css">
	.st0{fill:#3C4F5D;}
	.st1{fill:url(#SVGID_1_);}
	.st2{fill:url(#SVGID_2_);}
	.st3{fill:url(#SVGID_3_);}
	.st4{fill:url(#SVGID_4_);}
</style>
<path class="st0" d="M486,465.9c19.1,15,33.3,55.5,31.7,90.5c-1.6,35-18.5,51.2-37.6,36.2c-19.1-15-33.3-55.6-31.7-90.5
	C450,467,466.9,450.9,486,465.9z"/>
<linearGradient id="SVGID_1_" gradientUnits="userSpaceOnUse" x1="529.2357" y1="611.4089" x2="497.7692" y2="418.374">
	<stop  offset="0" style="stop-color:#3C4F5D"/>
	<stop  offset="0.9987" style="stop-color:#748FA4"/>
</linearGradient>
<path class="st1" d="M551.5,545.3c0,0.9,0,1.8-0.1,2.7c0,0.5,0,1.1-0.1,1.6c0,0.3,0,0.7-0.1,1c0,0.9-0.1,1.7-0.2,2.5
	c-0.1,0.8-0.2,1.7-0.2,2.5c-0.1,0.8-0.2,1.6-0.3,2.4c-0.1,0.8-0.2,1.6-0.3,2.4c-0.1,0.8-0.3,1.6-0.4,2.4c-0.2,0.8-0.3,1.6-0.5,2.4
	c-0.2,0.8-0.4,1.6-0.6,2.4c-0.2,0.9-0.5,1.7-0.7,2.5c-0.3,0.9-0.5,1.7-0.8,2.5c-0.3,0.9-0.6,1.8-1,2.6c-0.4,1-0.9,2-1.3,2.9
	c-0.6,1.2-1.2,2.2-1.8,3.3c-3.4,5.4-7.7,8.7-12.5,9.7l-33.7,6.9c4.8-1,9.1-4.3,12.5-9.7c0.6-1,1.3-2.1,1.8-3.3
	c0.5-0.9,0.9-1.9,1.3-2.9c0.4-0.9,0.7-1.7,1-2.6c0.3-0.8,0.5-1.6,0.8-2.5c0.2-0.8,0.5-1.6,0.7-2.5c0.2-0.8,0.4-1.6,0.6-2.4
	c0.2-0.8,0.3-1.6,0.5-2.4c0.2-0.8,0.3-1.6,0.4-2.4c0.1-0.8,0.2-1.6,0.3-2.4c0.1-0.8,0.2-1.6,0.3-2.4c0.1-0.8,0.2-1.6,0.2-2.5
	c0.1-0.8,0.1-1.7,0.2-2.5c0-0.3,0-0.7,0.1-1c0-0.5,0-1.1,0.1-1.6c0-0.9,0.1-1.8,0.1-2.7c0-0.9,0-1.8,0-2.7c0-0.9,0-1.9-0.1-2.8
	c0-1-0.1-2-0.1-2.9c-0.1-1-0.1-2-0.2-3c-0.1-1.1-0.2-2.2-0.3-3.3c-0.1-1.2-0.2-2.4-0.4-3.5c-0.2-1.3-0.4-2.6-0.5-3.9
	c-0.2-1.6-0.5-3.1-0.8-4.7c-0.4-2-0.8-3.9-1.2-5.8c-2.1-9.2-5-18-8.5-25.9c-0.8-1.7-1.5-3.3-2.3-4.9c-0.6-1.3-1.3-2.5-2-3.7
	c-0.6-1-1.1-2-1.7-3c-0.5-0.9-1-1.7-1.6-2.5c-0.5-0.8-1-1.5-1.6-2.3c-0.5-0.7-1-1.3-1.5-2c-0.5-0.6-0.9-1.2-1.4-1.8
	c-0.5-0.6-0.9-1.1-1.4-1.7c-0.5-0.5-0.9-1-1.4-1.5c-0.5-0.5-0.9-0.9-1.4-1.4c-0.5-0.4-0.9-0.9-1.4-1.3c-0.5-0.4-0.9-0.8-1.4-1.2
	c-0.2-0.2-0.4-0.3-0.6-0.5c-0.3-0.2-0.6-0.4-0.9-0.7c-0.5-0.3-0.9-0.7-1.4-1c-0.5-0.3-1-0.6-1.5-0.9c-0.5-0.3-1-0.6-1.5-0.8
	c-0.5-0.3-1-0.5-1.5-0.7c-0.5-0.2-1-0.4-1.5-0.6c-0.6-0.2-1.1-0.3-1.7-0.5c-0.6-0.1-1.2-0.2-1.7-0.3c-0.6-0.1-1.3-0.1-1.9-0.1
	c-0.7,0-1.5,0-2.2,0.1c-0.2,0-0.4,0-0.6,0.1l33.1-6.8c0.4-0.1,0.7-0.1,1.1-0.2c0.7-0.1,1.5-0.1,2.2-0.1c0.6,0,1.3,0.1,1.9,0.1
	c0.6,0.1,1.2,0.2,1.7,0.3c0.5,0.1,1.1,0.3,1.7,0.5c0.5,0.2,1,0.4,1.6,0.6c0.5,0.2,1,0.5,1.5,0.7c0.5,0.2,1,0.5,1.5,0.8
	c0.5,0.3,1,0.6,1.5,0.9c0.5,0.3,0.9,0.6,1.4,1c0.3,0.2,0.6,0.4,0.9,0.7c0.2,0.2,0.4,0.3,0.6,0.5c0.5,0.4,0.9,0.8,1.4,1.2
	c0.5,0.4,0.9,0.9,1.4,1.3c0.5,0.5,0.9,0.9,1.4,1.4c0.5,0.5,0.9,1,1.4,1.5c0.5,0.5,0.9,1.1,1.4,1.6c0.5,0.6,1,1.2,1.4,1.8
	c0.5,0.6,1,1.3,1.5,2c0.5,0.7,1,1.5,1.6,2.3c0.5,0.8,1.1,1.6,1.6,2.5c0.6,1,1.2,2,1.7,3c0.7,1.2,1.3,2.4,2,3.7
	c0.8,1.6,1.6,3.2,2.3,4.9c3.5,7.9,6.5,16.7,8.5,25.9c0.4,1.9,0.8,3.9,1.2,5.8c0.3,1.5,0.5,3.1,0.8,4.7c0.2,1.3,0.4,2.6,0.5,3.9
	c0.1,1.2,0.3,2.4,0.4,3.5c0.1,1.1,0.2,2.2,0.3,3.3c0.1,1,0.1,2,0.2,3c0.1,1,0.1,2,0.1,3c0,0.9,0.1,1.9,0.1,2.8
	C551.5,543.5,551.5,544.4,551.5,545.3z"/>
<linearGradient id="SVGID_2_" gradientUnits="userSpaceOnUse" x1="579.165" y1="463.4988" x2="416.6028" y2="560.3055">
	<stop  offset="0.301" style="stop-color:#E0E7EA"/>
	<stop  offset="1" style="stop-color:#95ABB8"/>
</linearGradient>
<path class="st2" d="M463.3,480.9c16,12.6,27.9,46.5,26.5,75.8c-1.4,29.3-15.5,42.9-31.5,30.3c-16-12.6-27.9-46.5-26.5-75.8
	C433.2,481.9,447.3,468.4,463.3,480.9z"/>
<linearGradient id="SVGID_3_" gradientUnits="userSpaceOnUse" x1="507.548" y1="614.4357" x2="451.2476" y2="431.0413">
	<stop  offset="0" style="stop-color:#3C4F5D"/>
	<stop  offset="1" style="stop-color:#748FA4"/>
</linearGradient>
<path class="st3" d="M509.8,546.8c0,0.8,0,1.5,0,2.3c0,0.7,0,1.5,0,2.2c0,0.4,0,0.9,0,1.3c0,0.3,0,0.6,0,0.9c0,0.7-0.1,1.4-0.1,2.1
	c-0.1,0.7-0.1,1.4-0.2,2.1c-0.1,0.7-0.1,1.4-0.2,2c-0.1,0.7-0.2,1.4-0.3,2c-0.1,0.7-0.2,1.3-0.3,2c-0.1,0.7-0.3,1.4-0.4,2
	c-0.1,0.7-0.3,1.4-0.5,2c-0.2,0.7-0.4,1.4-0.6,2.1c-0.2,0.7-0.4,1.4-0.7,2.1c-0.3,0.8-0.5,1.5-0.8,2.2c-0.3,0.8-0.7,1.6-1.1,2.4
	c-0.5,1-1,1.9-1.5,2.7c-2.9,4.5-6.4,7.3-10.5,8.1l-19.9,4.1c4-0.8,7.6-3.6,10.5-8.1c0.5-0.9,1.1-1.8,1.5-2.7
	c0.4-0.8,0.7-1.6,1.1-2.4c0.3-0.7,0.6-1.4,0.8-2.2c0.2-0.7,0.5-1.4,0.7-2.1c0.2-0.7,0.4-1.4,0.6-2.1c0.2-0.6,0.3-1.3,0.5-2
	c0.1-0.7,0.3-1.3,0.4-2c0.1-0.7,0.2-1.3,0.3-2c0.1-0.7,0.2-1.3,0.3-2c0.1-0.7,0.2-1.4,0.2-2c0.1-0.7,0.1-1.4,0.2-2.1
	c0-0.7,0.1-1.4,0.1-2.1c0-0.3,0-0.6,0-0.9c0-0.4,0-0.9,0.1-1.3c0-0.7,0-1.5,0-2.2v-2.3c0-0.8,0-1.5-0.1-2.3c0-0.8-0.1-1.6-0.1-2.5
	c0-0.8-0.1-1.7-0.2-2.5c-0.1-0.9-0.1-1.9-0.2-2.8c-0.1-1-0.2-2-0.3-3c-0.1-1.1-0.3-2.2-0.5-3.3c-0.2-1.3-0.4-2.6-0.7-3.9
	c-0.3-1.6-0.6-3.3-1-4.9c-1.7-7.7-4.2-15.1-7.2-21.7c-0.6-1.4-1.3-2.8-2-4.1c-0.5-1.1-1.1-2.1-1.6-3.1c-0.5-0.8-1-1.7-1.4-2.5
	c-0.4-0.7-0.9-1.4-1.3-2.1c-0.4-0.6-0.9-1.3-1.3-1.9c-0.4-0.6-0.8-1.1-1.2-1.7c-0.4-0.5-0.8-1-1.2-1.5c-0.4-0.5-0.8-0.9-1.2-1.4
	c-0.4-0.4-0.8-0.9-1.2-1.3c-0.4-0.4-0.8-0.8-1.2-1.2c-0.4-0.4-0.8-0.7-1.2-1.1c-0.4-0.3-0.8-0.7-1.2-1c-0.2-0.1-0.3-0.3-0.5-0.4
	c-0.2-0.2-0.5-0.4-0.7-0.6c-0.4-0.3-0.8-0.6-1.2-0.8c-0.4-0.3-0.8-0.5-1.2-0.8c-0.4-0.2-0.8-0.5-1.2-0.7c-0.4-0.2-0.9-0.4-1.3-0.6
	c-0.4-0.2-0.9-0.3-1.3-0.5c-0.5-0.2-0.9-0.3-1.4-0.4c-0.5-0.1-1-0.2-1.5-0.3c-0.5-0.1-1.1-0.1-1.6-0.1c-0.6,0-1.3,0-1.9,0.1
	c-0.3,0-0.6,0.1-0.9,0.2l19.9-4.1c0.3-0.1,0.6-0.1,0.9-0.2c0.6-0.1,1.2-0.1,1.9-0.1c0.5,0,1.1,0,1.6,0.1c0.5,0.1,1,0.2,1.5,0.3
	c0.5,0.1,0.9,0.2,1.4,0.4c0.4,0.1,0.9,0.3,1.3,0.5c0.4,0.2,0.9,0.4,1.3,0.6c0.4,0.2,0.8,0.4,1.2,0.7c0.4,0.2,0.8,0.5,1.2,0.8
	c0.4,0.3,0.8,0.5,1.2,0.8c0.2,0.2,0.5,0.4,0.7,0.5c0.2,0.1,0.3,0.2,0.5,0.4c0.4,0.3,0.8,0.7,1.2,1c0.4,0.3,0.8,0.7,1.2,1.1
	c0.4,0.4,0.8,0.8,1.2,1.2c0.4,0.4,0.8,0.8,1.2,1.3c0.4,0.4,0.8,0.9,1.2,1.4c0.4,0.5,0.8,1,1.2,1.5c0.4,0.5,0.8,1.1,1.2,1.7
	c0.4,0.6,0.9,1.3,1.3,1.9c0.4,0.7,0.9,1.4,1.3,2.1c0.5,0.8,1,1.6,1.4,2.5c0.6,1,1.1,2,1.6,3.1c0.7,1.3,1.3,2.7,2,4.1
	c3,6.6,5.4,14,7.2,21.7c0.4,1.6,0.7,3.2,1,4.9c0.2,1.3,0.5,2.6,0.7,3.9c0.2,1.1,0.3,2.2,0.5,3.3c0.1,1,0.2,2,0.3,3
	c0.1,0.9,0.2,1.9,0.3,2.8c0.1,0.9,0.1,1.7,0.2,2.5c0,0.8,0.1,1.6,0.1,2.5C509.7,545.2,509.8,546,509.8,546.8z"/>
<linearGradient id="SVGID_4_" gradientUnits="userSpaceOnUse" x1="439.1389" y1="535.3257" x2="535.4836" y2="535.3257">
	<stop  offset="1.872997e-02" style="stop-color:#3C4F5D"/>
	<stop  offset="1" style="stop-color:#172A2E"/>
</linearGradient>
<path class="st4" d="M461.9,492.8c11.9,9.9,21.1,36.9,20.5,60.4c-0.6,23.5-10.8,34.5-22.7,24.7c-11.9-9.9-21.1-36.9-20.5-60.4
	C439.8,494,449.9,482.9,461.9,492.8z"/>
</svg>
