<?xml version="1.0" encoding="utf-8"?>
<!-- Generator: Adobe Illustrator 21.1.0, SVG Export Plug-In . SVG Version: 6.00 Build 0)  -->
<svg version="1.1" id="EyesOn" xmlns="http://www.w3.org/2000/svg" xmlns:xlink="http://www.w3.org/1999/xlink" x="0px" y="0px"
	 viewBox="0 0 1330 1300" style="enable-background:new 0 0 1330 1300;" xml:space="preserve">
<style type="text/css">
	.st0{fill:#E8512D;}
	.st1{fill:#FFA437;}
	.st2{fill:#FFE450;}
	.st3{opacity:0.4;}
</style>
<g>
	<path class="st0" d="M671.1,512.5c0.2-37.3,29.5-70.1,65.4-73.2c36-3.1,65,24.5,64.9,61.8l-21.1,1.8c0,0.1,0,0.2,0,0.3l44-3.9
		c0.2-50.4-39.1-87.9-87.8-83.6s-88.3,48.6-88.5,99l44-3.9c0-0.1,0-0.2,0-0.3L671.1,512.5z"/>
	<path class="st1" d="M736.4,461.5c24.2-2.1,43.8,16.4,43.9,41.4l21.1-1.8c0.2-37.3-28.9-65-64.9-61.8c-36,3.1-65.3,35.9-65.4,73.2
		l21.1-1.8C692.4,485.6,712.2,463.7,736.4,461.5z"/>
	<path class="st2" d="M736.3,483.6c12.8-1.1,23.3,8.2,24.3,21.1l19.7-1.7c-0.1-25-19.7-43.6-43.9-41.4c-24.2,2.1-44,24.1-44.3,49.2
		l19.7-1.7C713,495.9,723.5,484.7,736.3,483.6z"/>
</g>
<g>
	<g>
		<path class="st0" d="M871.6,492.2c0.2-37.3,29.5-70.1,65.4-73.2c36-3.1,65,24.5,64.9,61.8l-21.1,1.8c0,0.1,0,0.2,0,0.3l44-3.9
			c0.2-50.4-39.1-87.9-87.8-83.6s-88.3,48.6-88.5,99l44-3.9c0-0.1,0-0.2,0-0.3L871.6,492.2z"/>
	</g>
	<path class="st1" d="M936.9,441.2c24.2-2.1,43.8,16.4,43.9,41.4l21.1-1.8c0.2-37.3-28.9-65-64.9-61.8c-36,3.1-65.3,35.9-65.4,73.2
		l21.1-1.8C893,465.3,912.7,443.3,936.9,441.2z"/>
	<path class="st2" d="M936.9,463.3c12.8-1.1,23.3,8.2,24.3,21.1l19.7-1.7c-0.1-25-19.7-43.6-43.9-41.4c-24.2,2.1-44,24.1-44.3,49.2
		l19.7-1.7C913.5,475.6,924,464.4,936.9,463.3z"/>
</g>
<g class="st3">
	<path d="M726.7,478.8c-12.7,1.1-23.2,12.2-24.3,25.2l-19.6,1.7c0,0,0,0,0,0l-20.9,1.8c0,0,0,0,0,0l-14,1.5
		c-0.1,1.6-0.1,3.3-0.2,4.9l22.8-2.4c0,0,0,0,0,0l20.9-1.8c0,0,0,0,0,0L711,508c1.1-13,11.5-24.1,24.3-25.2c2.4-0.2,4.7-0.1,6.8,0.4
		C737.9,480,732.6,478.3,726.7,478.8z"/>
	<path d="M772.3,420.9c25.1,13.7,41.8,40.9,41.7,73.7l-43.7,3.8c0-0.1,0-0.2,0-0.3l-11.7,1c0.4,1.5,0.7,3.1,0.8,4.7l19.5-1.7
		c0,0.1,0,0.2,0,0.3l43.7-3.8C822.7,462.2,802.1,432.6,772.3,420.9z"/>
</g>
<g class="st3">
	<path d="M972.6,400.7c25.1,13.7,41.8,40.9,41.7,73.7l-43.7,3.8c0-0.1,0-0.2,0-0.3l-11.7,1c0.4,1.5,0.7,3.1,0.8,4.7l19.5-1.7
		c0,0.1,0,0.2,0,0.3l43.7-3.8C1023.1,442.1,1002.5,412.5,972.6,400.7z"/>
	<path d="M927,458.7c-12.7,1.1-23.2,12.2-24.3,25.2l-19.6,1.7c0,0.1,0,0.2,0,0.3l-34.9,3.1c-0.1,1.6-0.1,3.2-0.1,4.8l43.7-3.8
		c0-0.1,0-0.2,0-0.3l19.6-1.7c1.1-13,11.5-24.1,24.3-25.2c2.4-0.2,4.7-0.1,6.8,0.4C938.3,459.9,932.9,458.2,927,458.7z"/>
</g>
</svg>
