<?xml version="1.0" encoding="utf-8"?>
<!-- Generator: Adobe Illustrator 21.1.0, SVG Export Plug-In . SVG Version: 6.00 Build 0)  -->
<svg version="1.1" id="feverLine" xmlns="http://www.w3.org/2000/svg" xmlns:xlink="http://www.w3.org/1999/xlink" x="0px" y="0px"
	 viewBox="0 0 1330 1300" style="enable-background:new 0 0 1330 1300;" xml:space="preserve">
<style type="text/css">
	.st0{fill:url(#SVGID_1_);}
	.st1{fill:#FFFFFF;}
</style>
<linearGradient id="SVGID_1_" gradientUnits="userSpaceOnUse" x1="705.7993" y1="617.1571" x2="1083.8007" y2="617.1571" gradientTransform="matrix(1 0 0 -1 0 1300)">
	<stop  offset="0" style="stop-color:#30A2ED"/>
	<stop  offset="0.5135" style="stop-color:#8641C5"/>
	<stop  offset="0.6324" style="stop-color:#9C3299"/>
	<stop  offset="0.8999" style="stop-color:#D30E2B"/>
	<stop  offset="1" style="stop-color:#E90000"/>
</linearGradient>
<path class="st0" d="M728,731.5c-12.3,1.1-22.3-8.5-22.2-21.2l0.1-22.4c0.1-12.7,10.1-24,22.4-25.1l333.3-28.7
	c12.5,0,22.3,8.5,22.2,21.2l-0.1,22.4c-0.1,12.7-10.1,24-22.4,25.1L728,731.5z"/>
<path class="st1" d="M1083.8,660c-15.3,1.4-25.7,4-33.1,6.5c-6.6,2.2-12.8,4.3-25.8,5.5c-13,1.2-19.5,0.3-26.4-0.7
	c-7.7-1.1-15.6-2.2-30.8-0.8c-15.3,1.4-22.9,4-30.2,6.5c-6.6,2.2-12.8,4.3-25.8,5.5c-13,1.2-19.5,0.3-26.4-0.7
	c-7.7-1.1-15.6-2.2-30.8-0.8c-15.3,1.4-22.8,4-30.2,6.5c-6.6,2.2-12.8,4.3-25.8,5.5c-13,1.2-19.5,0.3-26.4-0.7
	c-7.7-1.1-15.6-2.2-30.8-0.8c-4.2,0.4-7.3,3.4-7,6.7c0.3,3.3,3.9,5.7,8.1,5.3c13-1.2,19.5-0.3,26.4,0.7c7.7,1.1,15.6,2.2,30.8,0.8
	c15.3-1.4,22.8-4,30.2-6.5c6.6-2.2,12.8-4.3,25.8-5.5c13-1.2,19.5-0.3,26.4,0.7c7.7,1.1,15.6,2.2,30.8,0.8c15.3-1.4,22.9-4,30.2-6.5
	c6.6-2.2,12.8-4.3,25.8-5.5c13-1.2,19.5-0.3,26.4,0.7c7.7,1.1,15.6,2.2,30.8,0.8c15.3-1.4,22.9-4,30.2-6.5
	c6.6-2.2,14.5-4.3,27.5-5.5L1083.8,660z"/>
</svg>
