<?xml version="1.0" encoding="utf-8"?>
<!-- Generator: Adobe Illustrator 21.1.0, SVG Export Plug-In . SVG Version: 6.00 Build 0)  -->
<svg version="1.1" id="funnel" xmlns="http://www.w3.org/2000/svg" xmlns:xlink="http://www.w3.org/1999/xlink" x="0px" y="0px"
	 viewBox="0 0 1330 1300" style="enable-background:new 0 0 1330 1300;" xml:space="preserve">
<style type="text/css">
	.st0{fill:url(#SVGID_1_);}
	.st1{fill:url(#SVGID_2_);}
	.st2{fill:url(#SVGID_3_);}
	.st3{opacity:0.36;fill:none;stroke:#C0E9E2;stroke-width:10;stroke-linecap:round;stroke-miterlimit:10;}
	.st4{fill:url(#SVGID_4_);}
	.st5{fill:#3C4F5D;}
	.st6{fill:url(#SVGID_5_);}
	.st7{opacity:0;fill:none;stroke:url(#SVGID_8_);stroke-width:33;stroke-linecap:round;stroke-miterlimit:10;}
	.st8{opacity:0.35;fill:none;stroke:#FFFFFF;stroke-width:5;stroke-linecap:round;stroke-linejoin:round;stroke-miterlimit:10;}
</style>
<g>
	<linearGradient id="SVGID_1_" gradientUnits="userSpaceOnUse" x1="527.0285" y1="229.8311" x2="786.0125" y2="229.8311">
		<stop  offset="0" style="stop-color:#5B758A"/>
		<stop  offset="0.699" style="stop-color:#95ABB8"/>
	</linearGradient>
	<path class="st0" d="M663.8,209.2v24.2c0,4.9-5.3,9.3-13.7,12.4c-7.9,2.9-18.7,4.7-30.5,4.7c-11.8,0-22.5-1.8-30.5-4.7
		c-8.4-3.1-13.7-7.5-13.7-12.4v-24.2c0,7.6,12.9,14.1,30.7,16.3c4.2,0.5,8.7,0.8,13.4,0.8c4.7,0,9.2-0.3,13.4-0.8
		C650.9,223.3,663.8,216.8,663.8,209.2z"/>
	<linearGradient id="SVGID_2_" gradientUnits="userSpaceOnUse" x1="404.5244" y1="209.0626" x2="726.6624" y2="209.0626">
		<stop  offset="0" style="stop-color:#3C4F5D"/>
		<stop  offset="0.6644" style="stop-color:#90A6B3"/>
		<stop  offset="0.699" style="stop-color:#95ABB8"/>
	</linearGradient>
	<path class="st1" d="M663.8,209.1c0,7.8-12.9,14.3-30.7,16.6c-4.2,0.5-8.7,0.8-13.4,0.8c-4.7,0-9.2-0.3-13.4-0.8
		c-17.8-2.2-30.7-8.8-30.7-16.6c0-9.6,19.8-17.4,44.2-17.4C644.1,191.7,663.8,199.5,663.8,209.1z"/>
</g>
<g>
	<linearGradient id="SVGID_3_" gradientUnits="userSpaceOnUse" x1="224.1722" y1="209.83" x2="641.6822" y2="209.83">
		<stop  offset="0" style="stop-color:#3C4F5D"/>
		<stop  offset="1" style="stop-color:#5B758A"/>
	</linearGradient>
	<path class="st2" d="M641.7,151.7v57.5c0,3.9-6.4,7.1-15.3,8.3c-2.1,0.3-4.4,0.4-6.7,0.4c-2.3,0-4.6-0.1-6.7-0.4
		c-8.9-1.1-15.3-4.4-15.3-8.3v-57.5c0-43.7-33.1-79.3-73.9-79.3c-40.7,0-73.9,35.6-73.9,79.3v121.6c0,65.1-50.6,118-112.9,118
		c-62.2,0-112.9-52.9-112.9-118v-66.7h44v66.7c0,40.8,30.9,74,68.9,74c38,0,68.9-33.2,68.9-74V151.7c0-68,52.9-123.3,117.9-123.3
		C588.8,28.4,641.7,83.7,641.7,151.7z"/>
</g>
<path class="st3" d="M464.8,268.7"/>
<linearGradient id="SVGID_4_" gradientUnits="userSpaceOnUse" x1="387.7551" y1="117.385" x2="104.5851" y2="117.385">
	<stop  offset="0" style="stop-color:#5B758A"/>
	<stop  offset="0.9987" style="stop-color:#E0E7EA"/>
</linearGradient>
<path class="st4" d="M387.8,70.6c0,3.8-1.1,7.5-3.3,11.1l-0.4,0.7l-36,53.3c-18.8,28.2-53.4,83.5-101.9,83.5
	c-47.1,0-76.3-46.3-101.9-83.5l-36.4-53.8c-0.1-0.2-0.1-0.4-0.2-0.6c-2-3.5-3.1-7-3.1-10.7c0-30.4,74.3-55.1,141.6-55.1
	C313.5,15.6,387.8,40.2,387.8,70.6z"/>
<path class="st5" d="M183.4,123.5c0,15.1,30.8,27.4,64.3,27.4s64.3-12.3,64.3-27.4s-30.8-27.4-64.3-27.4S183.4,108.4,183.4,123.5z"
	/>
<g>
	<linearGradient id="SVGID_5_" gradientUnits="userSpaceOnUse" x1="393.8354" y1="150.26" x2="98.2847" y2="150.26">
		<stop  offset="1.342147e-03" style="stop-color:#E0E7EA"/>
		<stop  offset="1" style="stop-color:#5B758A"/>
	</linearGradient>
	<path class="st6" d="M384.5,81.7l-0.4,0.7l-36,53.3c-18.9,28.2-53.4,83.5-101.9,83.5c-47.1,0-76.3-46.3-101.9-83.5l-36.4-53.8
		c-0.1-0.2-0.1-0.4-0.2-0.6c14.7,25.3,79.3,44.4,138.5,44.4C305.1,125.7,369.3,106.8,384.5,81.7z"/>
	<g>
		<defs>
			<path id="SVGID_6_" d="M104.6,70.6c0,30.4,74.3,55.1,141.6,55.1s141.6-24.7,141.6-55.1s-74.3-55.1-141.6-55.1
				S104.6,40.2,104.6,70.6z"/>
		</defs>
		<clipPath id="SVGID_7_">
			<use xlink:href="#SVGID_6_"  style="overflow:visible;"/>
		</clipPath>
	</g>
</g>
<linearGradient id="SVGID_8_" gradientUnits="userSpaceOnUse" x1="247.6818" y1="815.0072" x2="247.6818" y2="815.0072" gradientTransform="matrix(1 0 0 -1 0 1015.2744)">
	<stop  offset="0" style="stop-color:#4CA2CE"/>
	<stop  offset="1" style="stop-color:#4E8DB7"/>
</linearGradient>
<path class="st7" d="M247.7,200.3"/>
<path class="st8" d="M599.6,68.6c2.9,3.1,4.4,5.2,4.4,5.2"/>
<path class="st8" d="M553.2,38.9c19,6.4,32.8,16.8,41.2,24.6"/>
<path class="st8" d="M261.1,349.4c-2.9-3.1-4.4-5.2-4.4-5.2"/>
<path class="st8" d="M307.5,379.1c-19-6.4-32.8-16.8-41.2-24.6"/>
</svg>
