<?xml version="1.0" encoding="utf-8"?>
<!-- Generator: Adobe Illustrator 21.1.0, SVG Export Plug-In . SVG Version: 6.00 Build 0)  -->
<svg version="1.1" id="Layer_1" xmlns="http://www.w3.org/2000/svg" xmlns:xlink="http://www.w3.org/1999/xlink" x="0px" y="0px"
	 viewBox="0 0 300 300" style="enable-background:new 0 0 300 300;" xml:space="preserve">
<style type="text/css">
	.st0{fill:#9C2B25;}
	.st1{fill:#DA716A;}
	.st2{fill:#B54840;}
	.st3{opacity:0.49;fill:url(#SVGID_1_);}
	.st4{opacity:0.61;fill:url(#SVGID_2_);}
	.st5{opacity:0.49;fill:url(#SVGID_3_);}
	.st6{opacity:0.61;fill:url(#SVGID_4_);}
	.st7{opacity:0.49;fill:url(#SVGID_5_);}
	.st8{opacity:0.61;fill:url(#SVGID_6_);}
	.st9{opacity:0.49;fill:url(#SVGID_7_);}
	.st10{opacity:0.61;fill:url(#SVGID_8_);}
	.st11{opacity:0.49;fill:url(#SVGID_9_);}
	.st12{opacity:0.61;fill:url(#SVGID_10_);}
	.st13{opacity:0.49;fill:url(#SVGID_11_);}
	.st14{opacity:0.61;fill:url(#SVGID_12_);}
	.st15{opacity:0.49;fill:url(#SVGID_13_);}
	.st16{opacity:0.61;fill:url(#SVGID_14_);}
	.st17{opacity:0.49;fill:url(#SVGID_15_);}
	.st18{opacity:0.61;fill:url(#SVGID_16_);}
</style>
<g>
	<polygon class="st0" points="2.8,146.9 2.8,215 97.2,269.5 97.2,201.4 	"/>
	<polygon class="st1" points="2.8,146.9 203.3,31.2 297.6,85.6 97.2,201.4 	"/>
	<polygon class="st2" points="97.2,269.5 297.6,153.7 297.6,85.6 97.2,201.4 	"/>
	<linearGradient id="SVGID_1_" gradientUnits="userSpaceOnUse" x1="103.1041" y1="106.0603" x2="114.8067" y2="106.0603">
		<stop  offset="1.276299e-03" style="stop-color:#9C2B25;stop-opacity:0.3"/>
		<stop  offset="0.9987" style="stop-color:#9C2B25"/>
	</linearGradient>
	<path class="st3" d="M114.8,106.1c0,0.6-0.3,1.2-0.8,1.7c-1,1-2.9,1.7-5.1,1.7c-2.2,0-4.1-0.7-5.1-1.7c-0.5-0.5-0.8-1.1-0.8-1.7
		c0-1.9,2.6-3.4,5.9-3.4C112.2,102.7,114.8,104.2,114.8,106.1z"/>
	<linearGradient id="SVGID_2_" gradientUnits="userSpaceOnUse" x1="108.9577" y1="109.4648" x2="108.9577" y2="106.0601">
		<stop  offset="1.276299e-03" style="stop-color:#9C2B25;stop-opacity:0.3"/>
		<stop  offset="0.9987" style="stop-color:#9C2B25"/>
	</linearGradient>
	<path class="st4" d="M114,107.8c-1,1-2.9,1.7-5.1,1.7c-2.2,0-4.1-0.7-5.1-1.7c1-1,2.9-1.7,5.1-1.7C111.1,106.1,113,106.7,114,107.8
		z"/>
	<linearGradient id="SVGID_3_" gradientUnits="userSpaceOnUse" x1="198.269" y1="112.869" x2="208.3281" y2="112.869">
		<stop  offset="1.276299e-03" style="stop-color:#9C2B25;stop-opacity:0.3"/>
		<stop  offset="0.9987" style="stop-color:#9C2B25"/>
	</linearGradient>
	<path class="st5" d="M208.3,112.9c0,0.5-0.2,1-0.7,1.5c-0.9,0.9-2.5,1.5-4.4,1.5c-1.9,0-3.5-0.6-4.4-1.5c-0.4-0.4-0.7-0.9-0.7-1.5
		c0-1.6,2.3-2.9,5-2.9C206.1,109.9,208.3,111.3,208.3,112.9z"/>
	<linearGradient id="SVGID_4_" gradientUnits="userSpaceOnUse" x1="203.3005" y1="115.7954" x2="203.3005" y2="112.8689">
		<stop  offset="1.276299e-03" style="stop-color:#9C2B25;stop-opacity:0.3"/>
		<stop  offset="0.9987" style="stop-color:#9C2B25"/>
	</linearGradient>
	<path class="st6" d="M207.7,114.3c-0.9,0.9-2.5,1.5-4.4,1.5c-1.9,0-3.5-0.6-4.4-1.5c0.9-0.9,2.5-1.5,4.4-1.5
		C205.2,112.9,206.8,113.5,207.7,114.3z"/>
	<linearGradient id="SVGID_5_" gradientUnits="userSpaceOnUse" x1="199.1775" y1="58.3983" x2="207.4195" y2="58.3983">
		<stop  offset="1.276299e-03" style="stop-color:#9C2B25;stop-opacity:0.3"/>
		<stop  offset="0.9987" style="stop-color:#9C2B25"/>
	</linearGradient>
	<path class="st7" d="M207.4,58.4c0,0.4-0.2,0.8-0.6,1.2c-0.7,0.7-2,1.2-3.6,1.2c-1.5,0-2.9-0.5-3.6-1.2c-0.4-0.4-0.6-0.8-0.6-1.2
		c0-1.3,1.8-2.4,4.1-2.4S207.4,57.1,207.4,58.4z"/>
	<linearGradient id="SVGID_6_" gradientUnits="userSpaceOnUse" x1="203.3001" y1="60.7961" x2="203.3001" y2="58.3983">
		<stop  offset="1.276299e-03" style="stop-color:#9C2B25;stop-opacity:0.3"/>
		<stop  offset="0.9987" style="stop-color:#9C2B25"/>
	</linearGradient>
	<path class="st8" d="M206.9,59.6c-0.7,0.7-2,1.2-3.6,1.2c-1.5,0-2.9-0.5-3.6-1.2c0.7-0.7,2-1.2,3.6-1.2
		C204.8,58.4,206.2,58.9,206.9,59.6z"/>
	<linearGradient id="SVGID_7_" gradientUnits="userSpaceOnUse" x1="103.8863" y1="180.9576" x2="114.0245" y2="180.9576">
		<stop  offset="1.276299e-03" style="stop-color:#9C2B25;stop-opacity:0.3"/>
		<stop  offset="0.9987" style="stop-color:#9C2B25"/>
	</linearGradient>
	<path class="st9" d="M114,181c0,0.5-0.2,1-0.7,1.5c-0.9,0.9-2.5,1.5-4.4,1.5c-1.9,0-3.5-0.6-4.4-1.5c-0.4-0.4-0.7-0.9-0.7-1.5
		c0-1.6,2.3-2.9,5.1-2.9S114,179.3,114,181z"/>
	<linearGradient id="SVGID_8_" gradientUnits="userSpaceOnUse" x1="108.9574" y1="183.907" x2="108.9574" y2="180.9575">
		<stop  offset="1.276299e-03" style="stop-color:#9C2B25;stop-opacity:0.3"/>
		<stop  offset="0.9987" style="stop-color:#9C2B25"/>
	</linearGradient>
	<path class="st10" d="M113.3,182.4c-0.9,0.9-2.5,1.5-4.4,1.5c-1.9,0-3.5-0.6-4.4-1.5c0.9-0.9,2.5-1.5,4.4-1.5
		C110.8,181,112.5,181.6,113.3,182.4z"/>
	<linearGradient id="SVGID_9_" gradientUnits="userSpaceOnUse" x1="35.2725" y1="153.7222" x2="41.1238" y2="153.7222">
		<stop  offset="1.276299e-03" style="stop-color:#9C2B25;stop-opacity:0.3"/>
		<stop  offset="0.9987" style="stop-color:#9C2B25"/>
	</linearGradient>
	<path class="st11" d="M41.1,153.7c0,0.3-0.1,0.6-0.4,0.9c-0.5,0.5-1.5,0.9-2.5,0.9c-1.1,0-2-0.3-2.5-0.9c-0.3-0.3-0.4-0.5-0.4-0.9
		c0-0.9,1.3-1.7,2.9-1.7C39.8,152,41.1,152.8,41.1,153.7z"/>
	<linearGradient id="SVGID_10_" gradientUnits="userSpaceOnUse" x1="38.1992" y1="155.4244" x2="38.1992" y2="153.7221">
		<stop  offset="1.276299e-03" style="stop-color:#9C2B25;stop-opacity:0.3"/>
		<stop  offset="0.9987" style="stop-color:#9C2B25"/>
	</linearGradient>
	<path class="st12" d="M40.7,154.6c-0.5,0.5-1.5,0.9-2.5,0.9c-1.1,0-2-0.3-2.5-0.9c0.5-0.5,1.5-0.9,2.5-0.9
		C39.3,153.7,40.2,154.1,40.7,154.6z"/>
	<linearGradient id="SVGID_11_" gradientUnits="userSpaceOnUse" x1="141.4084" y1="133.2956" x2="147.2597" y2="133.2956">
		<stop  offset="1.276299e-03" style="stop-color:#9C2B25;stop-opacity:0.3"/>
		<stop  offset="0.9987" style="stop-color:#9C2B25"/>
	</linearGradient>
	<path class="st13" d="M147.3,133.3c0,0.3-0.1,0.6-0.4,0.9c-0.5,0.5-1.5,0.9-2.5,0.9c-1.1,0-2-0.3-2.5-0.9c-0.3-0.3-0.4-0.5-0.4-0.9
		c0-0.9,1.3-1.7,2.9-1.7S147.3,132.4,147.3,133.3z"/>
	<linearGradient id="SVGID_12_" gradientUnits="userSpaceOnUse" x1="144.3352" y1="134.9979" x2="144.3352" y2="133.2956">
		<stop  offset="1.276299e-03" style="stop-color:#9C2B25;stop-opacity:0.3"/>
		<stop  offset="0.9987" style="stop-color:#9C2B25"/>
	</linearGradient>
	<path class="st14" d="M146.9,134.1c-0.5,0.5-1.5,0.9-2.5,0.9c-1.1,0-2-0.3-2.5-0.9c0.5-0.5,1.5-0.9,2.5-0.9
		C145.4,133.3,146.4,133.6,146.9,134.1z"/>
	<linearGradient id="SVGID_13_" gradientUnits="userSpaceOnUse" x1="212.1658" y1="78.8249" x2="218.0171" y2="78.8249">
		<stop  offset="1.276299e-03" style="stop-color:#9C2B25;stop-opacity:0.3"/>
		<stop  offset="0.9987" style="stop-color:#9C2B25"/>
	</linearGradient>
	<path class="st15" d="M218,78.8c0,0.3-0.1,0.6-0.4,0.9c-0.5,0.5-1.5,0.9-2.5,0.9c-1.1,0-2-0.3-2.5-0.9c-0.3-0.3-0.4-0.5-0.4-0.9
		c0-0.9,1.3-1.7,2.9-1.7S218,77.9,218,78.8z"/>
	<linearGradient id="SVGID_14_" gradientUnits="userSpaceOnUse" x1="215.0925" y1="80.5271" x2="215.0925" y2="78.8248">
		<stop  offset="1.276299e-03" style="stop-color:#9C2B25;stop-opacity:0.3"/>
		<stop  offset="0.9987" style="stop-color:#9C2B25"/>
	</linearGradient>
	<path class="st16" d="M217.6,79.7c-0.5,0.5-1.5,0.9-2.5,0.9c-1.1,0-2-0.3-2.5-0.9c0.5-0.5,1.5-0.9,2.5-0.9
		C216.2,78.8,217.1,79.2,217.6,79.7z"/>
	<linearGradient id="SVGID_15_" gradientUnits="userSpaceOnUse" x1="259.3373" y1="85.6337" x2="265.1886" y2="85.6337">
		<stop  offset="1.276299e-03" style="stop-color:#9C2B25;stop-opacity:0.3"/>
		<stop  offset="0.9987" style="stop-color:#9C2B25"/>
	</linearGradient>
	<path class="st17" d="M265.2,85.6c0,0.3-0.1,0.6-0.4,0.9c-0.5,0.5-1.5,0.9-2.5,0.9c-1.1,0-2-0.3-2.5-0.9c-0.3-0.3-0.4-0.5-0.4-0.9
		c0-0.9,1.3-1.7,2.9-1.7C263.9,83.9,265.2,84.7,265.2,85.6z"/>
	<linearGradient id="SVGID_16_" gradientUnits="userSpaceOnUse" x1="262.2641" y1="87.336" x2="262.2641" y2="85.6337">
		<stop  offset="1.276299e-03" style="stop-color:#9C2B25;stop-opacity:0.3"/>
		<stop  offset="0.9987" style="stop-color:#9C2B25"/>
	</linearGradient>
	<path class="st18" d="M264.8,86.5c-0.5,0.5-1.5,0.9-2.5,0.9c-1.1,0-2-0.3-2.5-0.9c0.5-0.5,1.5-0.9,2.5-0.9
		C263.3,85.6,264.3,86,264.8,86.5z"/>
</g>
</svg>
