<?xml version="1.0" encoding="utf-8"?>
<!-- Generator: Adobe Illustrator 21.1.0, SVG Export Plug-In . SVG Version: 6.00 Build 0)  -->
<svg version="1.1" id="Layer_1" xmlns="http://www.w3.org/2000/svg" xmlns:xlink="http://www.w3.org/1999/xlink" x="0px" y="0px"
	 viewBox="0 0 300 300" style="enable-background:new 0 0 300 300;" xml:space="preserve">
<style type="text/css">
	.st0{fill:#525F69;}
	.st1{fill:#66737D;}
	.st2{fill:#58656F;}
	.st3{fill:#5C6973;}
	.st4{fill:#65727C;}
	.st5{fill:#707F87;}
	.st6{fill:#54616B;}
	.st7{fill:#4F5C66;}
	.st8{fill:url(#SVGID_1_);}
	.st9{opacity:0.56;}
	.st10{fill:url(#SVGID_2_);}
</style>
<g>
	<polygon class="st0" points="13.4,103.2 88,59.8 105.3,67.5 30.7,110.8 	"/>
</g>
<g>
	<path class="st1" d="M139,25.8c13.6-3.6,30.3-0.6,48.4,9.8c45.2,26.1,81.7,89.3,81.5,141.3c-0.1,20.7-6,36.5-15.9,46.3l-74.6,43.5
		L64.3,68.9L139,25.8z"/>
</g>
<g>
	<polygon class="st1" points="125,274.2 199.7,230.8 197.6,249.6 122.9,292.9 	"/>
</g>
<g>
	<polygon class="st1" points="178.4,266.6 253.1,223.3 263.8,245.3 189.2,288.6 	"/>
</g>
<g>
	<polygon class="st2" points="50.6,48.5 125.2,5.1 138.9,26 64.3,68.8 	"/>
</g>
<g>
	<polygon class="st3" points="192.7,204.4 267.4,161 284.7,173.4 210.1,216.7 	"/>
</g>
<g>
	<polygon class="st4" points="210.1,216.7 284.7,173.4 284.6,199.9 210,243.3 	"/>
</g>
<g>
	<polygon class="st5" points="100.5,53.5 175.1,10.2 198.2,23.5 123.6,66.9 	"/>
</g>
<g>
	<polygon class="st6" points="123.6,66.9 198.2,23.5 200.2,44.6 125.6,88 	"/>
</g>
<g>
	<polygon class="st7" points="189.6,147.6 264.2,104.2 253.4,113.7 178.8,157.1 	"/>
</g>
<g>
	<polygon class="st4" points="173.3,119.3 247.9,76 264.2,104.2 189.6,147.6 	"/>
</g>
<g>
	<polygon class="st2" points="159.6,123.9 234.2,80.5 247.9,76 173.3,119.3 	"/>
</g>
<g>
	
		<linearGradient id="SVGID_1_" gradientUnits="userSpaceOnUse" x1="52.575" y1="69.625" x2="170.825" y2="187.875" gradientTransform="matrix(1 0 0 -1 0 302)">
		<stop  offset="0" style="stop-color:#353E44"/>
		<stop  offset="1" style="stop-color:#4F5C66"/>
	</linearGradient>
	<path class="st8" d="M123.6,66.9l2,21.1c12.5,9.6,24.1,22,34,35.9l13.7-4.5l16.3,28.2l-10.9,9.5c7.1,15.5,12,31.7,14,47.3
		l17.3,12.4l-0.1,26.6l-17.3-7.7c-2.1,13.2-7.1,23.7-14.2,31l10.8,22l-16.4,9.3l-13.7-20.4c-10,2.4-21.5,1.4-34.1-3.4l-2.1,18.8
		l-23.1-13.4l-2-21.1c-12.5-9.6-24.1-22-34-35.9l-13.7,4.5l-16.3-28.2l10.9-9.5c-7.1-15.5-12-31.7-14-47.3l-17.3-12.4l0.1-26.6
		l17.3,7.7c2.1-13.2,7.1-23.7,14.2-31l-10.8-22l16.4-9.3l13.7,20.4c10-2.4,21.6-1.4,34.1,3.4l2.1-18.7L123.6,66.9z"/>
</g>
<g class="st9">
	
		<linearGradient id="SVGID_2_" gradientUnits="userSpaceOnUse" x1="80.0511" y1="99.7587" x2="135.3914" y2="155.0989" gradientTransform="matrix(1 0 0 -1 0 302)">
		<stop  offset="0" style="stop-color:#9FAEB7"/>
		<stop  offset="1" style="stop-color:#BFC9CF"/>
	</linearGradient>
	<path class="st10" d="M107.9,122.8c24.9,14.4,45,49.2,44.9,77.8c-0.1,28.6-20.3,40.1-45.2,25.8c-24.9-14.4-45-49.2-44.9-77.8
		C62.7,119.9,83,108.4,107.9,122.8z"/>
</g>
<g>
	<path class="st1" d="M107.8,154.1c9.9,5.7,17.8,19.5,17.8,30.8s-8.1,15.9-17.9,10.2c-9.9-5.7-17.8-19.5-17.8-30.8
		C89.9,152.9,97.9,148.4,107.8,154.1z"/>
</g>
</svg>
