<?xml version="1.0" encoding="utf-8"?>
<!-- Generator: Adobe Illustrator 21.1.0, SVG Export Plug-In . SVG Version: 6.00 Build 0)  -->
<svg version="1.1" id="Layer_1" xmlns="http://www.w3.org/2000/svg" xmlns:xlink="http://www.w3.org/1999/xlink" x="0px" y="0px"
	 viewBox="0 0 259 287" style="enable-background:new 0 0 259 287;" xml:space="preserve">
<style type="text/css">
	.st0{opacity:0.2;fill:#60453D;}
	.st1{fill:#A3C6B1;}
	.st2{fill:#7EA38D;}
	.st3{fill:#BAE5CB;}
	.st4{fill:#8FBCA1;}
	.st5{fill:#4B6054;}
	.st6{fill:#D2F7E0;}
	.st7{fill:none;stroke:#7EA38D;stroke-miterlimit:10;}
	.st8{fill:none;stroke:#4B6054;stroke-width:2;stroke-linecap:round;stroke-linejoin:round;stroke-miterlimit:10;}
	.st9{fill:url(#SVGID_1_);}
	.st10{fill:none;stroke:#D2F7E0;stroke-width:3;stroke-miterlimit:10;}
	.st11{fill:none;stroke:#4B6054;stroke-width:4;stroke-miterlimit:10;}
</style>
<polygon class="st0" points="252.2,264.5 5,264.5 14.8,247.5 245.8,247.5 "/>
<title>momMac</title>
<g>
	<g>
		<polygon class="st1" points="243.8,245.1 15.2,245.1 23.5,6.8 235.5,6.8 		"/>
	</g>
	<polygon class="st2" points="220.4,221 39.8,221 45.1,25.9 214.9,25.9 	"/>
	<path class="st3" d="M190.7,200.4H68.3c-4,0-7.1-3-7-6.7l3.1-146.1c0.1-3.4,3.2-6.1,6.9-6.1h116.5c3.8,0,6.9,2.7,6.9,6.1l3.1,146.1
		C197.8,197.4,194.7,200.4,190.7,200.4z"/>
	<path class="st4" d="M190.3,179.5H68.7c-3.9,0-7.1-3-7-6.6l2.7-126.2c0.1-3.4,3.2-6.1,7-6.1h116.4c3.8,0,6.9,2.7,7,6.1l2.7,126.2
		C197.4,176.5,194.3,179.5,190.3,179.5z"/>
	<path class="st3" d="M189.3,173.3H69.7c-2.6,0-4.7-2-4.6-4.4l2.4-119.6c0-2.2,2.1-4,4.6-4h114.9c2.5,0,4.5,1.8,4.6,4l2.4,119.6
		C194,171.4,191.9,173.3,189.3,173.3z"/>
	<path class="st4" d="M184.2,128.5H75.9c-0.7,0-1.2-0.5-1.2-1.1L76,54c0-0.6,0.5-1.1,1.2-1.1h105.8c0.7,0,1.2,0.5,1.2,1.1l1.3,73.3
		C185.4,128,184.9,128.5,184.2,128.5z"/>
	<path class="st4" d="M184.8,194.1h-21c-0.4,0-0.7-0.3-0.7-0.7l-0.1-10.2c0-0.4,0.3-0.7,0.7-0.7h20.9c0.4,0,0.7,0.3,0.7,0.7
		l0.2,10.2C185.5,193.8,185.2,194.1,184.8,194.1z"/>
	<path class="st5" d="M176,124.2l-26.4,0.7c-13.3,0.3-26.6,0.3-39.9,0l-25.5-0.7c-2.8-0.1-5-2.2-4.9-4.8l0.9-57.2
		c0-2.9,2.7-5.3,5.9-5.4l34.3-0.9c6.5-0.2,12.9-0.2,19.4,0l34.3,0.9c3.2,0.1,5.8,2.5,5.9,5.4l0.9,57.2
		C180.9,122.1,178.7,124.2,176,124.2z"/>
	<polygon class="st6" points="177.1,119 83,119 83.9,61.1 176.2,61.1 	"/>
	<path class="st5" d="M183,192.5h-7.5c-0.4,0-0.7-0.3-0.7-0.7l-0.1-7c0-0.4,0.3-0.7,0.7-0.7h7.5c0.4,0,0.7,0.3,0.7,0.7l0.1,7
		C183.8,192.2,183.4,192.5,183,192.5z"/>
	<polygon class="st7" points="81.8,167.1 72.9,167.1 73,158.9 81.9,158.9 	"/>
	<g>
		<path class="st8" d="M122.9,95.1"/>
		<path class="st8" d="M96,90.8c3.2,1.8,7.4,0.6,10.5-1.6c-0.4,4.3-1.2,7.1-4,10.3c2-3,5.2-9.3,9.3-9.5c0.8,0,1.4,0.5,1.4,1.2
			c0,2.1-0.6,3.8-1.2,5.9c0.8-2,4.3-7.8,7.4-6.5c3.3,1.4-1.4,5.6-0.3,7.5c1.4,2.2,3.7,1.1,4.7-0.3"/>
		<path class="st8" d="M131.8,91.7c2.3-0.1,4.6-1.1,6.6-2.4c-0.4,4.3-1.2,7.1-3.9,10.3c1.9-3,5.1-9.3,9.2-9.5c0.8,0,1.4,0.5,1.4,1.2
			c0,2.1-0.5,3.8-1.2,5.9c0.8-2,4.2-7.8,7.3-6.5c3.4,1.4-1.4,5.6-0.2,7.5c1.4,2.2,3.8,1.1,4.7-0.3"/>
		<path class="st8" d="M131.7,92.4c-2.2-3.7-7.8-2.5-7.8,2.4c0,2.6,1.1,4.7,4.4,4.7C131.8,99.5,133.2,95.4,131.7,92.4"/>
	</g>
	<path class="st4" d="M163.7,150.8l0,1h-28.1c-0.3,0-0.6,0.3-0.6,0.6l0,5c0,0.3,0.3,0.6,0.6,0.6h28.2l0,2c0,0.6,0.5,1.1,1.2,1.1
		h19.9l-0.2-11.2h-19.8C164.2,149.7,163.7,150.2,163.7,150.8z"/>
	<polygon class="st5" points="180.9,156.3 136.7,156.3 136.7,153.3 180.9,153.3 	"/>
	<path class="st5" d="M180.2,158.4h-11.9c-0.3,0-0.6-0.3-0.6-0.6l-0.1-4.5h13.3l0.1,4.3C181,158.1,180.6,158.4,180.2,158.4z"/>
	<path class="st2" d="M183.2,157.9c0,0.3-0.2,0.5-0.5,0.5c-0.3,0-0.6-0.2-0.6-0.5c0-0.3,0.2-0.5,0.5-0.5S183.2,157.6,183.2,157.9z"
		/>
</g>
<linearGradient id="SVGID_1_" gradientUnits="userSpaceOnUse" x1="103.2956" y1="96.0331" x2="168.3132" y2="170.9335">
	<stop  offset="8.961284e-02" style="stop-color:#FFFFFF;stop-opacity:0.4"/>
	<stop  offset="0.5204" style="stop-color:#FFFFFF;stop-opacity:0"/>
	<stop  offset="0.758" style="stop-color:#FFFFFF;stop-opacity:0.3"/>
	<stop  offset="1" style="stop-color:#FFFFFF;stop-opacity:0"/>
</linearGradient>
<polygon class="st9" points="220.8,220.7 39.2,220.7 46,25.1 214.1,25.1 "/>
<line class="st10" x1="219.8" y1="220.5" x2="39.2" y2="220.5"/>
<line class="st11" x1="44.6" y1="25.4" x2="214.4" y2="25.4"/>
<polygon class="st5" points="14.8,244.7 19,250.2 240,250.2 244.2,244.7 "/>
</svg>
