<?xml version="1.0" encoding="utf-8"?>
<!-- Generator: Adobe Illustrator 21.1.0, SVG Export Plug-In . SVG Version: 6.00 Build 0)  -->
<svg version="1.1" id="Layer_1" xmlns="http://www.w3.org/2000/svg" xmlns:xlink="http://www.w3.org/1999/xlink" x="0px" y="0px"
	 viewBox="0 0 1330 1300" style="enable-background:new 0 0 1330 1300;" xml:space="preserve">
<style type="text/css">
	.st0{fill:#FBE7A8;}
	.st1{fill:url(#SVGID_1_);}
	.st2{fill:url(#SVGID_2_);}
	.st3{opacity:0.47;fill:url(#SVGID_3_);enable-background:new    ;}
	.st4{opacity:0.5;fill:url(#SVGID_4_);enable-background:new    ;}
	.st5{opacity:0.39;fill:url(#SVGID_5_);enable-background:new    ;}
	.st6{opacity:0.62;fill:url(#SVGID_6_);enable-background:new    ;}
	.st7{opacity:0.4;fill:url(#SVGID_7_);enable-background:new    ;}
	.st8{opacity:0.62;fill:url(#SVGID_8_);enable-background:new    ;}
	.st9{opacity:0.56;fill:url(#SVGID_9_);enable-background:new    ;}
	.st10{opacity:0.62;fill:url(#SVGID_10_);enable-background:new    ;}
	.st11{opacity:0.56;fill:url(#SVGID_11_);enable-background:new    ;}
	.st12{fill:url(#SVGID_12_);}
	.st13{opacity:0.32;fill:url(#SVGID_13_);enable-background:new    ;}
	.st14{opacity:0.4;fill:url(#SVGID_14_);enable-background:new    ;}
	.st15{opacity:0.38;fill:url(#SVGID_15_);enable-background:new    ;}
	.st16{opacity:0.38;fill:url(#SVGID_16_);enable-background:new    ;}
	.st17{opacity:0.4;fill:url(#SVGID_17_);enable-background:new    ;}
	.st18{opacity:0.4;fill:url(#SVGID_18_);enable-background:new    ;}
	.st19{opacity:0.19;fill:url(#SVGID_19_);enable-background:new    ;}
	.st20{opacity:0.19;fill:url(#SVGID_20_);enable-background:new    ;}
	.st21{opacity:0.19;fill:url(#SVGID_21_);enable-background:new    ;}
	.st22{opacity:0.19;fill:url(#SVGID_22_);enable-background:new    ;}
	.st23{opacity:0.19;fill:url(#SVGID_23_);enable-background:new    ;}
	.st24{opacity:0.19;fill:url(#SVGID_24_);enable-background:new    ;}
	.st25{opacity:0.19;fill:url(#SVGID_25_);enable-background:new    ;}
	.st26{opacity:0.19;fill:url(#SVGID_26_);enable-background:new    ;}
	.st27{opacity:0.19;fill:url(#SVGID_27_);enable-background:new    ;}
	.st28{opacity:0.19;fill:url(#SVGID_28_);enable-background:new    ;}
	.st29{opacity:0.19;fill:url(#SVGID_29_);enable-background:new    ;}
	.st30{opacity:0.19;fill:url(#SVGID_30_);enable-background:new    ;}
	.st31{opacity:0.19;fill:url(#SVGID_31_);enable-background:new    ;}
	.st32{opacity:0.19;fill:url(#SVGID_32_);enable-background:new    ;}
	.st33{opacity:0.19;fill:url(#SVGID_33_);enable-background:new    ;}
	.st34{opacity:0.19;fill:url(#SVGID_34_);enable-background:new    ;}
	.st35{opacity:0.32;fill:url(#SVGID_35_);enable-background:new    ;}
	.st36{opacity:0.32;fill:url(#SVGID_36_);enable-background:new    ;}
	.st37{fill:none;}
	.st38{fill:url(#SVGID_37_);}
	.st39{opacity:0.69;fill:url(#SVGID_38_);enable-background:new    ;}
	.st40{opacity:0.69;fill:url(#SVGID_39_);enable-background:new    ;}
	.st41{opacity:0.69;fill:url(#SVGID_40_);enable-background:new    ;}
	.st42{opacity:0.69;fill:url(#SVGID_41_);enable-background:new    ;}
</style>
<path class="st0" d="M528.8,541c16.6,0,39-19.7,57.5-75.9c13.2-40.2,30.6-68.1,51.7-83c16.6-11.7,35.1-15.1,54.9-10.1
	c26.9,6.7,58.1,46.6,43.2,114.3c-0.4,1.6,0.7,3.3,2.3,3.6c1.6,0.4,3.3-0.7,3.6-2.3c15.7-71.7-18.4-114.2-47.7-121.5
	c-21.4-5.3-42.1-1.5-59.9,11.1c-22.2,15.6-40.3,44.6-53.9,86.1c-8.4,25.5-18.5,45.5-29.2,58c-9.1,10.5-18.2,15.2-25.9,13.3
	c-7.9-2-14-10.9-17.2-25c-3.7-16.4-3.2-38.3,1.4-63.4c0.3-1.7-0.8-3.2-2.4-3.6c-1.7-0.3-3.2,0.8-3.6,2.4
	c-11.1,59.5,2.2,90.8,20.2,95.4C525.4,540.7,527,541,528.8,541z"/>
<linearGradient id="SVGID_1_" gradientUnits="userSpaceOnUse" x1="948.9276" y1="844.5789" x2="981.7367" y2="787.752" gradientTransform="matrix(-1 0 0 -1 1633.4164 1300)">
	<stop  offset="0" style="stop-color:#FAD566"/>
	<stop  offset="0.1718" style="stop-color:#FACB55"/>
	<stop  offset="0.4885" style="stop-color:#FBBC3B"/>
	<stop  offset="0.7742" style="stop-color:#FBB32B"/>
	<stop  offset="1" style="stop-color:#FBB026"/>
</linearGradient>
<path class="st1" d="M559.1,393.7c139.2,46.4,198,122,162,298c0,0-31.2,32.6-70.1,26.3c-38.9-6.3,0,0,0,0s139.1-226.3-98.9-301.3
	C537.6,412.1,541.1,387.7,559.1,393.7z"/>
<g>
	
		<radialGradient id="SVGID_2_" cx="941.7182" cy="692.4319" r="179.6563" gradientTransform="matrix(-1 0 0 -1 1633.4164 1300)" gradientUnits="userSpaceOnUse">
		<stop  offset="0.2744" style="stop-color:#94533C"/>
		<stop  offset="0.4686" style="stop-color:#824834"/>
		<stop  offset="0.8544" style="stop-color:#552A1E"/>
		<stop  offset="1" style="stop-color:#421E15"/>
	</radialGradient>
	<path class="st2" d="M550.8,625.7c0-8,3.4-17.9,4.6-25.9c1.3-8.7,2.8-17.1,5.6-25.5c5.3-16.2,13.2-29.8,24.5-42.2
		c4.7-5.1,9.5-10.4,14.4-15.2c6.6-6.4,13-9,20.5-13.5c5-3.1,8.8-7.6,14.3-10.3c7.2-3.6,15.5-5.5,23-8.6c7.4-3.1,14.7-2.7,22.3-4.2
		c7.9-1.5,14.3-3.3,22.7-2.5c8.3,0.8,20.2,0.5,27.9,3.3c2.6,1,3.9,2.8,6.3,3.8c5,2.2,9,0.7,14,2.1c7.2,2.1,14.7,8.6,21.5,12
		c5,2.5,11.5,4.2,16,7.6c11.6,8.5,21.4,22.9,31.1,33.7c4.9,5.4,8.8,11,10.8,18.2c2.4,8.7,5.7,14.7,10,22.6
		c2.9,5.2,3.1,11.2,3.1,17.2c0,4.2-0.4,6.4,0.8,10.5c1.9,6.6,1.8,7,1,13.8c-0.8,6.5,2.8,11.2,1.3,17.6c-2.1,9-5.4,17.7-6.8,27.2
		c-1,6.8-2.3,10.6-5.9,16.3c-5.5,8.8-6.6,19-12.4,27.2c-4.2,6-9.9,10.1-14.3,15.8c-4.5,5.8-6.9,5.4-12.9,9.2
		c-5.9,3.7-9.6,10.6-15.4,14.3c-6.8,4.3-15,6.3-22,10.9c-12.9,8.7-31.6,10.6-47.2,11.3c-7.8,0.3-17,3-24.5,1.3
		c-7-1.6-13.1-5.1-20.5-5.3c-10-0.3-14.2-3.1-22.9-8c-6.8-3.8-12.4-4.5-18.5-9.4c-3.2-2.6-5.8-3-9.4-4.8c-4.7-2.5-6.5-6-10.2-9.6
		c-4.9-4.8-10.6-9.2-15.8-13.7c-14.8-12.9-19.5-29.3-27-46.7c-3.7-8.6-4.4-14.2-5.5-23.7C554.2,643.5,550.8,634.5,550.8,625.7z"/>
</g>
<linearGradient id="SVGID_3_" gradientUnits="userSpaceOnUse" x1="388.7501" y1="282.7255" x2="410.7499" y2="282.7255" gradientTransform="matrix(0.6495 0.7604 -0.7604 0.6495 772.4468 161.0999)">
	<stop  offset="0" style="stop-color:#562416"/>
	<stop  offset="1" style="stop-color:#421E15"/>
</linearGradient>
<circle class="st3" cx="817.1" cy="648.7" r="11"/>
<linearGradient id="SVGID_4_" gradientUnits="userSpaceOnUse" x1="1010.2918" y1="588.3" x2="1032.2917" y2="588.3" gradientTransform="matrix(-1 0 0 -1 1633.4164 1300)">
	<stop  offset="0" style="stop-color:#562416"/>
	<stop  offset="1" style="stop-color:#421E15"/>
</linearGradient>
<circle class="st4" cx="612.1" cy="711.7" r="11"/>
<linearGradient id="SVGID_5_" gradientUnits="userSpaceOnUse" x1="410.5811" y1="309.9889" x2="426.5812" y2="309.9889" gradientTransform="matrix(0.7071 0.7071 -0.7071 0.7071 729.2992 83.5129)">
	<stop  offset="0" style="stop-color:#562416"/>
	<stop  offset="1" style="stop-color:#421E15"/>
</linearGradient>
<circle class="st5" cx="806.1" cy="598.7" r="8"/>
<linearGradient id="SVGID_6_" gradientUnits="userSpaceOnUse" x1="1036.2917" y1="654.3" x2="1052.2917" y2="654.3" gradientTransform="matrix(-1 0 0 -1 1633.4164 1300)">
	<stop  offset="0" style="stop-color:#562416"/>
	<stop  offset="1" style="stop-color:#421E15"/>
</linearGradient>
<circle class="st6" cx="589.1" cy="645.7" r="8"/>
<linearGradient id="SVGID_7_" gradientUnits="userSpaceOnUse" x1="430.7389" y1="371.9885" x2="442.742" y2="371.9885" gradientTransform="matrix(0.3998 0.9166 -0.9166 0.3998 933.432 99.6082)">
	<stop  offset="0" style="stop-color:#562416"/>
	<stop  offset="1" style="stop-color:#421E15"/>
</linearGradient>
<circle class="st7" cx="767.1" cy="648.7" r="6"/>
<linearGradient id="SVGID_8_" gradientUnits="userSpaceOnUse" x1="1050.506" y1="527.2861" x2="1058.5072" y2="527.2861" gradientTransform="matrix(-0.4653 -0.8852 0.8852 -0.4653 784.983 1692.4475)">
	<stop  offset="0" style="stop-color:#562416"/>
	<stop  offset="1" style="stop-color:#421E15"/>
</linearGradient>
<circle class="st8" cx="761.1" cy="513.7" r="4"/>
<linearGradient id="SVGID_9_" gradientUnits="userSpaceOnUse" x1="699.0815" y1="550.7787" x2="707.084" y2="550.7787" gradientTransform="matrix(-0.3211 0.947 -0.947 -0.3211 1328.4758 186.6515)">
	<stop  offset="0" style="stop-color:#562416"/>
	<stop  offset="1" style="stop-color:#421E15"/>
</linearGradient>
<circle class="st9" cx="581.1" cy="675.7" r="4"/>
<linearGradient id="SVGID_10_" gradientUnits="userSpaceOnUse" x1="1047.2917" y1="738.3" x2="1055.2917" y2="738.3" gradientTransform="matrix(-1 0 0 -1 1633.4164 1300)">
	<stop  offset="0" style="stop-color:#562416"/>
	<stop  offset="1" style="stop-color:#421E15"/>
</linearGradient>
<circle class="st10" cx="582.1" cy="561.7" r="4"/>
<linearGradient id="SVGID_11_" gradientUnits="userSpaceOnUse" x1="1056.2917" y1="677.3" x2="1064.2917" y2="677.3" gradientTransform="matrix(-1 0 0 -1 1633.4164 1300)">
	<stop  offset="0" style="stop-color:#562416"/>
	<stop  offset="1" style="stop-color:#421E15"/>
</linearGradient>
<circle class="st11" cx="573.1" cy="622.7" r="4"/>
<linearGradient id="SVGID_12_" gradientUnits="userSpaceOnUse" x1="834.2918" y1="614.3" x2="842.2918" y2="614.3" gradientTransform="matrix(-1 0 0 -1 1633.4164 1300)">
	<stop  offset="0" style="stop-color:#562416"/>
	<stop  offset="1" style="stop-color:#421E15"/>
</linearGradient>
<circle class="st12" cx="795.1" cy="685.7" r="4"/>
<linearGradient id="SVGID_13_" gradientUnits="userSpaceOnUse" x1="401.9105" y1="197.1388" x2="412.7456" y2="197.1388" gradientTransform="matrix(0.8528 0.5222 -0.5222 0.8528 549.0246 238.8416)">
	<stop  offset="0" style="stop-color:#562416"/>
	<stop  offset="1" style="stop-color:#421E15"/>
</linearGradient>
<circle class="st13" cx="793.5" cy="619.7" r="5.4"/>
<linearGradient id="SVGID_14_" gradientUnits="userSpaceOnUse" x1="447.5529" y1="226.383" x2="455.433" y2="226.383" gradientTransform="matrix(0.8911 0.4538 -0.4538 0.8911 484.1008 178.3793)">
	<stop  offset="0" style="stop-color:#562416"/>
	<stop  offset="1" style="stop-color:#421E15"/>
</linearGradient>
<circle class="st14" cx="783.7" cy="585" r="3.9"/>
<linearGradient id="SVGID_15_" gradientUnits="userSpaceOnUse" x1="924.5375" y1="216.0496" x2="935.8552" y2="216.0496" gradientTransform="matrix(4.489700e-11 -1 1 4.489700e-11 377.3505 1531.5536)">
	<stop  offset="0" style="stop-color:#562416"/>
	<stop  offset="1" style="stop-color:#421E15"/>
</linearGradient>
<circle class="st15" cx="593.4" cy="601.4" r="5.7"/>
<linearGradient id="SVGID_16_" gradientUnits="userSpaceOnUse" x1="922.8208" y1="218.2603" x2="930.4851" y2="218.2603" gradientTransform="matrix(-0.2337 -0.9723 0.9723 -0.2337 614.6279 1549.1239)">
	<stop  offset="0" style="stop-color:#562416"/>
	<stop  offset="1" style="stop-color:#421E15"/>
</linearGradient>
<circle class="st16" cx="610.3" cy="597.2" r="3.8"/>
<linearGradient id="SVGID_17_" gradientUnits="userSpaceOnUse" x1="971.9393" y1="295.872" x2="977.5134" y2="295.872" gradientTransform="matrix(-0.3092 -0.951 0.951 -0.3092 617.8071 1637.8363)">
	<stop  offset="0" style="stop-color:#562416"/>
	<stop  offset="1" style="stop-color:#421E15"/>
</linearGradient>
<circle class="st17" cx="597.8" cy="619.4" r="2.8"/>
<linearGradient id="SVGID_18_" gradientUnits="userSpaceOnUse" x1="964.8266" y1="317.7449" x2="970.4006" y2="317.7449" gradientTransform="matrix(-0.3092 -0.951 0.951 -0.3092 617.8071 1637.8363)">
	<stop  offset="0" style="stop-color:#562416"/>
	<stop  offset="1" style="stop-color:#421E15"/>
</linearGradient>
<circle class="st18" cx="620.8" cy="619.4" r="2.8"/>
<linearGradient id="SVGID_19_" gradientUnits="userSpaceOnUse" x1="728.946" y1="92.9906" x2="743.7169" y2="92.9906" gradientTransform="matrix(0.7063 -0.7079 0.7079 0.7063 46.4573 1040.8136)">
	<stop  offset="0" style="stop-color:#562416"/>
	<stop  offset="1" style="stop-color:#421E15"/>
</linearGradient>
<circle class="st19" cx="632.4" cy="585.2" r="7.4"/>
<linearGradient id="SVGID_20_" gradientUnits="userSpaceOnUse" x1="800.2523" y1="14.2541" x2="810.2535" y2="14.2541" gradientTransform="matrix(0.5213 -0.8534 0.8534 0.5213 201.9708 1220.85)">
	<stop  offset="0" style="stop-color:#562416"/>
	<stop  offset="1" style="stop-color:#421E15"/>
</linearGradient>
<circle class="st20" cx="633.9" cy="541.1" r="5"/>
<linearGradient id="SVGID_21_" gradientUnits="userSpaceOnUse" x1="814.502" y1="81.6265" x2="824.5032" y2="81.6265" gradientTransform="matrix(0.5213 -0.8534 0.8534 0.5213 201.9708 1220.85)">
	<stop  offset="0" style="stop-color:#562416"/>
	<stop  offset="1" style="stop-color:#421E15"/>
</linearGradient>
<circle class="st21" cx="698.8" cy="564.1" r="5"/>
<linearGradient id="SVGID_22_" gradientUnits="userSpaceOnUse" x1="816.0631" y1="147.5556" x2="826.0643" y2="147.5556" gradientTransform="matrix(0.5213 -0.8534 0.8534 0.5213 201.9708 1220.85)">
	<stop  offset="0" style="stop-color:#562416"/>
	<stop  offset="1" style="stop-color:#421E15"/>
</linearGradient>
<circle class="st22" cx="755.9" cy="597.1" r="5"/>
<linearGradient id="SVGID_23_" gradientUnits="userSpaceOnUse" x1="778.8085" y1="142.192" x2="788.8098" y2="142.192" gradientTransform="matrix(0.5213 -0.8534 0.8534 0.5213 201.9708 1220.85)">
	<stop  offset="0" style="stop-color:#562416"/>
	<stop  offset="1" style="stop-color:#421E15"/>
</linearGradient>
<circle class="st23" cx="731.9" cy="626.1" r="5"/>
<linearGradient id="SVGID_24_" gradientUnits="userSpaceOnUse" x1="833.0562" y1="215.6776" x2="843.0574" y2="215.6776" gradientTransform="matrix(0.5213 -0.8534 0.8534 0.5213 201.9708 1220.85)">
	<stop  offset="0" style="stop-color:#562416"/>
	<stop  offset="1" style="stop-color:#421E15"/>
</linearGradient>
<circle class="st24" cx="822.9" cy="618.1" r="5"/>
<linearGradient id="SVGID_25_" gradientUnits="userSpaceOnUse" x1="859.6454" y1="63.5175" x2="869.6467" y2="63.5175" gradientTransform="matrix(0.5213 -0.8534 0.8534 0.5213 201.9708 1220.85)">
	<stop  offset="0" style="stop-color:#562416"/>
	<stop  offset="1" style="stop-color:#421E15"/>
</linearGradient>
<circle class="st25" cx="706.9" cy="516.1" r="5"/>
<linearGradient id="SVGID_26_" gradientUnits="userSpaceOnUse" x1="856.8763" y1="35.8761" x2="866.8776" y2="35.8761" gradientTransform="matrix(0.5213 -0.8534 0.8534 0.5213 201.9708 1220.85)">
	<stop  offset="0" style="stop-color:#562416"/>
	<stop  offset="1" style="stop-color:#421E15"/>
</linearGradient>
<circle class="st26" cx="681.9" cy="504" r="5"/>
<linearGradient id="SVGID_27_" gradientUnits="userSpaceOnUse" x1="776.6313" y1="189.4238" x2="783.906" y2="189.4238" gradientTransform="matrix(0.4528 -0.8916 0.8916 0.4528 141.614 1285.897)">
	<stop  offset="0" style="stop-color:#562416"/>
	<stop  offset="1" style="stop-color:#421E15"/>
</linearGradient>
<circle class="st27" cx="663.8" cy="676" r="3.6"/>
<linearGradient id="SVGID_28_" gradientUnits="userSpaceOnUse" x1="906.8849" y1="207.3918" x2="914.1597" y2="207.3918" gradientTransform="matrix(0.4528 -0.8916 0.8916 0.4528 141.614 1285.897)">
	<stop  offset="0" style="stop-color:#562416"/>
	<stop  offset="1" style="stop-color:#421E15"/>
</linearGradient>
<circle class="st28" cx="738.8" cy="568" r="3.6"/>
<linearGradient id="SVGID_29_" gradientUnits="userSpaceOnUse" x1="934.0236" y1="256.4168" x2="941.2983" y2="256.4168" gradientTransform="matrix(0.4528 -0.8916 0.8916 0.4528 141.614 1285.897)">
	<stop  offset="0" style="stop-color:#562416"/>
	<stop  offset="1" style="stop-color:#421E15"/>
</linearGradient>
<circle class="st29" cx="794.8" cy="566" r="3.6"/>
<linearGradient id="SVGID_30_" gradientUnits="userSpaceOnUse" x1="783.9664" y1="146.444" x2="791.2411" y2="146.444" gradientTransform="matrix(0.4528 -0.8916 0.8916 0.4528 141.614 1285.897)">
	<stop  offset="0" style="stop-color:#562416"/>
	<stop  offset="1" style="stop-color:#421E15"/>
</linearGradient>
<circle class="st30" cx="628.8" cy="650" r="3.6"/>
<linearGradient id="SVGID_31_" gradientUnits="userSpaceOnUse" x1="736.9537" y1="724.2335" x2="747.6096" y2="724.2335" gradientTransform="matrix(-1 1.119955e-03 -1.119955e-03 -1 1424.7935 1384.3022)">
	<stop  offset="0" style="stop-color:#562416"/>
	<stop  offset="1" style="stop-color:#421E15"/>
</linearGradient>
<circle class="st31" cx="681.7" cy="660.9" r="5.3"/>
<linearGradient id="SVGID_32_" gradientUnits="userSpaceOnUse" x1="643.4544" y1="674.7892" x2="650.6705" y2="674.7892" gradientTransform="matrix(-0.972 0.2348 -0.2348 -0.972 1442.1085 1146.9592)">
	<stop  offset="0" style="stop-color:#562416"/>
	<stop  offset="1" style="stop-color:#421E15"/>
</linearGradient>
<circle class="st32" cx="654.7" cy="643" r="3.6"/>
<linearGradient id="SVGID_33_" gradientUnits="userSpaceOnUse" x1="625.9623" y1="720.5145" x2="631.2104" y2="720.5145" gradientTransform="matrix(-0.9506 0.3103 -0.3103 -0.9506 1530.8397 1143.661)">
	<stop  offset="0" style="stop-color:#562416"/>
	<stop  offset="1" style="stop-color:#421E15"/>
</linearGradient>
<circle class="st33" cx="709.7" cy="653.8" r="2.6"/>
<linearGradient id="SVGID_34_" gradientUnits="userSpaceOnUse" x1="584.5134" y1="818.4926" x2="589.7615" y2="818.4926" gradientTransform="matrix(-0.9506 0.3103 -0.3103 -0.9506 1530.8397 1143.661)">
	<stop  offset="0" style="stop-color:#562416"/>
	<stop  offset="1" style="stop-color:#421E15"/>
</linearGradient>
<circle class="st34" cx="718.7" cy="547.8" r="2.6"/>
<linearGradient id="SVGID_35_" gradientUnits="userSpaceOnUse" x1="429.0048" y1="263.1246" x2="434.9148" y2="263.1246" gradientTransform="matrix(0.6636 0.7481 -0.7481 0.6636 683.2512 130.6048)">
	<stop  offset="0" style="stop-color:#562416"/>
	<stop  offset="1" style="stop-color:#421E15"/>
</linearGradient>
<circle class="st35" cx="773" cy="628.3" r="3"/>
<linearGradient id="SVGID_36_" gradientUnits="userSpaceOnUse" x1="758.6339" y1="669.2184" x2="762.5739" y2="669.2184" gradientTransform="matrix(-0.951 0.3092 -0.3092 -0.951 1720.0156 1055.6613)">
	<stop  offset="0" style="stop-color:#562416"/>
	<stop  offset="1" style="stop-color:#421E15"/>
</linearGradient>
<circle class="st36" cx="789.8" cy="654.4" r="2"/>
<path class="st37" d="M735,851.7c0,0-60.2,41.7-90.5-14.8"/>
<linearGradient id="SVGID_37_" gradientUnits="userSpaceOnUse" x1="983.7906" y1="446.0894" x2="846.5396" y2="609.6589" gradientTransform="matrix(-1 0 0 -1 1633.4164 1300)">
	<stop  offset="0" style="stop-color:#FABA36"/>
	<stop  offset="0.4778" style="stop-color:#FBB32B"/>
	<stop  offset="1" style="stop-color:#FBB026"/>
</linearGradient>
<path class="st38" d="M597.3,810c6.2,5,14.3,7.2,22.1,5.4c0.4-0.1,0.8-0.2,1.2-0.3c0.5,3.8,0.9,4.3,0.9,4.3s3.9,13,17.9,17.1
	c3.4,1,6.4,3.3,8.3,6.3c31.1,48.6,87.5,9.6,87.5,9.6s5.5-3.2,9.4-7.1c0.3,0.2,0.2,0.1,0.5,0.3c-11.6,28-23,36.1-3,53
	c20,17,38.4-5.1,50.2-26.1c11.9-21,4.4-39.6,4.4-39.6s-0.9-1.7-2.3-3.7c6.5-7.4,12.7-16.8,18-28.5c18.4-40.5-18.1-52.7-18.1-52.7
	s-1.3-0.6-3.8-1.3c5.3-14.9,6.4-33-4.2-52.7c-22.9-42.7-84.9-10.7-84.9-10.7s-10.3,4.8-17.9,11.5c-7.6,6.7-15.3,13.4-24.3,12.4
	c0,0-48.9-12.7-61.9,19.5C585.3,756.3,569.9,787.5,597.3,810z"/>
<linearGradient id="SVGID_38_" gradientUnits="userSpaceOnUse" x1="903.4767" y1="491.8555" x2="865.5533" y2="706.9294" gradientTransform="matrix(-1 0 0 -1 1633.4164 1300)">
	<stop  offset="3.188775e-04" style="stop-color:#F8E295"/>
	<stop  offset="0.3983" style="stop-color:#F9D965;stop-opacity:0"/>
	<stop  offset="0.4968" style="stop-color:#FACF55;stop-opacity:0"/>
	<stop  offset="0.6892" style="stop-color:#FABE3B;stop-opacity:0"/>
	<stop  offset="0.8628" style="stop-color:#FBB42B;stop-opacity:0"/>
	<stop  offset="1" style="stop-color:#FBB026;stop-opacity:0"/>
</linearGradient>
<path class="st39" d="M701.2,683.9c0,0,62.3-33,85.1,9.6c22.9,42.7-8.7,78-20.5,89.2s-45.6,42-64,9.4c0,0-11.1-22,16.8-46.2
	c27.9-24.1,10.9-22.4,10.9-22.4"/>
<linearGradient id="SVGID_39_" gradientUnits="userSpaceOnUse" x1="855.1251" y1="401.9514" x2="884.0079" y2="481.3065" gradientTransform="matrix(-1 0 0 -1 1633.4164 1300)">
	<stop  offset="3.188775e-04" style="stop-color:#F8E295"/>
	<stop  offset="0.6513" style="stop-color:#F9D965;stop-opacity:0"/>
	<stop  offset="0.7083" style="stop-color:#FACF55;stop-opacity:0"/>
	<stop  offset="0.8199" style="stop-color:#FABE3B;stop-opacity:0"/>
	<stop  offset="0.9205" style="stop-color:#FBB42B;stop-opacity:0"/>
	<stop  offset="1" style="stop-color:#FBB026;stop-opacity:0"/>
</linearGradient>
<path class="st40" d="M745,845.7c14.5,7,33.1,1.7,49.3-16.5v0.1c1.4,2,2.3,3.7,2.3,3.7s7.4,18.6-4.3,39.5l-0.1,0.2
	c-11.9,21-30.2,43.1-50.2,26.1C722,881.7,733.4,873.7,745,845.7z"/>
<linearGradient id="SVGID_40_" gradientUnits="userSpaceOnUse" x1="890.124" y1="454.9551" x2="797.3359" y2="565.5356" gradientTransform="matrix(-1 0 0 -1 1633.4164 1300)">
	<stop  offset="3.188775e-04" style="stop-color:#F8E295"/>
	<stop  offset="0.5211" style="stop-color:#F9D965;stop-opacity:0"/>
	<stop  offset="0.5995" style="stop-color:#FACF55;stop-opacity:0"/>
	<stop  offset="0.7526" style="stop-color:#FABE3B;stop-opacity:0"/>
	<stop  offset="0.8908" style="stop-color:#FBB42B;stop-opacity:0"/>
	<stop  offset="1" style="stop-color:#FBB026;stop-opacity:0"/>
</linearGradient>
<path class="st41" d="M790.4,746.7c2.1,0.5,3.8,1.1,3.8,1.1s36.5,12.3,18.1,52.7c-18.4,40.5-47,54.9-67.3,44.9
	c-20.1-9.8-13.8-33.7-1.6-44.9c9.4-5.4,17.7-13.1,22.4-17.6C772.1,777.1,784.1,764.1,790.4,746.7z"/>
<linearGradient id="SVGID_41_" gradientUnits="userSpaceOnUse" x1="1031.8954" y1="493.1031" x2="1000.6619" y2="582.9504" gradientTransform="matrix(-1 0 0 -1 1633.4164 1300)">
	<stop  offset="3.188775e-04" style="stop-color:#F8E295"/>
	<stop  offset="0.6886" style="stop-color:#F9D965;stop-opacity:0"/>
	<stop  offset="0.7588" style="stop-color:#F9D55F;stop-opacity:0"/>
	<stop  offset="0.8507" style="stop-color:#FACB4F;stop-opacity:0"/>
	<stop  offset="0.9542" style="stop-color:#FBB934;stop-opacity:0"/>
	<stop  offset="0.9987" style="stop-color:#FBB026;stop-opacity:0"/>
</linearGradient>
<path class="st42" d="M649.2,706.3c-14.9-2.1-43-2.6-52.3,20.7c-11.9,29.4-27.1,60.2-0.8,82.7c6.9,5.9,16.4,8.3,25.1,5.5
	c6-1.9,12.3-6.1,15.9-15.2c2.2-5.5,2.8-11.6,1.8-17.5c-1-6.6-0.9-18.4,12.1-21.4"/>
<path class="st0" d="M696.1,899.8c3.4,0,6.8-0.1,10.3-0.4c30-2.2,59.8-13.7,86.4-33.4c29.4-21.8,53.8-52.5,72.5-91.2
	c6.4-13.2,9.4-26.4,12.4-39.1c0.4-1.9,0.9-3.8,1.3-5.7c13.6-57.2,17.3-133.7-41.7-173.9c-30.7-20.9-75-28.5-124.8-21.4
	c-45.9,6.5-93.6,25.1-130.7,51c-41.2,28.7-63.3,59.4-56.5,78.3c2.8,7.8,11.7,16.6,37.9,14.4c2-0.2,3.4-1.9,3.2-3.8
	c-0.2-2-1.9-3.4-3.8-3.2c-16.9,1.5-27.8-2-30.6-9.7c-4.5-12.5,10.4-39.7,53.9-70c36.3-25.3,82.8-43.4,127.7-49.8
	c48.1-6.8,90.7,0.4,119.8,20.2c44.1,30,57.5,87.5,38.8,166.4c-0.4,1.9-0.9,3.8-1.3,5.7c-2.9,12.4-5.8,25.2-11.8,37.7
	c-18.2,37.6-41.8,67.4-70.3,88.5c-25.5,18.9-54.1,30-82.7,32c-44.8,3.2-85.9-16-110-51.5c-1-1.9-11.4-21.4-19.2-45.7
	c-7.5-23.1-14.2-55.3-3.7-77.6c6.4-13.7,18.8-22.4,36.8-25.8c7.7-1.5,14.2-0.1,20,4.3c18.1,13.8,22.9,52.3,24.1,68.2
	c0.2,2,1.9,3.4,3.8,3.3c2-0.2,3.4-1.9,3.3-3.8c-1.6-21-7.3-58.3-26.9-73.3c-7.4-5.6-16-7.5-25.6-5.6c-20.3,3.9-34.4,14-41.9,29.8
	c-22.1,46.3,21,126.3,22.9,129.7l0.2,0.3C613.5,879.7,652.7,899.8,696.1,899.8z"/>
</svg>
