<svg id="Layer_1" data-name="Layer 1" xmlns="http://www.w3.org/2000/svg" xmlns:xlink="http://www.w3.org/1999/xlink" viewBox="0 0 523.76 540.22"><defs><style>.cls-1{fill:url(#linear-gradient);}.cls-2{fill:url(#linear-gradient-2);}.cls-3{fill:#c16470;opacity:0.68;}.cls-4{fill:#fff;opacity:0.28;}.cls-5{fill:url(#linear-gradient-3);}.cls-6{opacity:0.56;}.cls-7{opacity:0.71;fill:url(#linear-gradient-4);}.cls-8{fill:url(#linear-gradient-5);}.cls-9{fill:url(#linear-gradient-6);}.cls-10{opacity:0.33;fill:url(#linear-gradient-7);}.cls-11{opacity:0.72;fill:url(#linear-gradient-8);}.cls-12{fill:url(#linear-gradient-9);}.cls-13{opacity:0.58;fill:url(#linear-gradient-10);}.cls-14,.cls-15,.cls-16{opacity:0.4;}.cls-14{fill:url(#linear-gradient-11);}.cls-15{fill:url(#linear-gradient-12);}.cls-16{fill:url(#linear-gradient-13);}.cls-17{fill:url(#linear-gradient-14);}</style><linearGradient id="linear-gradient" x1="936.72" y1="226.62" x2="1093.3" y2="481.16" gradientTransform="translate(-264.33 808.22) rotate(-23.2)" gradientUnits="userSpaceOnUse"><stop offset="0" stop-color="#bd5665"/><stop offset="0.19" stop-color="#ef708a"/><stop offset="1" stop-color="#f2bfc8"/></linearGradient><linearGradient id="linear-gradient-2" x1="572.95" y1="651.73" x2="572.95" y2="1027.45" gradientTransform="matrix(1, 0, 0, 1, 0, 0)" xlink:href="#linear-gradient"/><linearGradient id="linear-gradient-3" x1="874.31" y1="807.31" x2="913.47" y2="821.56" gradientTransform="matrix(1, 0, 0, 1, 0, 0)" xlink:href="#linear-gradient"/><linearGradient id="linear-gradient-4" x1="593.16" y1="644.33" x2="621.01" y2="571.32" gradientTransform="translate(-30.82 40.33) rotate(-3.68)" gradientUnits="userSpaceOnUse"><stop offset="0" stop-color="#262626"/><stop offset="1" stop-color="#262626" stop-opacity="0"/></linearGradient><linearGradient id="linear-gradient-5" x1="527.95" y1="612.75" x2="553.91" y2="571.63" gradientTransform="matrix(1, 0, 0, 1, 0, 0)" xlink:href="#linear-gradient-4"/><linearGradient id="linear-gradient-6" x1="645.83" y1="637.52" x2="645.83" y2="571.04" xlink:href="#linear-gradient-4"/><linearGradient id="linear-gradient-7" x1="708.62" y1="506.16" x2="728.64" y2="453.69" gradientTransform="translate(-43.72 732.82) rotate(-45)" xlink:href="#linear-gradient-4"/><linearGradient id="linear-gradient-8" x1="746.47" y1="501.26" x2="746.47" y2="453.48" gradientTransform="translate(-43.72 732.82) rotate(-45)" xlink:href="#linear-gradient-4"/><linearGradient id="linear-gradient-9" x1="744.45" y1="609.86" x2="726.85" y2="564.81" gradientTransform="matrix(1, 0, 0, 1, 0, 0)" xlink:href="#linear-gradient-4"/><linearGradient id="linear-gradient-10" x1="694.45" y1="553.77" x2="681.86" y2="521.55" gradientTransform="translate(48.83 -65.73) rotate(5.94)" xlink:href="#linear-gradient-4"/><linearGradient id="linear-gradient-11" x1="640.53" y1="538.62" x2="629.45" y2="510.24" gradientTransform="matrix(0.86, 0.5, -0.5, 0.86, 296.88, -231.43)" xlink:href="#linear-gradient-4"/><linearGradient id="linear-gradient-12" x1="590.18" y1="507.37" x2="581.92" y2="486.23" gradientTransform="translate(864.08 -147.03) rotate(80.72)" xlink:href="#linear-gradient-4"/><linearGradient id="linear-gradient-13" x1="493.17" y1="213.53" x2="482.75" y2="186.86" gradientTransform="translate(375.81 702.65) rotate(-42.38)" xlink:href="#linear-gradient-4"/><linearGradient id="linear-gradient-14" x1="470.44" y1="571.08" x2="509.16" y2="544.48" gradientTransform="matrix(1, 0, 0, 1, 0, 0)" xlink:href="#linear-gradient-4"/></defs><title>ostrichLegs</title><path class="cls-1" d="M711.88,662.26s-6.85,78.63.87,92.59,4.16,13.35,38.14,6.58c34.57-6.88,107.5-22,118-22.37s12.51-1.38,13.05,26.21c0,0-.54,14.64,7.23,26.36,0,0-28.82,16.21-10.73,40.32s47,8.33,58-16.63c4.13-18.92,7-20.46-3.41-46.58-10.53-26.37-13.11-71.4-51.67-64.27-37.87,7-129.56,15.41-129.56,15.41s-8.65.34-7-12.24c1.82-21.81,5.42-67.52,5.42-67.52Z" transform="translate(-417.31 -484.4)"/><path class="cls-2" d="M557.5,904.22c4.69,32.11-5,39.39-12.87,46.6s-58.6,40.3-26.06,49.65c0,0,8,1.83,23.75-4.92,19.36-8.31,14.79,10.32,16.35,17.37,3.67,16.53,20.44,14.31,28.61,1s8.18-19.42,16.35-15.33,10.74,5.53,10.74,5.53c28.15,13.73,31.82-12.84,8.12-36.55-13.8-19.57-17.9-33.9-25.15-67.23C590,866.81,565,773.42,562,742.51,558.89,711.36,579.63,669,591,651.35c11.53-17.9-45.62-3.32-45.62-3.32l-1,8.83s-3.85,18.7-13.2,53c-9.21,33.73-7.43,31.73-2.44,57.56S552.77,871.87,557.5,904.22Z" transform="translate(-417.31 -484.4)"/><path class="cls-3" d="M736.11,716.2l-.54,0a6.2,6.2,0,0,1-5.7-6.67l3.29-42a6.2,6.2,0,0,1,12.37,1l-3.29,42A6.2,6.2,0,0,1,736.11,716.2Z" transform="translate(-417.31 -484.4)"/><path class="cls-4" d="M573.94,849.37a6.21,6.21,0,0,1-6-4.81l-10.79-46.73A6.2,6.2,0,1,1,569.2,795L580,841.78a6.21,6.21,0,0,1-6.05,7.6Z" transform="translate(-417.31 -484.4)"/><path class="cls-4" d="M558.95,785.13a6.2,6.2,0,0,1-6.06-4.93L548.2,758a6.2,6.2,0,0,1,12.14-2.56L565,777.65a6.21,6.21,0,0,1-6.08,7.48Z" transform="translate(-417.31 -484.4)"/><path class="cls-4" d="M908.38,735.32a6.21,6.21,0,0,1-6-4.65c-3-11.73-9.55-11.55-18.4-10a32.23,32.23,0,0,1-3.53.49,6.2,6.2,0,0,1-.73-12.38c.37,0,1.3-.19,2.13-.33,6.52-1.13,26.39-4.6,32.53,19.11a6.21,6.21,0,0,1-6,7.76Z" transform="translate(-417.31 -484.4)"/><path class="cls-5" d="M878.4,832s3.62-1.59,17.33-1.91,31.33-32.64,20.89-29.7-27.49-8.7-27.49-8.7S860.31,807.85,878.4,832Z" transform="translate(-417.31 -484.4)"/><path class="cls-3" d="M563,667.69c-7,15.15-15.52,43.46-17.37,60.37a38.35,38.35,0,0,1,8.55-1.36,30.89,30.89,0,0,1,5.64.49l.39-.07c1.85-16.91,9.47-39.33,16.44-54.48l.22-.37c1-3.27-2.46-7.86-5.73-8.87a6.21,6.21,0,0,0-7.75,4.11Z" transform="translate(-417.31 -484.4)"/><path d="M916,533.11h0l-1.43,2.4-1.22,2c-.07.11-.13.22-.2.32l-1.4,2.28c-.64,1-1.28,2-1.91,3q-2.16,3.41-4.28,6.51c-3.38,5-6.64,9.43-9.78,13.39l-1.19,1.48-.37.46-.87,1.05c-.74.89-1.47,1.75-2.19,2.59l-.75.86c-.94,1.08-1.88,2.11-2.8,3.1-.15.16-.3.31-.44.47-.64.68-1.27,1.33-1.88,2-.83.84-1.64,1.64-2.44,2.41l-.94.89-1.41,1.29c-.31.28-.61.56-.92.82-.71.62-1.41,1.22-2.11,1.8-.34.29-.69.57-1,.84l-1,.8a57.87,57.87,0,0,1-12,7.32l-.68.3c-1.14.47-2.24.87-3.29,1.2l-.62.19a32.73,32.73,0,0,1-3.66.85l-.66.1c-8.81,1.26-13.52-2.36-13.52-2.36-16.83,60.71-66.36,40.14-66.36,40.14s-1.49,29.92-36.75,45.08c-34.59,14.87-62.84-10.81-62.84-10.81-29.17,8.47-61.85,7.29-61.85,7.29-14,15.92-35.85,23.56-59.22,14.79-23.2-8.71-24.86-34.81-24.86-34.81l-2.41-.28c-51.79-6.36-79.23-38.27-93.67-72.64-19.24-45.74-15.47-95.84-15.47-95.84H941.07A520.44,520.44,0,0,1,916,533.11Z" transform="translate(-417.31 -484.4)"/><g class="cls-6"><path class="cls-7" d="M627.32,608.46c-1.56,9.29-1.4,17.91,1.28,24.65-4.68,3.25-11.13,4.23-19.77,1.94h0c-21.32-5.66-21.24-22-12.52-38.88,8.28-16,21.21-29.92,30.12-27.58h0c4.22,1.13,7.41,5.87,9.51,12.47C632,588.61,629,598.46,627.32,608.46Z" transform="translate(-417.31 -484.4)"/><path class="cls-8" d="M524.55,622h0c-18.42-9.3-15.19-24.26-3.95-38,10.67-13,25.18-23.28,32.89-19.43h0c7.69,3.9,8.09,21.66,3.95,38C553.09,619.76,543,631.26,524.55,622Z" transform="translate(-417.31 -484.4)"/><path class="cls-9" d="M655.06,647h0c-14.68.76-22.83-4.85-26.43-13.89-2.68-6.74-2.84-15.36-1.28-24.65,1.67-10,4.72-19.85,8.63-27.4,4.17-8.06,9.33-13.54,14.84-13.84h0c10.7-.54,22.09,18.37,27.71,38.54C684.46,627,680.66,645.63,655.06,647Z" transform="translate(-417.31 -484.4)"/><path class="cls-10" d="M811.21,558c3.57,5.75,7.74,10.33,12.39,12.7-1,4-4,7.57-9.75,10.43h0c-14.2,7.06-21.92-1.81-25.2-15-3.12-12.57-2.75-26.21,3.17-29.18h0c2.81-1.39,6.79-.35,11.05,2.21A69,69,0,0,0,811.21,558Z" transform="translate(-417.31 -484.4)"/><path class="cls-11" d="M844.47,565.61h0c-7.56,7.38-14.63,8.21-20.86,5-4.64-2.36-8.82-6.94-12.39-12.7a69,69,0,0,1-8.34-18.89c-1.58-6.33-1.39-11.73,1.44-14.52h0c5.52-5.37,20.64-.57,33.25,7.65C850.84,540.87,857.63,552.73,844.47,565.61Z" transform="translate(-417.31 -484.4)"/><path class="cls-12" d="M748.25,623.71h0c-20.83,6.55-29.43-7.18-31-25.9-1.54-17.77,1.91-36.25,10.6-39h0c8.71-2.71,22.13,10.45,31,25.9C768.25,601,769.08,617.14,748.25,623.71Z" transform="translate(-417.31 -484.4)"/><path class="cls-13" d="M683.89,567.1h0c-15.3,3.12-20.4-7.28-20.17-20.72.22-12.75,4-25.64,10.43-27h0c6.4-1.29,15,9.07,20.17,20.72C699.8,552.41,699.19,564,683.89,567.1Z" transform="translate(-417.31 -484.4)"/><path class="cls-14" d="M577.95,564.77h0c-13.42-3-13.76-13.22-8.72-23.92,4.78-10.17,12.5-19.14,18.11-17.89h0c5.6,1.28,8.74,12.69,8.72,23.92C596,558.71,591.37,567.78,577.95,564.77Z" transform="translate(-417.31 -484.4)"/><path class="cls-15" d="M452.38,520.05h0c-4.61-9.15,1.1-14.17,9.65-16.34,8.11-2.06,16.93-1.86,18.87,2h0c1.92,3.83-3.17,11-9.65,16.34C464.43,527.6,457,529.2,452.38,520.05Z" transform="translate(-417.31 -484.4)"/><path class="cls-16" d="M891.24,532.53h0c-6.5,11.18-15.73,8.6-23.91,1.06-7.77-7.16-13.63-16.61-10.93-21.29h0c2.73-4.66,13.85-4.26,23.91-1.06C890.92,514.6,897.73,521.35,891.24,532.53Z" transform="translate(-417.31 -484.4)"/><path class="cls-17" d="M470.66,572.25h0c-10.25-13.07-2.79-22.87,10.11-29,12.24-5.86,26.31-8.37,30.62-2.92h0c4.27,5.47-1.5,18.55-10.11,29C492.22,580.39,480.93,585.31,470.66,572.25Z" transform="translate(-417.31 -484.4)"/></g></svg>