<?xml version="1.0" encoding="utf-8"?>
<!-- Generator: Adobe Illustrator 21.1.0, SVG Export Plug-In . SVG Version: 6.00 Build 0)  -->
<svg version="1.1" id="robotBack" xmlns="http://www.w3.org/2000/svg" xmlns:xlink="http://www.w3.org/1999/xlink" x="0px" y="0px"
	 viewBox="0 0 1330 1300" style="enable-background:new 0 0 1330 1300;" xml:space="preserve">
<style type="text/css">
	.st0{enable-background:new    ;}
	.st1{fill:#3C4F5D;}
	.st2{fill:#5B758A;}
	.st3{fill:url(#SVGID_1_);}
	.st4{fill:#2F414C;}
	.st5{fill:url(#SVGID_2_);}
	.st6{fill:#95ABB8;}
	.st7{fill:url(#SVGID_3_);}
	.st8{fill:url(#SVGID_4_);}
	.st9{opacity:0.4;}
</style>
<g>
	<g>
		<g class="st0">
			<g>
				<polygon class="st1" points="704,549.1 703,740.1 407.3,773.4 408.3,582.4 				"/>
			</g>
			<g>
				<polygon class="st2" points="407.3,773.4 315.8,706.4 316.9,515.4 408.3,582.4 				"/>
			</g>
			<g>
				<linearGradient id="SVGID_1_" gradientUnits="userSpaceOnUse" x1="316.9" y1="535.95" x2="704" y2="535.95">
					<stop  offset="0.301" style="stop-color:#E0E7EA"/>
					<stop  offset="1" style="stop-color:#95ABB8"/>
				</linearGradient>
				<polygon class="st3" points="408.3,582.4 316.9,515.4 612.6,489.5 704,549.1 				"/>
			</g>
		</g>
	</g>
	<g>
		<polygon class="st1" points="328.2,691.3 392.8,738.7 393,690.9 328.2,690.9 		"/>
		<polygon class="st4" points="328.7,542.4 328.2,690.9 393,690.9 393.3,589.8 		"/>
	</g>
</g>
<polygon class="st1" points="591.4,906.8 677.6,811 1152.4,765.7 1066.2,861.5 "/>
<g>
	
		<linearGradient id="SVGID_2_" gradientUnits="userSpaceOnUse" x1="495.8666" y1="-297.1122" x2="1189.8666" y2="-231.1123" gradientTransform="matrix(1 0 0 1 0 700)">
		<stop  offset="0" style="stop-color:#95ABB8"/>
		<stop  offset="0.699" style="stop-color:#E0E7EA"/>
		<stop  offset="0.7285" style="stop-color:#E0E7EA"/>
	</linearGradient>
	<polygon class="st5" points="1066.2,304.1 591.4,349.4 591.4,565 1067.1,520.5 	"/>
</g>
<polygon class="st2" points="677.6,811 677.6,628 591.4,565 591.4,349.4 424.1,227.1 424.1,443.5 424.1,443.5 424.1,636.2 
	424.1,636.2 424.1,784.5 591.4,906.8 "/>
<path class="st6" d="M671.6,511.6c0.2-37,29.2-69.5,64.9-72.6s64.5,24.3,64.4,61.3l-20.9,1.8c0,0.1,0,0.2,0,0.3l43.7-3.8
	c0.2-50-38.8-87.1-87-82.9c-48.3,4.2-87.6,48.2-87.8,98.2l43.7-3.8c0-0.1,0-0.2,0-0.3L671.6,511.6z"/>
<path class="st2" d="M736.4,461c24-2.1,43.4,16.3,43.5,41.1l20.9-1.8c0.2-37-28.7-64.4-64.4-61.3s-64.7,35.6-64.9,72.6l20.9-1.8
	C692.8,484.9,712.4,463.1,736.4,461z"/>
<path class="st1" d="M736.3,482.9c12.7-1.1,23.1,8.1,24.1,20.9l19.5-1.7c-0.1-24.8-19.5-43.2-43.5-41.1s-43.6,23.9-43.9,48.8
	l19.6-1.7C713.2,495,723.6,484,736.3,482.9z"/>
<linearGradient id="SVGID_3_" gradientUnits="userSpaceOnUse" x1="494.3708" y1="673.1829" x2="1276.3707" y2="717.1829">
	<stop  offset="0" style="stop-color:#95ABB8"/>
	<stop  offset="0.699" style="stop-color:#E0E7EA"/>
	<stop  offset="0.7285" style="stop-color:#E0E7EA"/>
</linearGradient>
<polygon class="st7" points="677.6,628 1152.4,582.8 1152.4,765.7 677.6,810.9 "/>
<linearGradient id="SVGID_4_" gradientUnits="userSpaceOnUse" x1="719.7999" y1="-11.1848" x2="1106.7999" y2="-11.1848" gradientTransform="matrix(1 0 0 1 0 700)">
	<stop  offset="0.301" style="stop-color:#E0E7EA"/>
	<stop  offset="0.4315" style="stop-color:#CBD6DD"/>
	<stop  offset="1" style="stop-color:#748FA4"/>
</linearGradient>
<path class="st8" d="M1103.8,701.5c0.2-0.4,0.4-0.9,0.6-1.4c0.1-0.1,0.1-0.3,0.2-0.4c0.2-0.4,0.3-0.8,0.5-1.2c0-0.1,0.1-0.2,0.1-0.2
	c0.2-0.5,0.3-1,0.5-1.5c0-0.1,0.1-0.3,0.1-0.4c0.1-0.4,0.2-0.8,0.3-1.2c0-0.1,0.1-0.3,0.1-0.4c0.1-0.5,0.2-1,0.3-1.6
	c0-0.1,0-0.2,0-0.3c0.1-0.4,0.1-0.9,0.1-1.3c0-0.1,0-0.3,0-0.4c0-0.5,0.1-1.1,0.1-1.6l0.1-24c0-8.3-3.9-15.3-10-19.3l-14.8-9.7
	c0.1,0,0.1,0.1,0.2,0.1c-2.7-1.8-5.8-3-9.2-3.4l0,0l0,0c-1.5-0.2-3.2-0.2-4.8-0.1l-324.4,28c-3.3,0.3-6.4,1.3-9.3,2.8l0,0l0,0
	c-4.3,2.3-8,5.7-10.5,9.9l0,0l0,0c-2.6,4.2-4.1,9.1-4.1,14.2l-0.1,24c0,8.5,4.1,15.6,10.4,19.5c-0.1-0.1-0.3-0.2-0.4-0.2l14.8,9.7
	c1.3,0.9,2.8,1.6,4.3,2.1c2.9,1.1,6.1,1.5,9.5,1.2l-14.8-9.7c-3.4,0.3-6.6-0.2-9.5-1.2c-0.3-0.1-0.5-0.2-0.8-0.3
	c0.3,0.1,0.7,0.3,1,0.4l0,0l0,0c2.8,1,6,1.4,9.3,1.1l14.8,9.7l324.4-28c8.5-0.7,15.9-6,20.2-13.3l0,0c0-0.1,0.1-0.1,0.1-0.2
	C1103.3,702.4,1103.6,702,1103.8,701.5L1103.8,701.5z M1085.4,639.3c-0.1-0.1-0.2-0.2-0.2-0.2
	C1085.2,639.1,1085.3,639.2,1085.4,639.3z M1083.2,637.4c-0.1-0.1-0.2-0.2-0.3-0.3C1083,637.3,1083.1,637.4,1083.2,637.4z
	 M1084.2,638.2c-0.1-0.1-0.1-0.1-0.2-0.2C1084.1,638.1,1084.2,638.2,1084.2,638.2z M732.3,732.8c0.3,0.1,0.6,0.3,0.9,0.4
	C732.9,733,732.6,732.9,732.3,732.8z M730.3,731.7c0.3,0.2,0.5,0.3,0.8,0.5C730.9,732,730.6,731.9,730.3,731.7z M731.3,732.2
	c0.3,0.2,0.6,0.3,0.9,0.4C731.9,732.5,731.6,732.4,731.3,732.2z"/>
<path class="st6" d="M872,491.4c0.2-37,29.2-69.5,64.9-72.6s64.5,24.3,64.4,61.3l-20.9,1.8c0,0.1,0,0.2,0,0.3l43.7-3.8
	c0.2-50-38.8-87.1-87-82.9c-48.3,4.2-87.6,48.2-87.8,98.2l43.7-3.8c0-0.1,0-0.2,0-0.3L872,491.4z"/>
<path class="st2" d="M936.8,440.8c24-2.1,43.4,16.3,43.5,41.1l20.9-1.8c0.2-37-28.7-64.4-64.4-61.3s-64.7,35.6-64.9,72.6l20.9-1.8
	C893.2,464.7,912.7,442.9,936.8,440.8z"/>
<path class="st1" d="M936.7,462.7c12.7-1.1,23.1,8.1,24.1,20.9l19.5-1.7c-0.1-24.8-19.5-43.2-43.5-41.1s-43.6,23.9-43.9,48.8
	l19.6-1.7C913.5,474.9,924,463.8,936.7,462.7z"/>
<path class="st1" d="M728,731.5c-12.3,1.1-22.3-8.5-22.2-21.2l0.1-22.4c0.1-12.7,10.1-24,22.4-25.1l333.3-28.7
	c12.5,0,22.3,8.5,22.2,21.2l-0.1,22.4c-0.1,12.7-10.1,24-22.4,25.1L728,731.5z"/>
<g class="st9">
	<path d="M726.7,478.8c-12.7,1.1-23.2,12.2-24.3,25.2l-19.6,1.7l0,0l-20.9,1.8l0,0l-14,1.5c-0.1,1.6-0.1,3.3-0.2,4.9l22.8-2.4l0,0
		l20.9-1.8l0,0L711,508c1.1-13,11.5-24.1,24.3-25.2c2.4-0.2,4.7-0.1,6.8,0.4C737.9,480,732.6,478.3,726.7,478.8z"/>
	<path d="M772.3,420.9c25.1,13.7,41.8,40.9,41.7,73.7l-43.7,3.8c0-0.1,0-0.2,0-0.3l-11.7,1c0.4,1.5,0.7,3.1,0.8,4.7l19.5-1.7
		c0,0.1,0,0.2,0,0.3l43.7-3.8C822.7,462.2,802.1,432.6,772.3,420.9z"/>
</g>
<g class="st9">
	<path d="M972.6,400.7c25.1,13.7,41.8,40.9,41.7,73.7l-43.7,3.8c0-0.1,0-0.2,0-0.3l-11.7,1c0.4,1.5,0.7,3.1,0.8,4.7l19.5-1.7
		c0,0.1,0,0.2,0,0.3l43.7-3.8C1023.1,442.1,1002.5,412.5,972.6,400.7z"/>
	<path d="M927,458.7c-12.7,1.1-23.2,12.2-24.3,25.2l-19.6,1.7c0,0.1,0,0.2,0,0.3l-34.9,3.1c-0.1,1.6-0.1,3.2-0.1,4.8l43.7-3.8
		c0-0.1,0-0.2,0-0.3l19.6-1.7c1.1-13,11.5-24.1,24.3-25.2c2.4-0.2,4.7-0.1,6.8,0.4C938.3,459.9,932.9,458.2,927,458.7z"/>
</g>
</svg>
