<?xml version="1.0" encoding="utf-8"?>
<!-- Generator: Adobe Illustrator 21.1.0, SVG Export Plug-In . SVG Version: 6.00 Build 0)  -->
<svg version="1.1" id="Layer_1" xmlns="http://www.w3.org/2000/svg" xmlns:xlink="http://www.w3.org/1999/xlink" x="0px" y="0px"
	 viewBox="0 0 339 222" style="enable-background:new 0 0 339 222;" xml:space="preserve">
<style type="text/css">
	.st0{fill:#FFE500;}
</style>
<path class="st0" d="M8.7,36.3L152.3,213l180-21.3V12.3L94.2,27.5l0.1-1.7c0.1-2.1-0.2-4.2-1-6.1c-1.8-4.1-5-7.4-9.2-9.2L83.1,10
	c-5-1.7-11.6-1.4-16.4,0.8l-0.4,0.2c-5.4,2.5-8.6,7-10.8,12.4c-0.9,2.3-1.2,4.9-0.8,7.4v0l-5.1,0.5l-0.9-5.2
	c-2.1-7-8.2-12.1-15.5-12.9L30,12.8c-3.5,0.4-7,1.5-10.1,3.3C13.6,19.8,9.1,28.5,8.7,35.8V36.3z"/>
</svg>
