<?xml version="1.0" encoding="utf-8"?>
<!-- Generator: Adobe Illustrator 21.1.0, SVG Export Plug-In . SVG Version: 6.00 Build 0)  -->
<svg version="1.1" id="Layer_1" xmlns="http://www.w3.org/2000/svg" xmlns:xlink="http://www.w3.org/1999/xlink" x="0px" y="0px"
	 viewBox="0 0 355.2 353" style="enable-background:new 0 0 355.2 353;" xml:space="preserve">
<style type="text/css">
	.st0{fill:none;stroke:#FFFFFF;stroke-width:2;stroke-miterlimit:10;}
</style>
<path class="st0" d="M213.1,88.4c-0.9-8.2-9.1-14.2-17.3-13.3c-4.7,0.5-8.7,3.2-11.1,6.9l0,0c-5.2,6-10.2,0.1-10.2,0.1s0,0,0,0
	c-3.5-6-9.3-7.9-14.9-7.8c0,0,0,0,0,0c-0.3,0-0.7,0-1,0c-0.1,0-0.1,0-0.2,0c-0.4,0-0.8,0.1-1.2,0.1c-1.5,0.2-2.8,0.5-4.2,1
	c-1.8,0.7-3.5,1.8-4.9,3.1c-0.2,0.2-0.4,0.4-0.6,0.6c-1.2,1.2-2.2,2.5-3,4c-0.8,1.5-1.5,3.1-1.9,4.7c-0.1,0.6-0.2,1.1-0.3,1.7
	c-0.2,1.4-0.2,2.9-0.1,4.3c0,0.3,0.1,0.6,0.1,0.9c0.1,0.9,0.4,1.7,0.7,2.5c0.1,0.3,0.2,0.5,0.3,0.8c1.2,2.9,3.3,5.4,6,7.2
	c0.5,0.3,1,0.7,1.5,1c0.5,0.3,1,0.6,1.6,0.8c3.2,1.5,6.8,2.2,10.3,1.9c4.4-0.5,8.3-2.6,11-5.7l0,0c0,0,5.6-6.6,14.4-1.5c0,0,0,0,0,0
	c3,2.5,6.9,3.8,11.1,3.4C207.2,104,214,96.6,213.1,88.4z"/>
</svg>
