<?xml version="1.0" encoding="utf-8"?>
<!-- Generator: Adobe Illustrator 21.1.0, SVG Export Plug-In . SVG Version: 6.00 Build 0)  -->
<svg version="1.1" id="Layer_1" xmlns="http://www.w3.org/2000/svg" xmlns:xlink="http://www.w3.org/1999/xlink" x="0px" y="0px"
	 viewBox="0 0 355.2 353" style="enable-background:new 0 0 355.2 353;" xml:space="preserve">
<style type="text/css">
	.st0{clip-path:url(#SVGID_2_);}
	.st1{fill:#FFFFFF;}
	.st2{opacity:0.2;clip-path:url(#SVGID_4_);}
	.st3{fill:none;stroke:#FFFFFF;stroke-miterlimit:10;}
	.st4{opacity:0.15;clip-path:url(#SVGID_6_);}
	.st5{fill:none;stroke:#FFFFFF;stroke-width:2;stroke-miterlimit:10;}
	.st6{opacity:0.2;clip-path:url(#SVGID_8_);}
	.st7{opacity:0.15;clip-path:url(#SVGID_10_);}
	.st8{fill:none;stroke:#FFFFFF;stroke-width:3;stroke-miterlimit:10;}
</style>
<g>
	<g>
		<defs>
			<polygon id="SVGID_1_" points="325,305.8 25,342.2 25,42.2 325,5.8 			"/>
		</defs>
		<clipPath id="SVGID_2_">
			<use xlink:href="#SVGID_1_"  style="overflow:visible;"/>
		</clipPath>
		<g class="st0">
			<path class="st1" d="M323.9,7v297.8L26.1,341V43.2L323.9,7 M325,5.8L25,42.2v300l300-36.4V5.8L325,5.8z"/>
		</g>
	</g>
	<g>
		<defs>
			<polygon id="SVGID_3_" points="325,305.8 25,342.2 25,42.2 325,5.8 			"/>
		</defs>
		<clipPath id="SVGID_4_">
			<use xlink:href="#SVGID_3_"  style="overflow:visible;"/>
		</clipPath>
		<g class="st2">
			<line class="st3" x1="25.5" y1="31.6" x2="25.5" y2="354.6"/>
		</g>
	</g>
	<g>
		<defs>
			<polygon id="SVGID_5_" points="325,305.8 25,342.2 25,42.2 325,5.8 			"/>
		</defs>
		<clipPath id="SVGID_6_">
			<use xlink:href="#SVGID_5_"  style="overflow:visible;"/>
		</clipPath>
		<g class="st4">
			<g>
				<line class="st5" x1="26.5" y1="31.5" x2="26.5" y2="354.5"/>
			</g>
			<g>
				<line class="st5" x1="40.6" y1="29.9" x2="40.6" y2="352.9"/>
			</g>
			<g>
				<line class="st5" x1="54.8" y1="28.3" x2="54.8" y2="351.3"/>
			</g>
			<g>
				<line class="st5" x1="68.9" y1="26.7" x2="68.9" y2="349.7"/>
			</g>
			<g>
				<line class="st5" x1="83.1" y1="25.1" x2="83.1" y2="348.1"/>
			</g>
			<g>
				<line class="st5" x1="97.2" y1="23.5" x2="97.2" y2="346.5"/>
			</g>
			<g>
				<line class="st5" x1="111.4" y1="21.9" x2="111.4" y2="344.9"/>
			</g>
			<g>
				<line class="st5" x1="125.5" y1="20.3" x2="125.5" y2="343.3"/>
			</g>
			<g>
				<line class="st5" x1="139.6" y1="18.7" x2="139.6" y2="341.7"/>
			</g>
			<g>
				<line class="st5" x1="153.8" y1="17.1" x2="153.8" y2="340.1"/>
			</g>
			<g>
				<line class="st5" x1="167.9" y1="15.5" x2="167.9" y2="338.5"/>
			</g>
			<g>
				<line class="st5" x1="182.1" y1="13.9" x2="182.1" y2="336.9"/>
			</g>
			<g>
				<line class="st5" x1="196.2" y1="12.3" x2="196.2" y2="335.3"/>
			</g>
			<g>
				<line class="st5" x1="210.4" y1="10.7" x2="210.4" y2="333.7"/>
			</g>
			<g>
				<line class="st5" x1="224.5" y1="9.1" x2="224.5" y2="332.1"/>
			</g>
			<g>
				<line class="st5" x1="238.6" y1="7.5" x2="238.6" y2="330.5"/>
			</g>
			<g>
				<line class="st5" x1="252.8" y1="5.9" x2="252.8" y2="328.9"/>
			</g>
			<g>
				<line class="st5" x1="266.9" y1="4.3" x2="266.9" y2="327.3"/>
			</g>
			<g>
				<line class="st5" x1="281.1" y1="2.7" x2="281.1" y2="325.7"/>
			</g>
			<g>
				<line class="st5" x1="295.2" y1="1.1" x2="295.2" y2="324.1"/>
			</g>
			<g>
				<line class="st5" x1="309.4" y1="-0.5" x2="309.4" y2="322.5"/>
			</g>
			<g>
				<line class="st5" x1="323.5" y1="-2.1" x2="323.5" y2="320.9"/>
			</g>
		</g>
	</g>
	<g>
		<defs>
			<polygon id="SVGID_7_" points="325,305.8 25,342.2 25,42.2 325,5.8 			"/>
		</defs>
		<clipPath id="SVGID_8_">
			<use xlink:href="#SVGID_7_"  style="overflow:visible;"/>
		</clipPath>
		<g class="st6">
			<line class="st3" x1="337.8" y1="5" x2="14.8" y2="44.2"/>
		</g>
	</g>
	<g>
		<defs>
			<polygon id="SVGID_9_" points="325,305.8 25,342.2 25,42.2 325,5.8 			"/>
		</defs>
		<clipPath id="SVGID_10_">
			<use xlink:href="#SVGID_9_"  style="overflow:visible;"/>
		</clipPath>
		<g class="st7">
			<g>
				<line class="st8" x1="337.8" y1="4.2" x2="14.8" y2="43.4"/>
			</g>
			<g>
				<line class="st8" x1="337.6" y1="18.5" x2="14.6" y2="57.7"/>
			</g>
			<g>
				<line class="st8" x1="337.5" y1="32.7" x2="14.5" y2="71.9"/>
			</g>
			<g>
				<line class="st8" x1="337.4" y1="46.9" x2="14.4" y2="86.2"/>
			</g>
			<g>
				<line class="st8" x1="337.3" y1="61.2" x2="14.3" y2="100.4"/>
			</g>
			<g>
				<line class="st8" x1="337.2" y1="75.4" x2="14.2" y2="114.6"/>
			</g>
			<g>
				<line class="st8" x1="337" y1="89.7" x2="14" y2="128.9"/>
			</g>
			<g>
				<line class="st8" x1="336.9" y1="103.9" x2="13.9" y2="143.1"/>
			</g>
			<g>
				<line class="st8" x1="336.8" y1="118.1" x2="13.8" y2="157.4"/>
			</g>
			<g>
				<line class="st8" x1="336.7" y1="132.4" x2="13.7" y2="171.6"/>
			</g>
			<g>
				<line class="st8" x1="336.6" y1="146.6" x2="13.6" y2="185.8"/>
			</g>
			<g>
				<line class="st8" x1="336.4" y1="160.9" x2="13.4" y2="200.1"/>
			</g>
			<g>
				<line class="st8" x1="336.3" y1="175.1" x2="13.3" y2="214.3"/>
			</g>
			<g>
				<line class="st8" x1="336.2" y1="189.3" x2="13.2" y2="228.6"/>
			</g>
			<g>
				<line class="st8" x1="336.1" y1="203.6" x2="13.1" y2="242.8"/>
			</g>
			<g>
				<line class="st8" x1="336" y1="217.8" x2="13" y2="257.1"/>
			</g>
			<g>
				<line class="st8" x1="335.8" y1="232.1" x2="12.8" y2="271.3"/>
			</g>
			<g>
				<line class="st8" x1="335.7" y1="246.3" x2="12.7" y2="285.5"/>
			</g>
			<g>
				<line class="st8" x1="335.6" y1="260.5" x2="12.6" y2="299.8"/>
			</g>
			<g>
				<line class="st8" x1="335.5" y1="274.8" x2="12.5" y2="314"/>
			</g>
			<g>
				<line class="st8" x1="335.4" y1="289" x2="12.4" y2="328.3"/>
			</g>
			<g>
				<line class="st8" x1="335.2" y1="303.3" x2="12.2" y2="342.5"/>
			</g>
		</g>
		<use xlink:href="#SVGID_9_"  style="overflow:visible;fill:none;stroke:#FFFFFF;stroke-width:2;stroke-miterlimit:10;"/>
	</g>
</g>
</svg>
