<?xml version="1.0" encoding="utf-8"?>
<!-- Generator: Adobe Illustrator 21.1.0, SVG Export Plug-In . SVG Version: 6.00 Build 0)  -->
<svg version="1.1" id="Layer_1" xmlns="http://www.w3.org/2000/svg" xmlns:xlink="http://www.w3.org/1999/xlink" x="0px" y="0px"
	 viewBox="0 0 355.2 353" style="enable-background:new 0 0 355.2 353;" xml:space="preserve">
<style type="text/css">
	.st0{fill:#FFFFFF;}
	.st1{opacity:0.92;fill:#FFFFFF;}
</style>
<g>
	<path class="st0" d="M222,123.9l-9-5.5l-0.1-22.7l0,0L195.3,85l-29.9,6.5v-2.1c0-4.9-1.9-8.7-5.3-10.4c-2.5-1.2-5.5-1.1-7.8,0.4
		c-4.3,2.7-5.2,7-5.3,12.6v3.4l-1.6,0.3l1.8,1.1l0,0l-1.8-1.1v15.4c-1.1,2.3-2.6,4.2-4.4,5.6c-2.5,1.9-5.4,2.5-7.6,1.7
		c-4.1-1.6-5.6-5.4-5.7-14.4v-9.9c3.6-1.6,6.2-6,7.7-8.5l3.4-5.4c0,0,0,0,0-0.1c0.2-0.4,0.3-0.7,0.3-1.1c0-2.9-7-4.3-13.3-3.6
		c-6.3,0.8-13.3,3.9-13.3,6.8c0,0.3,0.1,0.7,0.3,1c0,0,0,0,0,0.1l3.4,4.7c2,2.6,4.2,5.8,7.4,6.6v10l0,0c0.1,5.2,0.6,8.8,1.7,11.5
		c1.2,3.1,3.3,5.1,6.3,6.3c1.4,0.6,3.1,0.7,4.8,0.5c2.3-0.3,4.7-1.2,6.9-2.8c0.8-0.6,1.6-1.3,2.3-2v0.5l0,0v6.6l-11.3,2.4l-0.1,20.1
		l9.6,5.9l1.8-0.4v1.4l17.6,10.7l49.9-10.8l9.1-11.2l0,0v-19.4L222,123.9L222,123.9z M151.3,91.5c0.1-4.4,0.5-7.1,2.9-8.6
		c1-0.6,2.4-0.6,3.7,0c2.1,1,3.3,3.6,3.3,6.9v2.5l-9.8,2.1v-1.7c0-0.2,0-0.3-0.1-0.5L151.3,91.5L151.3,91.5z M201.6,120.9
		L201.6,120.9L201.6,120.9L201.6,120.9L201.6,120.9z"/>
</g>
<path class="st1" d="M201.8,95.5c-0.2-2-0.9-4-1.9-5.9c-1.1-2.2-2.7-4.2-4.5-5.9c-1.8-1.7-3.9-3.1-6.1-3.8c0,0,0,0,0,0
	c0-0.1-0.1-0.1-0.1-0.1c-0.1,0-0.2,0-0.3,0c-0.3-0.1-0.7-0.2-1-0.3c-1.9-0.5-3.7-0.4-5.4,0.1c-2.6-0.7-5.1-0.4-7.2,0.7
	c-0.1,0.1-0.3,0.2-0.4,0.2c0.1-0.3,0.2-0.7,0.3-1c0,0,0,0,0,0c0,0,0,0,0.1,0c0.1,0,0.1-0.1,0-0.2c0,0,0-0.1-0.1-0.1
	c0.5-2,0.9-4.1,1-6.2c0.1-1.1,0.1-2.2,0.1-3.3c0,0,0.1,0,0.1,0c0-0.1,0-0.1,0-0.2c0,0-0.1,0-0.1-0.1c-0.1-2.8-0.5-5.5-1.3-8.1
	c0,0,0,0,0.1,0c0-0.1,0-0.1,0-0.2c0,0-0.1-0.1-0.1-0.1c-0.8-2.6-1.9-5-3.3-7.5c0,0,0,0,0.1,0c0-0.1,0-0.1-0.1-0.2
	c-0.1,0-0.1-0.1-0.2-0.1c-1.2-2-2.6-4-4.3-5.9c0,0,0,0,0,0c0-0.1,0-0.1-0.1-0.2c-0.1,0-0.1,0-0.2-0.1c-1.1-1.2-2.2-2.4-3.5-3.6
	c-1.3-1.2-3.3-1.1-4.5,0.1c-1.2,1.3-1.1,3.3,0.1,4.5c0.6,0.6,1.2,1.2,1.8,1.7c0,0,0,0,0,0c0,0.1,0,0.1,0.1,0.2c0,0,0,0,0,0
	c0,0,0.1,0,0.1,0c1.6,1.7,3,3.4,4.2,5.2c0,0,0,0,0,0c0,0.1,0,0.1,0,0.2c0,0,0,0,0.1,0c0,0,0,0,0.1,0c1.3,2,2.3,4,3.1,6.1
	c0,0,0,0,0,0c0,0,0,0.1,0,0.2c0,0,0.1,0,0.1,0c0,0,0,0,0,0c0.9,2.6,1.4,5.3,1.5,8c0,0-0.1,0-0.1,0.1c0,0-0.1,0.1,0,0.2
	c0,0,0.1,0,0.1,0c0,0,0,0,0,0c0,0.8,0,1.7-0.1,2.5c-0.1,0.9-0.2,1.8-0.3,2.7c-0.3-2-0.7-4.1-1.4-6.1c0,0,0.1,0,0.1-0.1
	c0-0.1,0-0.1,0-0.2c0,0-0.1,0-0.1-0.1c-0.6-2-1.4-4-2.4-5.9c-0.5-1-1.1-1.9-1.7-2.9c0,0,0.1,0,0.1-0.1c0-0.1,0-0.1-0.1-0.1
	c0,0-0.1,0-0.1,0c-1.5-2.3-3.3-4.4-5.3-6.3c0,0,0,0,0-0.1c0-0.1,0-0.1-0.1-0.1c-0.1,0-0.1,0-0.2,0c-2-1.8-4.2-3.3-6.7-4.6
	c0,0,0,0,0-0.1c0-0.1-0.1-0.1-0.1-0.1c-0.1,0-0.1,0-0.2,0c-2.1-1.1-4.3-2-6.8-2.8c0,0,0,0,0-0.1c0-0.1-0.1-0.1-0.1-0.1
	c-0.1,0-0.1,0-0.2,0.1c-1.6-0.5-3.2-0.9-4.8-1.3c-1.7-0.4-3.4,0.7-3.7,2.4c-0.4,1.7,0.7,3.4,2.4,3.7c0.8,0.2,1.6,0.4,2.4,0.6
	c0,0,0,0,0,0.1c0,0.1,0.1,0.1,0.1,0.1c0,0,0,0,0,0c0,0,0.1,0,0.1-0.1c2.2,0.6,4.3,1.4,6.3,2.3c0,0,0,0,0,0.1c0,0.1,0.1,0.1,0.1,0.1
	c0,0,0,0,0,0c0,0,0.1,0,0.1-0.1c2.2,1,4.1,2.2,5.8,3.6c0,0,0,0,0,0.1c0,0.1,0,0.1,0.1,0.1c0,0,0,0,0,0c0,0,0.1,0,0.1,0
	c2.1,1.7,4,3.8,5.5,6.1c0,0,0,0.1,0,0.1c0,0.1,0,0.1,0.1,0.2c0,0,0,0,0,0c0,0,0,0,0.1,0c0.4,0.7,0.9,1.4,1.2,2.2
	c0.7,1.4,1.3,2.9,1.8,4.4c0,0,0,0-0.1,0.1c0,0.1,0,0.1,0,0.2c0,0,0,0,0.1,0c0,0,0,0,0,0c0.1,0.3,0.2,0.5,0.3,0.8
	c-0.1-0.2-0.2-0.4-0.3-0.5c0,0,0.1,0,0.1-0.1c0-0.1,0-0.1-0.1-0.1c0,0-0.1,0-0.1,0c-1.4-2.2-3.1-4.5-5.1-6.5c0,0,0.1-0.1,0-0.1
	c0-0.1-0.1-0.1-0.1-0.1c0,0-0.1,0-0.1,0c-1.5-1.6-3.1-3.1-4.8-4.4c0,0,0-0.1,0-0.1c0-0.1-0.1-0.1-0.1-0.1c0,0-0.1,0-0.1,0
	c-1.6-1.2-3.3-2.3-5.1-3.2c-0.9-0.5-1.9-0.9-2.9-1.3c0,0,0-0.1,0-0.1c0-0.1-0.1-0.1-0.2,0c0,0-0.1,0-0.1,0.1c-2.5-1-5-1.6-7.6-1.9
	c0,0,0,0,0-0.1c0-0.1-0.1-0.1-0.2-0.1c-0.1,0-0.1,0.1-0.2,0.1c-2.5-0.3-5.1-0.2-7.7,0.1c0,0,0,0,0-0.1c0-0.1-0.1-0.1-0.2,0
	c0,0-0.1,0.1-0.1,0.1c-2.2,0.3-4.5,0.8-6.7,1.6c0,0,0,0,0-0.1c0,0-0.1,0-0.2,0c0,0.1-0.1,0.1-0.1,0.2c-1.5,0.5-2.9,1-4.4,1.7
	c-1.5,0.7-2.2,2.4-1.5,3.9c0.7,1.5,2.4,2.2,3.9,1.5c0.7-0.3,1.5-0.6,2.2-0.9c0,0,0,0,0,0c0,0,0.1,0,0.1,0c0,0,0.1,0,0.1,0
	c0,0,0-0.1,0-0.1c2.1-0.8,4.1-1.3,6.1-1.7c0,0,0,0,0,0c0,0,0.1,0.1,0.1,0.1c0,0,0.1,0,0.1,0c0,0,0-0.1,0-0.1
	c2.2-0.4,4.4-0.5,6.5-0.4c0,0,0,0,0,0.1c0,0,0.1,0.1,0.1,0.1c0,0,0,0,0,0c0,0,0.1-0.1,0.1-0.1c2.6,0.2,5.1,0.7,7.6,1.7
	c0,0,0,0.1,0,0.1c0,0,0.1,0.1,0.1,0.1c0,0,0,0,0,0c0,0,0.1,0,0.1-0.1c0.7,0.3,1.4,0.6,2.1,1c1.3,0.7,2.6,1.5,3.8,2.4
	c0,0,0,0.1,0,0.1c0,0.1,0.1,0.1,0.1,0.1c0,0,0,0,0,0c0,0,0.1,0,0.1-0.1c1.9,1.4,3.6,3,5.1,4.7c0,0,0,0.1,0,0.1
	c0,0.1,0.1,0.1,0.1,0.1c0,0,0,0,0,0c0,0,0.1,0,0.1,0c1.5,1.6,2.7,3.4,3.8,5.1c0,0,0,0.1,0,0.1c0,0.1,0,0.1,0.1,0.2c0,0,0,0,0,0
	c0,0,0,0,0.1,0c1.4,2.2,2.5,4.4,3.4,6.3c0.5,1.1,0.9,2.2,1.2,3.1c-0.7,0.8-1.3,1.9-1.9,3.2c0,0,0,0-0.1,0c-0.1,0-0.1,0.1-0.1,0.1
	c0,0.1,0,0.1,0,0.2c-0.2,0.4-0.3,0.7-0.5,1.1c-0.2,0.4-0.4,0.8-0.6,1.3c-0.4,0.8-0.3,1.7,0,2.5c0.3,0.8,1,1.5,1.9,1.8
	c1,0.3,2.1,0,2.8-0.6c0.4,0.7,1,1.2,1.7,1.4c1.6,0.6,3.4-0.3,4-1.8h0c0,0,0-0.1,0-0.1c0.1-0.2,0.2-0.5,0.2-0.7
	c0.4,0.5,0.9,0.8,1.5,1c0.4,0.1,0.8,0.2,1.1,0.1c0.4,1.4,0.8,2.8,0.8,4.2c0,0.1-0.1,0.1-0.1,0.1c0,0.1,0,0.1,0,0.2c0,0,0,0,0.1,0
	c0,0,0,0,0,0c0,0.8,0,1.5-0.1,2.2c-0.1,0.6,0,1.2,0.2,1.7c0.4,0.9,1.2,1.6,2.2,1.8c0.2,0,0.4,0,0.5,0c0,0,0.1,0,0.1,0
	c1.4-0.1,2.6-1,2.8-2.4c0.2-1.2,0.3-2.4,0.2-3.8c0,0,0.1,0,0.1,0c0.1,0,0.1-0.1,0-0.2c0,0-0.1-0.1-0.1-0.1c-0.1-0.7-0.1-1.4-0.3-2.2
	c0.7,1.5,1.2,3.1,1.2,4.5c0,0-0.1,0-0.1,0.1c0,0-0.1,0.1,0,0.2c0,0,0.1,0,0.1,0c0,0.6-0.1,1.2-0.2,1.7c-0.5,1.6,0.4,3.4,2.1,3.9
	c0.2,0.1,0.4,0.1,0.6,0.1c1.4,0.2,2.8-0.7,3.3-2.1c0.4,0.8,1.2,1.5,2.2,1.7c0.2,0,0.4,0.1,0.6,0.1c1.5,0.1,2.9-1,3.2-2.5
	c0.1-0.2,0.1-0.5,0.1-0.7c0.4,0.4,0.9,0.7,1.5,0.8c0.2,0,0.4,0.1,0.6,0.1c1.3,0,2.6-0.8,3-2.1c0.4,0.5,1.1,0.9,1.8,1.1
	c0.2,0,0.4,0,0.5,0c1.4,0,2.7-1,2.9-2.5c0.2-0.9,0.2-1.8,0.1-2.7c0,0,0,0,0,0c0.1,0,0.1-0.1,0.1-0.2
	C201.9,95.7,201.8,95.6,201.8,95.5z"/>
</svg>
