<?xml version="1.0" encoding="utf-8"?>
<!-- Generator: Adobe Illustrator 21.1.0, SVG Export Plug-In . SVG Version: 6.00 Build 0)  -->
<svg version="1.1" id="Layer_1" xmlns="http://www.w3.org/2000/svg" xmlns:xlink="http://www.w3.org/1999/xlink" x="0px" y="0px"
	 viewBox="0 0 300 300" style="enable-background:new 0 0 300 300;" xml:space="preserve">
<style type="text/css">
	.st0{fill:url(#SVGID_1_);}
	.st1{fill:url(#SVGID_2_);}
	.st2{fill:url(#SVGID_3_);}
	.st3{fill:url(#SVGID_4_);}
	.st4{fill:url(#SVGID_5_);}
	.st5{fill:url(#SVGID_6_);}
	.st6{fill:url(#SVGID_7_);}
	.st7{fill:url(#SVGID_8_);}
	.st8{fill:url(#SVGID_9_);}
	.st9{fill:#A1A1A1;}
	.st10{fill:url(#SVGID_10_);}
	.st11{fill:url(#SVGID_11_);}
	.st12{fill:url(#SVGID_12_);}
	.st13{fill:url(#SVGID_13_);}
	.st14{fill:url(#SVGID_14_);}
	.st15{fill:url(#SVGID_15_);}
	.st16{fill:url(#SVGID_16_);}
	.st17{fill:url(#SVGID_17_);}
</style>
<linearGradient id="SVGID_1_" gradientUnits="userSpaceOnUse" x1="130.4" y1="273.55" x2="209.4" y2="273.55">
	<stop  offset="0" style="stop-color:#999999"/>
	<stop  offset="0.9987" style="stop-color:#666666"/>
</linearGradient>
<polygon class="st0" points="130.4,274.8 130.4,296.7 209.4,250.4 152.2,261.7 "/>
<linearGradient id="SVGID_2_" gradientUnits="userSpaceOnUse" x1="130.3323" y1="10.8" x2="130.3695" y2="10.8" gradientTransform="matrix(1 0 0 -1 0 302)">
	<stop  offset="0" style="stop-color:#808080"/>
	<stop  offset="1" style="stop-color:#999999"/>
</linearGradient>
<polygon class="st1" points="130.4,285.7 130.3,296.7 130.3,296.7 130.3,296.7 "/>
<linearGradient id="SVGID_3_" gradientUnits="userSpaceOnUse" x1="109.7" y1="22.25" x2="130.4" y2="22.25" gradientTransform="matrix(1 0 0 -1 0 302)">
	<stop  offset="0" style="stop-color:#999999"/>
	<stop  offset="1" style="stop-color:#808080"/>
</linearGradient>
<polygon class="st2" points="130.4,274.8 130.4,285.7 130.3,296.7 109.9,284.5 109.7,262.8 "/>
<linearGradient id="SVGID_4_" gradientUnits="userSpaceOnUse" x1="130.3323" y1="10.8" x2="130.3695" y2="10.8" gradientTransform="matrix(1 0 0 -1 0 302)">
	<stop  offset="0" style="stop-color:#808080"/>
	<stop  offset="1" style="stop-color:#999999"/>
</linearGradient>
<polygon class="st3" points="130.4,285.7 130.3,296.7 130.3,296.7 130.3,296.7 "/>
<linearGradient id="SVGID_5_" gradientUnits="userSpaceOnUse" x1="109.7" y1="265.65" x2="152.25" y2="265.65">
	<stop  offset="0" style="stop-color:#C6C6C6"/>
	<stop  offset="0.2957" style="stop-color:#CCCCCC"/>
	<stop  offset="0.6822" style="stop-color:#DCDCDC"/>
	<stop  offset="1" style="stop-color:#EFEFEF"/>
</linearGradient>
<polygon class="st4" points="109.7,262.8 130.4,274.8 152.2,261.7 120,256.5 "/>
<linearGradient id="SVGID_6_" gradientUnits="userSpaceOnUse" x1="60.0999" y1="228.3625" x2="238.3466" y2="228.3625">
	<stop  offset="0" style="stop-color:#808080"/>
	<stop  offset="1" style="stop-color:#999999"/>
</linearGradient>
<path class="st5" d="M149.3,244.3c-49.2,0-89-23.3-89-52h-0.2l0.2,20.1c0,28.7,39.9,52,89,52c49.2,0,89-23.3,89-52v-20.1
	C238.3,221,198.5,244.3,149.3,244.3z"/>
<linearGradient id="SVGID_7_" gradientUnits="userSpaceOnUse" x1="60.2535" y1="191.3" x2="238.3466" y2="191.3">
	<stop  offset="1.322115e-03" style="stop-color:#666666"/>
	<stop  offset="1" style="stop-color:#999999"/>
</linearGradient>
<path class="st6" d="M149.3,139.2c-49.2,0-89,23.3-89,52s39.9,52,89,52c-31.9,0-57.7-15.1-57.7-33.7c0-18.6,25.8-33.7,57.7-33.7
	c31.9,0,57.7,15.1,57.7,33.7c0,18.6-25.8,33.7-57.7,33.7c49.2,0,89-23.3,89-52S198.5,139.2,149.3,139.2z"/>
<linearGradient id="SVGID_8_" gradientUnits="userSpaceOnUse" x1="59.8794" y1="191.9875" x2="238.9846" y2="191.9875">
	<stop  offset="0" style="stop-color:#C6C6C6"/>
	<stop  offset="0.2957" style="stop-color:#CCCCCC"/>
	<stop  offset="0.6822" style="stop-color:#DCDCDC"/>
	<stop  offset="1" style="stop-color:#EFEFEF"/>
</linearGradient>
<path class="st7" d="M149.4,139.6c-49.5,0-89.6,23.5-89.6,52.4s40.1,52.4,89.6,52.4c49.5,0,89.6-23.5,89.6-52.4
	S198.9,139.6,149.4,139.6z M149.4,224.2c-32.8,0-59.5-15.1-59.5-33.7c0-18.6,26.6-33.7,59.5-33.7s59.5,15.1,59.5,33.7
	C208.9,209.1,182.3,224.2,149.4,224.2z"/>
<linearGradient id="SVGID_9_" gradientUnits="userSpaceOnUse" x1="60.2535" y1="139.8122" x2="238.3466" y2="139.8122">
	<stop  offset="1.322115e-03" style="stop-color:#666666"/>
	<stop  offset="1" style="stop-color:#999999"/>
</linearGradient>
<path class="st8" d="M149.3,87.8c-49.2,0-89,23.3-89,52s39.9,52,89,52c-31.9,0-57.7-15.1-57.7-33.7c0-18.6,25.8-33.7,57.7-33.7
	c31.9,0,57.7,15.1,57.7,33.7c0,18.6-25.8,33.7-57.7,33.7c49.2,0,89-23.3,89-52S198.5,87.8,149.3,87.8z"/>
<path class="st9" d="M214.2,247.6c-0.2,0.1-0.3,0.2-0.5,0.3s-0.3,0.2-0.5,0.3c-0.1,0.1-0.2,0.1-0.3,0.2c-0.3,0.2-0.5,0.3-0.8,0.5
	c-0.5,0.3-1,0.6-1.4,0.8c-0.1,0.1-0.2,0.1-0.4,0.2c-0.3,0.2-0.6,0.3-0.9,0.5L214.2,247.6z"/>
<path class="st9" d="M213.2,248.2c0.2-0.1,0.3-0.2,0.5-0.3C213.5,248,213.4,248.1,213.2,248.2L213.2,248.2z"/>
<path class="st9" d="M213.2,248.2L213.2,248.2c-0.1,0.1-0.2,0.1-0.3,0.2C213,248.3,213.1,248.3,213.2,248.2z"/>
<path class="st9" d="M176.3,261.5c-0.1,0-0.2,0-0.2,0c-0.1,0-0.1,0-0.2,0l0,0l0,0C176,261.6,176.2,261.5,176.3,261.5z"/>
<path class="st9" d="M175.9,261.6L175.9,261.6c-0.4,0.1-0.7,0.1-1.1,0.2C175.2,261.7,175.5,261.6,175.9,261.6z"/>
<path class="st9" d="M155.2,263.8c-0.2,0-0.3,0-0.5,0l0,0C154.9,263.8,155.1,263.8,155.2,263.8z"/>
<path class="st9" d="M146.9,263.9c-0.1,0-0.3,0-0.4,0c-0.3,0-0.6,0-0.8,0l0,0C146.1,263.9,146.5,263.9,146.9,263.9z"/>
<path class="st9" d="M154.7,263.8L154.7,263.8c-1,0-2.1,0.1-3.1,0.1C152.6,263.9,153.7,263.8,154.7,263.8z"/>
<path class="st9" d="M145.6,263.8L145.6,263.8c-0.1,0-0.1,0-0.2,0H145.6z"/>
<linearGradient id="SVGID_10_" gradientUnits="userSpaceOnUse" x1="151.6" y1="38.15" x2="155.2381" y2="38.15" gradientTransform="matrix(1 0 0 -1 0 302)">
	<stop  offset="0" style="stop-color:#808080"/>
	<stop  offset="1" style="stop-color:#999999"/>
</linearGradient>
<path class="st10" d="M154.7,263.8c0.2,0,0.3,0,0.5,0C155.1,263.8,154.9,263.8,154.7,263.8c-1,0-2.1,0.1-3.1,0.1
	C152.6,263.9,153.7,263.8,154.7,263.8z"/>
<path class="st9" d="M214.7,247.3L214.7,247.3l-0.5,0.3C214.3,247.5,214.5,247.4,214.7,247.3z"/>
<linearGradient id="SVGID_11_" gradientUnits="userSpaceOnUse" x1="60.0999" y1="174.55" x2="238.3466" y2="174.55">
	<stop  offset="0" style="stop-color:#808080"/>
	<stop  offset="1" style="stop-color:#999999"/>
</linearGradient>
<path class="st11" d="M149.3,190.5c-49.2,0-89-23.3-89-52h-0.2l0.2,20.1c0,28.7,39.9,52,89,52c49.2,0,89-23.3,89-52v-20.1
	C238.3,167.2,198.5,190.5,149.3,190.5z"/>
<linearGradient id="SVGID_12_" gradientUnits="userSpaceOnUse" x1="60.2535" y1="85.75" x2="238.3466" y2="85.75">
	<stop  offset="0" style="stop-color:#808080"/>
	<stop  offset="1" style="stop-color:#999999"/>
</linearGradient>
<path class="st12" d="M149.3,33.7c-49.2,0-89,23.3-89,52s39.9,52,89,52c-31.9,0-57.7-15.1-57.7-33.7c0-18.6,25.8-33.7,57.7-33.7
	c31.9,0,57.7,15.1,57.7,33.7c0,18.6-25.8,33.7-57.7,33.7c49.2,0,89-23.3,89-52S198.5,33.7,149.3,33.7z"/>
<linearGradient id="SVGID_13_" gradientUnits="userSpaceOnUse" x1="59.8794" y1="138.175" x2="238.9846" y2="138.175">
	<stop  offset="0" style="stop-color:#C6C6C6"/>
	<stop  offset="0.2957" style="stop-color:#CCCCCC"/>
	<stop  offset="0.6822" style="stop-color:#DCDCDC"/>
	<stop  offset="1" style="stop-color:#EFEFEF"/>
</linearGradient>
<path class="st13" d="M149.4,85.8c-49.5,0-89.6,23.5-89.6,52.4s40.1,52.4,89.6,52.4c49.5,0,89.6-23.5,89.6-52.4
	S198.9,85.8,149.4,85.8z M149.4,170.4c-32.8,0-59.5-15.1-59.5-33.7c0-18.6,26.6-33.7,59.5-33.7s59.5,15.1,59.5,33.7
	C208.9,155.3,182.3,170.4,149.4,170.4z"/>
<linearGradient id="SVGID_14_" gradientUnits="userSpaceOnUse" x1="60.0999" y1="121.825" x2="238.3466" y2="121.825">
	<stop  offset="0" style="stop-color:#808080"/>
	<stop  offset="1" style="stop-color:#999999"/>
</linearGradient>
<path class="st14" d="M149.3,137.8c-49.2,0-89-23.3-89-52h-0.2l0.2,20.1c0,28.7,39.9,52,89,52c49.2,0,89-23.3,89-52V85.8
	C238.3,114.5,198.5,137.8,149.3,137.8z"/>
<linearGradient id="SVGID_15_" gradientUnits="userSpaceOnUse" x1="60.2535" y1="70.85" x2="238.3466" y2="70.85">
	<stop  offset="0" style="stop-color:#C6C6C6"/>
	<stop  offset="0.2957" style="stop-color:#CCCCCC"/>
	<stop  offset="0.6822" style="stop-color:#DCDCDC"/>
	<stop  offset="1" style="stop-color:#EFEFEF"/>
</linearGradient>
<path class="st15" d="M155,33.8L188,15L167.4,3.9l-75,41.8c-3.1,1.5-6,3.1-8.8,4.9l0,0l0,0c-14.5,9.3-23.3,21.6-23.3,35.1
	c0,28.7,39.9,52,89,52c49.2,0,89-23.3,89-52C238.3,58.1,201.5,35.5,155,33.8z M149.3,119.4c-33.1,0-60-15.4-60-34.3
	c0-19,26.8-34.3,60-34.3c33.1,0,60,15.4,60,34.3C209.3,104,182.4,119.4,149.3,119.4z"/>
<linearGradient id="SVGID_16_" gradientUnits="userSpaceOnUse" x1="89.3369" y1="55.9153" x2="209.2632" y2="55.9153">
	<stop  offset="0" style="stop-color:#808080"/>
	<stop  offset="1" style="stop-color:#999999"/>
</linearGradient>
<path class="st16" d="M160.3,51.3L188,35.2V15l-76.3,43.3C98.1,64.6,89.3,74.2,89.3,85c0,4.1,1.3,8.1,3.6,11.8
	c5.7-15.1,28.7-26.5,56.3-26.5c27.6,0,50.6,11.3,56.3,26.5c2.4-3.7,3.6-7.7,3.6-11.8C209.3,68.2,188.2,54.3,160.3,51.3z"/>
<linearGradient id="SVGID_17_" gradientUnits="userSpaceOnUse" x1="155.8025" y1="72.7296" x2="176.2914" y2="98.0712">
	<stop  offset="1.322115e-03" style="stop-color:#666666"/>
	<stop  offset="1" style="stop-color:#999999"/>
</linearGradient>
<path class="st17" d="M111.1,78.8c5.4-2.8,11.7-5,18.6-6.5c6.1-1.3,12.7-2,19.6-2c27.6,0,50.6,11.3,56.3,26.5
	c2.4-3.7,3.6-7.7,3.6-11.8c0-16.8-21.2-30.8-49.1-33.8L111.1,78.8z"/>
</svg>
