<?xml version="1.0" encoding="utf-8"?>
<!-- Generator: Adobe Illustrator 21.1.0, SVG Export Plug-In . SVG Version: 6.00 Build 0)  -->
<svg version="1.1" id="Layer_1" xmlns="http://www.w3.org/2000/svg" xmlns:xlink="http://www.w3.org/1999/xlink" x="0px" y="0px"
	 viewBox="0 0 300 300" style="enable-background:new 0 0 300 300;" xml:space="preserve">
<style type="text/css">
	.st0{fill:#68CB5E;}
	.st1{fill:url(#SVGID_1_);}
	.st2{fill:url(#SVGID_2_);}
	.st3{opacity:0.27;}
	.st4{fill:url(#SVGID_5_);}
	.st5{fill:url(#SVGID_6_);}
	.st6{fill:url(#SVGID_7_);}
	.st7{fill:url(#SVGID_8_);}
	.st8{fill:url(#SVGID_9_);}
	.st9{fill:url(#SVGID_10_);}
	.st10{fill:url(#SVGID_11_);}
	.st11{fill:url(#SVGID_12_);}
	.st12{fill:url(#SVGID_13_);}
	.st13{fill:url(#SVGID_14_);}
	.st14{fill:url(#SVGID_15_);}
	.st15{fill:url(#SVGID_16_);}
	.st16{fill:url(#SVGID_17_);}
	.st17{fill:url(#SVGID_18_);}
	.st18{fill:url(#SVGID_19_);}
	.st19{fill:url(#SVGID_20_);}
	.st20{fill:url(#SVGID_21_);}
	.st21{fill:url(#SVGID_22_);}
	.st22{fill:url(#SVGID_23_);}
	.st23{fill:url(#SVGID_24_);}
	.st24{fill:url(#SVGID_25_);}
	.st25{fill:url(#SVGID_26_);}
</style>
<g>
	<path class="st0" d="M275.7,66.3l-79.8-45.9c-25.6-14.8-67.5-14.8-92.9,0L23.7,66.3c-12.7,7.4-19,17-19,26.7
		c0,4.8,1.6,9.7,4.7,14.2c3.2,4.6,8.1,9,14.6,12.7L76,149.9l27.8,16c25.6,14.8,67.5,14.8,92.9,0l27-15.7L276,120
		c6.3-3.7,11.1-7.9,14.3-12.5c3.1-4.5,4.7-9.2,4.7-13.9V93C294.9,83.3,288.4,73.6,275.7,66.3z"/>
</g>
<linearGradient id="SVGID_1_" gradientUnits="userSpaceOnUse" x1="4.6998" y1="149.2652" x2="295" y2="149.2652">
	<stop  offset="0" style="stop-color:#277A30"/>
	<stop  offset="0.2251" style="stop-color:#2A7E32"/>
	<stop  offset="0.4459" style="stop-color:#348A39"/>
	<stop  offset="0.6649" style="stop-color:#439D44"/>
	<stop  offset="0.8816" style="stop-color:#59B954"/>
	<stop  offset="0.9987" style="stop-color:#68CB5E"/>
</linearGradient>
<path class="st1" d="M290.3,107.5c-3.2,4.6-7.9,8.8-14.3,12.5l-52.3,30.3l-27,15.7c-25.5,14.8-67.3,14.8-92.9,0l-27.8-16L24,120
	c-6.5-3.7-11.4-8.1-14.6-12.7c-3.2-4.6-4.7-9.4-4.7-14.2v28.5c0,9.8,6.4,19.6,19.3,27l27.3,15.7l52.5,30.2
	c25.6,14.8,67.5,14.8,92.9,0l51.6-29.9l27.6-16c12.5-7.3,18.9-16.8,19-26.4V93.6C294.9,98.3,293.4,103.1,290.3,107.5z"/>
<linearGradient id="SVGID_2_" gradientUnits="userSpaceOnUse" x1="4.6998" y1="206.2231" x2="295" y2="206.2231">
	<stop  offset="0" style="stop-color:#633925"/>
	<stop  offset="0.3218" style="stop-color:#774530"/>
	<stop  offset="0.7204" style="stop-color:#8A5039"/>
	<stop  offset="0.9987" style="stop-color:#91543D"/>
</linearGradient>
<path class="st2" d="M276,148.5l-27.6,16l-51.6,29.9c-25.5,14.8-67.3,14.8-92.9,0l-52.5-30.2L24,148.5c-12.9-7.4-19.3-17.2-19.3-27
	V207c0,9.8,6.4,19.6,19.3,27l79.8,45.9c25.6,14.8,67.5,14.8,92.9,0l79.3-45.9c12.5-7.3,18.9-16.8,19-26.4v-85.4
	C294.9,131.6,288.5,141.2,276,148.5z"/>
<ellipse transform="matrix(0.866 -0.5 0.5 0.866 -55.8744 157.626)" class="st3" cx="266.2" cy="183.1" rx="4.5" ry="2.6"/>
<ellipse transform="matrix(0.866 -0.5 0.5 0.866 -87.7051 134.0619)" class="st3" cx="206.3" cy="230.7" rx="3" ry="1.8"/>
<ellipse transform="matrix(0.8177 -0.5757 0.5757 0.8177 -85.7942 185.6425)" class="st3" cx="250.2" cy="228.3" rx="4" ry="3"/>
<ellipse transform="matrix(0.3395 -0.9406 0.9406 0.3395 -143.0625 247.297)" class="st3" cx="104.6" cy="225.5" rx="1.8" ry="3.2"/>
<ellipse transform="matrix(0.1212 -0.9926 0.9926 0.1212 -155.5509 364.2787)" class="st3" cx="128" cy="270" rx="2.8" ry="5"/>
<ellipse transform="matrix(0.9901 -0.1406 0.1406 0.9901 -30.0707 25.464)" class="st3" cx="165.2" cy="225.5" rx="2.2" ry="1.3"/>
<ellipse transform="matrix(0.8941 -0.4479 0.4479 0.8941 -56.3281 130.3765)" class="st3" cx="247.5" cy="184.3" rx="1.8" ry="1"/>
<ellipse transform="matrix(0.866 -0.5 0.5 0.866 -36.8192 164.5043)" class="st3" cx="288.6" cy="151" rx="1.8" ry="1"/>
<ellipse transform="matrix(0.4525 -0.8918 0.8918 0.4525 -164.5345 169.2428)" class="st3" cx="55.6" cy="218.6" rx="1.6" ry="2.2"/>
<ellipse transform="matrix(0.4053 -0.9142 0.9142 0.4053 -164.4251 206.9144)" class="st3" cx="76.8" cy="229.8" rx="1" ry="1.3"/>
<ellipse transform="matrix(0.3395 -0.9406 0.9406 0.3395 -157.7998 144.2326)" class="st3" cx="23.8" cy="184.5" rx="2.5" ry="4.4"/>
<ellipse transform="matrix(0.4525 -0.8918 0.8918 0.4525 -142.4795 171.62)" class="st3" cx="68.5" cy="201.8" rx="2.3" ry="3.1"/>
<ellipse transform="matrix(0.4053 -0.9142 0.9142 0.4053 -131.3844 154.9887)" class="st3" cx="53.4" cy="178.5" rx="1.4" ry="1.8"/>
<g>
	<defs>
		<path id="SVGID_3_" d="M276,148.5l-27.6,16l-51.6,29.9c-25.5,14.8-67.3,14.8-92.9,0l-52.5-30.2L24,148.5
			c-12.9-7.4-19.3-17.2-19.3-27V207c0,9.8,6.4,19.6,19.3,27l79.8,45.9c25.6,14.8,67.5,14.8,92.9,0l79.3-45.9
			c12.5-7.3,18.9-16.8,19-26.4v-85.4C294.9,131.6,288.5,141.2,276,148.5z"/>
	</defs>
	<clipPath id="SVGID_4_">
		<use xlink:href="#SVGID_3_"  style="overflow:visible;"/>
	</clipPath>
</g>
<g>
	<linearGradient id="SVGID_5_" gradientUnits="userSpaceOnUse" x1="55.3818" y1="84.7644" x2="55.3818" y2="84.7644">
		<stop  offset="0" style="stop-color:#277A30"/>
		<stop  offset="0.2251" style="stop-color:#2A7E32"/>
		<stop  offset="0.4459" style="stop-color:#348A39"/>
		<stop  offset="0.6649" style="stop-color:#439D44"/>
		<stop  offset="0.8816" style="stop-color:#59B954"/>
		<stop  offset="0.9987" style="stop-color:#68CB5E"/>
	</linearGradient>
	<line class="st4" x1="55.4" y1="99.3" x2="55.4" y2="70.2"/>
	<linearGradient id="SVGID_6_" gradientUnits="userSpaceOnUse" x1="55.3818" y1="99.3058" x2="55.3818" y2="70.223">
		<stop  offset="1.295637e-03" style="stop-color:#68CB5E"/>
		<stop  offset="0.2378" style="stop-color:#5DBD56"/>
		<stop  offset="0.6838" style="stop-color:#3F9841"/>
		<stop  offset="1" style="stop-color:#277A30"/>
	</linearGradient>
	<polygon class="st5" points="44.9,99.3 55.4,70.2 65.9,99.3 	"/>
</g>
<g>
	<linearGradient id="SVGID_7_" gradientUnits="userSpaceOnUse" x1="226.1131" y1="64.5234" x2="226.1131" y2="64.5234">
		<stop  offset="0" style="stop-color:#277A30"/>
		<stop  offset="0.2251" style="stop-color:#2A7E32"/>
		<stop  offset="0.4459" style="stop-color:#348A39"/>
		<stop  offset="0.6649" style="stop-color:#439D44"/>
		<stop  offset="0.8816" style="stop-color:#59B954"/>
		<stop  offset="0.9987" style="stop-color:#68CB5E"/>
	</linearGradient>
	<line class="st6" x1="226.1" y1="79.1" x2="226.1" y2="50"/>
	<linearGradient id="SVGID_8_" gradientUnits="userSpaceOnUse" x1="226.1131" y1="79.0649" x2="226.1131" y2="49.982">
		<stop  offset="1.295637e-03" style="stop-color:#68CB5E"/>
		<stop  offset="0.2378" style="stop-color:#5DBD56"/>
		<stop  offset="0.6838" style="stop-color:#3F9841"/>
		<stop  offset="1" style="stop-color:#277A30"/>
	</linearGradient>
	<polygon class="st7" points="215.6,79.1 226.1,50 236.6,79.1 	"/>
</g>
<g>
	<linearGradient id="SVGID_9_" gradientUnits="userSpaceOnUse" x1="36.5807" y1="85.4524" x2="36.5807" y2="85.4524">
		<stop  offset="0" style="stop-color:#277A30"/>
		<stop  offset="0.2251" style="stop-color:#2A7E32"/>
		<stop  offset="0.4459" style="stop-color:#348A39"/>
		<stop  offset="0.6649" style="stop-color:#439D44"/>
		<stop  offset="0.8816" style="stop-color:#59B954"/>
		<stop  offset="0.9987" style="stop-color:#68CB5E"/>
	</linearGradient>
	<line class="st8" x1="36.6" y1="94.3" x2="36.6" y2="76.6"/>
	<linearGradient id="SVGID_10_" gradientUnits="userSpaceOnUse" x1="36.5807" y1="94.3244" x2="36.5807" y2="76.5804">
		<stop  offset="1.295637e-03" style="stop-color:#68CB5E"/>
		<stop  offset="0.2378" style="stop-color:#5DBD56"/>
		<stop  offset="0.6838" style="stop-color:#3F9841"/>
		<stop  offset="1" style="stop-color:#277A30"/>
	</linearGradient>
	<polygon class="st9" points="28.6,94.3 36.6,76.6 44.6,94.3 	"/>
</g>
<g>
	<linearGradient id="SVGID_11_" gradientUnits="userSpaceOnUse" x1="71.5955" y1="64.5234" x2="71.5955" y2="64.5234">
		<stop  offset="0" style="stop-color:#277A30"/>
		<stop  offset="0.2251" style="stop-color:#2A7E32"/>
		<stop  offset="0.4459" style="stop-color:#348A39"/>
		<stop  offset="0.6649" style="stop-color:#439D44"/>
		<stop  offset="0.8816" style="stop-color:#59B954"/>
		<stop  offset="0.9987" style="stop-color:#68CB5E"/>
	</linearGradient>
	<line class="st10" x1="71.6" y1="73.4" x2="71.6" y2="55.7"/>
	<linearGradient id="SVGID_12_" gradientUnits="userSpaceOnUse" x1="71.5955" y1="73.3954" x2="71.5955" y2="55.6515">
		<stop  offset="1.295637e-03" style="stop-color:#68CB5E"/>
		<stop  offset="0.2378" style="stop-color:#5DBD56"/>
		<stop  offset="0.6838" style="stop-color:#3F9841"/>
		<stop  offset="1" style="stop-color:#277A30"/>
	</linearGradient>
	<polygon class="st11" points="63.6,73.4 71.6,55.7 79.6,73.4 	"/>
</g>
<g>
	<linearGradient id="SVGID_13_" gradientUnits="userSpaceOnUse" x1="249.0163" y1="98.3078" x2="249.0163" y2="98.3078">
		<stop  offset="0" style="stop-color:#277A30"/>
		<stop  offset="0.2251" style="stop-color:#2A7E32"/>
		<stop  offset="0.4459" style="stop-color:#348A39"/>
		<stop  offset="0.6649" style="stop-color:#439D44"/>
		<stop  offset="0.8816" style="stop-color:#59B954"/>
		<stop  offset="0.9987" style="stop-color:#68CB5E"/>
	</linearGradient>
	<line class="st12" x1="249" y1="107.2" x2="249" y2="89.4"/>
	<linearGradient id="SVGID_14_" gradientUnits="userSpaceOnUse" x1="249.0163" y1="107.1798" x2="249.0163" y2="89.4358">
		<stop  offset="1.295637e-03" style="stop-color:#68CB5E"/>
		<stop  offset="0.2378" style="stop-color:#5DBD56"/>
		<stop  offset="0.6838" style="stop-color:#3F9841"/>
		<stop  offset="1" style="stop-color:#277A30"/>
	</linearGradient>
	<polygon class="st13" points="241,107.2 249,89.4 257,107.2 	"/>
</g>
<g>
	<linearGradient id="SVGID_15_" gradientUnits="userSpaceOnUse" x1="261.3896" y1="83.8599" x2="261.3896" y2="83.8599">
		<stop  offset="0" style="stop-color:#277A30"/>
		<stop  offset="0.2251" style="stop-color:#2A7E32"/>
		<stop  offset="0.4459" style="stop-color:#348A39"/>
		<stop  offset="0.6649" style="stop-color:#439D44"/>
		<stop  offset="0.8816" style="stop-color:#59B954"/>
		<stop  offset="0.9987" style="stop-color:#68CB5E"/>
	</linearGradient>
	<line class="st14" x1="261.4" y1="94.3" x2="261.4" y2="73.4"/>
	<linearGradient id="SVGID_16_" gradientUnits="userSpaceOnUse" x1="261.3896" y1="94.3244" x2="261.3896" y2="73.3954">
		<stop  offset="1.295637e-03" style="stop-color:#68CB5E"/>
		<stop  offset="0.2378" style="stop-color:#5DBD56"/>
		<stop  offset="0.6838" style="stop-color:#3F9841"/>
		<stop  offset="1" style="stop-color:#277A30"/>
	</linearGradient>
	<polygon class="st15" points="253.4,94.3 261.4,73.4 269.4,94.3 	"/>
</g>
<g>
	<linearGradient id="SVGID_17_" gradientUnits="userSpaceOnUse" x1="168.9914" y1="53.516" x2="168.9914" y2="53.516">
		<stop  offset="0" style="stop-color:#277A30"/>
		<stop  offset="0.2251" style="stop-color:#2A7E32"/>
		<stop  offset="0.4459" style="stop-color:#348A39"/>
		<stop  offset="0.6649" style="stop-color:#439D44"/>
		<stop  offset="0.8816" style="stop-color:#59B954"/>
		<stop  offset="0.9987" style="stop-color:#68CB5E"/>
	</linearGradient>
	<line class="st16" x1="169" y1="62.5" x2="169" y2="44.5"/>
	<linearGradient id="SVGID_18_" gradientUnits="userSpaceOnUse" x1="168.9914" y1="62.5223" x2="168.9914" y2="44.5097">
		<stop  offset="1.295637e-03" style="stop-color:#68CB5E"/>
		<stop  offset="0.2378" style="stop-color:#5DBD56"/>
		<stop  offset="0.6838" style="stop-color:#3F9841"/>
		<stop  offset="1" style="stop-color:#277A30"/>
	</linearGradient>
	<polygon class="st17" points="161,62.5 169,44.5 177,62.5 	"/>
</g>
<g>
	<linearGradient id="SVGID_19_" gradientUnits="userSpaceOnUse" x1="197.8622" y1="40.373" x2="197.8622" y2="40.373">
		<stop  offset="0" style="stop-color:#277A30"/>
		<stop  offset="0.2251" style="stop-color:#2A7E32"/>
		<stop  offset="0.4459" style="stop-color:#348A39"/>
		<stop  offset="0.6649" style="stop-color:#439D44"/>
		<stop  offset="0.8816" style="stop-color:#59B954"/>
		<stop  offset="0.9987" style="stop-color:#68CB5E"/>
	</linearGradient>
	<line class="st18" x1="197.9" y1="46.3" x2="197.9" y2="34.5"/>
	<linearGradient id="SVGID_20_" gradientUnits="userSpaceOnUse" x1="197.8622" y1="46.2848" x2="197.8622" y2="34.4612">
		<stop  offset="1.295637e-03" style="stop-color:#68CB5E"/>
		<stop  offset="0.2378" style="stop-color:#5DBD56"/>
		<stop  offset="0.6838" style="stop-color:#3F9841"/>
		<stop  offset="1" style="stop-color:#277A30"/>
	</linearGradient>
	<polygon class="st19" points="192.9,46.3 197.9,34.5 202.9,46.3 	"/>
</g>
<g>
	<linearGradient id="SVGID_21_" gradientUnits="userSpaceOnUse" x1="146.4944" y1="23.8252" x2="146.4944" y2="23.8252">
		<stop  offset="0" style="stop-color:#277A30"/>
		<stop  offset="0.2251" style="stop-color:#2A7E32"/>
		<stop  offset="0.4459" style="stop-color:#348A39"/>
		<stop  offset="0.6649" style="stop-color:#439D44"/>
		<stop  offset="0.8816" style="stop-color:#59B954"/>
		<stop  offset="0.9987" style="stop-color:#68CB5E"/>
	</linearGradient>
	<line class="st20" x1="146.5" y1="31.7" x2="146.5" y2="16"/>
	<linearGradient id="SVGID_22_" gradientUnits="userSpaceOnUse" x1="146.4944" y1="31.6543" x2="146.4944" y2="15.9962">
		<stop  offset="1.295637e-03" style="stop-color:#68CB5E"/>
		<stop  offset="0.2378" style="stop-color:#5DBD56"/>
		<stop  offset="0.6838" style="stop-color:#3F9841"/>
		<stop  offset="1" style="stop-color:#277A30"/>
	</linearGradient>
	<polygon class="st21" points="139.5,31.7 146.5,16 153.5,31.7 	"/>
</g>
<g>
	<linearGradient id="SVGID_23_" gradientUnits="userSpaceOnUse" x1="179.115" y1="143.1118" x2="179.115" y2="143.1118">
		<stop  offset="0" style="stop-color:#277A30"/>
		<stop  offset="0.2251" style="stop-color:#2A7E32"/>
		<stop  offset="0.4459" style="stop-color:#348A39"/>
		<stop  offset="0.6649" style="stop-color:#439D44"/>
		<stop  offset="0.8816" style="stop-color:#59B954"/>
		<stop  offset="0.9987" style="stop-color:#68CB5E"/>
	</linearGradient>
	<line class="st22" x1="179.1" y1="152.5" x2="179.1" y2="133.7"/>
	<linearGradient id="SVGID_24_" gradientUnits="userSpaceOnUse" x1="179.115" y1="152.4951" x2="179.115" y2="133.7286">
		<stop  offset="1.295637e-03" style="stop-color:#68CB5E"/>
		<stop  offset="0.2378" style="stop-color:#5DBD56"/>
		<stop  offset="0.6838" style="stop-color:#3F9841"/>
		<stop  offset="1" style="stop-color:#277A30"/>
	</linearGradient>
	<polygon class="st23" points="170.1,152.5 179.1,133.7 188.1,152.5 	"/>
</g>
<g>
	<linearGradient id="SVGID_25_" gradientUnits="userSpaceOnUse" x1="92.0719" y1="105.2964" x2="92.0719" y2="105.2964">
		<stop  offset="0" style="stop-color:#277A30"/>
		<stop  offset="0.2251" style="stop-color:#2A7E32"/>
		<stop  offset="0.4459" style="stop-color:#348A39"/>
		<stop  offset="0.6649" style="stop-color:#439D44"/>
		<stop  offset="0.8816" style="stop-color:#59B954"/>
		<stop  offset="0.9987" style="stop-color:#68CB5E"/>
	</linearGradient>
	<line class="st24" x1="92.1" y1="113.1" x2="92.1" y2="97.5"/>
	<linearGradient id="SVGID_26_" gradientUnits="userSpaceOnUse" x1="92.0719" y1="113.1254" x2="92.0719" y2="97.4673">
		<stop  offset="1.295637e-03" style="stop-color:#68CB5E"/>
		<stop  offset="0.2378" style="stop-color:#5DBD56"/>
		<stop  offset="0.6838" style="stop-color:#3F9841"/>
		<stop  offset="1" style="stop-color:#277A30"/>
	</linearGradient>
	<polygon class="st25" points="85.1,113.1 92.1,97.5 99.1,113.1 	"/>
</g>
</svg>
