<?xml version="1.0" encoding="utf-8"?>
<!-- Generator: Adobe Illustrator 21.1.0, SVG Export Plug-In . SVG Version: 6.00 Build 0)  -->
<svg version="1.1" id="Layer_1" xmlns="http://www.w3.org/2000/svg" xmlns:xlink="http://www.w3.org/1999/xlink" x="0px" y="0px"
	 viewBox="0 0 355.2 353" style="enable-background:new 0 0 355.2 353;" xml:space="preserve">
<style type="text/css">
	.st0{fill:none;stroke:#FFFFFF;stroke-width:2;stroke-miterlimit:10;}
</style>
<path class="st0" d="M296.4,160.9l-6.8-3.4c-0.9-0.4-1.6-1.4-1.5-2.4l0.1-5c0-2.1-1.3-4.2-3.2-5.1l-26.7-9.6c0,0-4.7-3.8-2.8,4.3
	c2.6,10.7,4.4,38.8,1.5,41.1c-3,2.4,1.2,4.8,1.2,4.8s-3.8-0.3,2.2,9.7c5.9,10.1,19.5,9.5,26.2,11.2c2.7,0.7,6.5,2,8.4,3.2
	c1.9,1.2,4.1,0,4-2.2l0.3-42.4C299.2,163.4,298.1,161.7,296.4,160.9z M271.1,170.3c-4.4-2.6-7.9-10-7.8-16.5c0-6.5,3.6-9.7,8-7.2
	c4.4,2.6,7.9,10,7.8,16.5C279,169.7,275.4,172.9,271.1,170.3z"/>
</svg>
