<?xml version="1.0" encoding="utf-8"?>
<!-- Generator: Adobe Illustrator 21.1.0, SVG Export Plug-In . SVG Version: 6.00 Build 0)  -->
<svg version="1.1" id="Layer_1" xmlns="http://www.w3.org/2000/svg" xmlns:xlink="http://www.w3.org/1999/xlink" x="0px" y="0px"
	 viewBox="0 0 355.2 353" style="enable-background:new 0 0 355.2 353;" xml:space="preserve">
<style type="text/css">
	.st0{fill:none;stroke:#FFFFFF;stroke-width:2;stroke-miterlimit:10;}
</style>
<path class="st0" d="M111.3,168.9l-5.9-2.2c-1-0.4-1.6-1.4-1.6-2.4l0.2-3.5c0.2-2.4-0.1-4.5-2.3-5.5c-2.9-1.3-11.5-3.4-17.8-5.1
	c-2.7-0.7-5.1-2.8-7-4.8c0-4.4,0-11,0-11l-0.1,0c-5.3,0.4-7.5,5-7.5,5c-0.7,0.7-0.9,2.4,0.4,6.3c3.1,9.6,4,37.2-0.4,46.3
	c-0.6,1.2,0,2.4,0.3,3.1c0.1,0.1,0.1,0.3,0.1,0.4l-0.2-0.5l-0.9,0.1l0.4,2.6l0.2,0.4c0,1.3,0.7,3.6,3.1,7.6
	c5.6,9.4,21.7,10.3,28.6,10.9c2.2,0.2,4.2,0.8,6.1,1.6c3.3,1.3,6.8-1,7-4.6l1.4-38.6C115.6,172.4,113.9,169.9,111.3,168.9z
	 M90,170.6c-0.2,3-1.1,5.1-2.6,6l-9.7-8.8c-0.5-1.9-0.8-3.9-0.7-5.8c0.3-5.5,3.5-8.1,7-5.7C87.6,158.7,90.3,165,90,170.6z"/>
</svg>
