<svg id="Layer_1" data-name="Layer 1" xmlns="http://www.w3.org/2000/svg" xmlns:xlink="http://www.w3.org/1999/xlink" viewBox="0 0 491.54 491.54"><defs><style>.cls-1{fill:url(#linear-gradient);}</style><linearGradient id="linear-gradient" x1="355.43" y1="366.54" x2="266.24" y2="280.48" gradientTransform="matrix(1, -0.05, 0.05, 1, -7.79, 18.26)" gradientUnits="userSpaceOnUse"><stop offset="0.18" stop-color="#585858"/><stop offset="0.82"/></linearGradient></defs><title>jacketBack</title><path class="cls-1" d="M337.51,297.87l.13-7.56a8.42,8.42,0,0,0-4.9-7.7L292.11,268s-7.21-5.75-4.28,6.5c3.91,16.35,6.71,59.08,2.21,62.67s1.89,7.25,1.89,7.25-5.72-.51,3.33,14.83,29.69,14.44,39.93,17.1c4.07,1.06,9.86,3,12.83,4.94a3.87,3.87,0,0,0,6.14-3.33l.39-64.56a7.49,7.49,0,0,0-4.32-6.64l-10.36-5.14A4.08,4.08,0,0,1,337.51,297.87Zm-13.75,12.23c-.05,10-5.48,14.84-12.13,10.9s-12-15.2-11.95-25.16S305.16,281,311.81,285,323.81,300.15,323.76,310.11Z"/></svg>