<?xml version="1.0" encoding="utf-8"?>
<!-- Generator: Adobe Illustrator 21.1.0, SVG Export Plug-In . SVG Version: 6.00 Build 0)  -->
<svg version="1.1" id="Layer_1" xmlns="http://www.w3.org/2000/svg" xmlns:xlink="http://www.w3.org/1999/xlink" x="0px" y="0px"
	 viewBox="0 0 355.2 353" style="enable-background:new 0 0 355.2 353;" xml:space="preserve">
<style type="text/css">
	.st0{fill:none;stroke:#FFFFFF;stroke-width:2;stroke-miterlimit:10;}
</style>
<g>
	<path class="st0" d="M201.9,253.7c-4.5,1.4-15.4,3.7-15.4,3.7s-1,0.2-0.8-1.4c0.1-1.1,0.2-2.8,0.3-4.3c3-2.3,3.2-5.1,3.2-5.1
		s1.9,0.5,3.8-0.3c0.7-0.3,1.3-0.7,2-1.4c0.4-0.4,0.8-1,1.2-1.7s0.7-1.5,0.9-2.4l0,0l0,0l0,0l0,0l0,0l0,0l0,0l0,0l0,0c0,0,0,0,0.1,0
		c0,0,0,0,0.1,0h0.1h0.1h0.1c0,0,0,0,0.1,0h0.1h0.1h0.1h0.1h0.1h0.1h0.1h0.1c0.1,0,0.1,0,0.2,0c0.1,0,0.1,0,0.2-0.1
		c0.1,0,0.1,0,0.2-0.1c0,0,0.1,0,0.1-0.1c0.1,0,0.1,0,0.2-0.1c0,0,0.1-0.1,0.2-0.1c0.1,0,0.1-0.1,0.2-0.1c0.1,0,0.1-0.1,0.2-0.1
		c0.1,0,0.1-0.1,0.2-0.1c0.1,0,0.1-0.1,0.2-0.1c0.1,0,0.1-0.1,0.2-0.1c0.1,0,0.1-0.1,0.2-0.1c0.1-0.1,0.2-0.1,0.2-0.2
		c0.1-0.1,0.2-0.1,0.2-0.2c0.1-0.1,0.2-0.2,0.3-0.3s0.1-0.1,0.2-0.2c0.1-0.1,0.2-0.2,0.2-0.2c0.1-0.1,0.1-0.1,0.2-0.2
		c0.1-0.1,0.2-0.2,0.2-0.3c0.1-0.1,0.1-0.2,0.2-0.3c0.1-0.1,0.2-0.2,0.2-0.3c0.1-0.1,0.1-0.2,0.2-0.3c0.1-0.1,0.2-0.2,0.3-0.4
		c0.1-0.1,0.1-0.2,0.2-0.3c0.1-0.2,0.2-0.3,0.3-0.5c0.1-0.1,0.2-0.2,0.3-0.4s0.3-0.4,0.4-0.6c0.1-0.1,0.1-0.2,0.2-0.4
		c0.1-0.2,0.2-0.3,0.3-0.5c0.1-0.1,0.2-0.3,0.2-0.4c0.1-0.2,0.2-0.3,0.3-0.5c0.1-0.1,0.2-0.3,0.3-0.5c0-0.1,0.1-0.2,0.1-0.2l0,0
		c0.6-1,1.1-2.2,1.7-3.4l0,0c2.2-4.7,2.2-5.7,2.2-5.7l-63,7.7c-2,11.2,2,16.8,2,16.8h0.1c0.1,0.1,0.1,0.1,0.2,0.2
		c0,0.1,0.1,0.1,0.1,0.2c0.1,0.2,0.3,0.4,0.5,0.5c0,0,0,0.1,0.1,0.1c0.2,0.2,0.4,0.4,0.6,0.6l0.1,0.1c0.2,0.1,0.3,0.3,0.5,0.4
		c0.1,0.1,0.2,0.1,0.3,0.2c0.2,0.1,0.3,0.2,0.5,0.3c0.1,0.1,0.2,0.1,0.3,0.2c0.2,0.1,0.3,0.2,0.5,0.3c0.1,0.1,0.2,0.1,0.4,0.2
		c0.2,0.1,0.3,0.2,0.5,0.2c0.1,0.1,0.3,0.1,0.4,0.2c0.2,0.1,0.4,0.1,0.6,0.2c0.1,0,0.3,0.1,0.4,0.1c0.2,0.1,0.4,0.1,0.6,0.2
		c0.2,0,0.3,0.1,0.5,0.1s0.5,0.1,0.7,0.1s0.3,0,0.5,0.1c0.3,0,0.6,0.1,0.9,0.1c0.1,0,0.3,0,0.4,0c0.4,0,0.9,0,1.4,0
		c0,0,0.1,1.6,1.2,2.8c-0.2,1-0.6,2.3-1,3.9c-1.1,4.1-0.9,3.9-0.3,6.9c0.6,3,2.9,12.1,3.4,15.8c0.6,3.7-0.6,4.7-1.5,5.7
		s-7,5.6-3.1,6.3c0,0,1,0.1,2.8-0.9c2.3-1.3,1.8,1,1.9,1.8c0.4,1.9,2.4,1.4,3.4-0.3c1-1.7,1-2.4,1.9-2.1c1,0.4,1.3,0.5,1.3,0.5
		c3.3,1.2,3.8-2,1-4.5c-1.6-2.1-2.1-3.8-3-7.6c-0.9-3.9-3.8-14.6-4.2-18.2c-0.2-1.8,0.3-4.1,1.1-6.2c2-0.1,3.7-1.2,5-2.8
		c0,0,3.9-0.3,7.3-1.8c0,0,1.7,1.3,4.2,1.3c-0.2,2.9-0.4,7.7,0.3,8.7c0.9,1.5,0.5,1.5,4.5,0.2c4.1-1.3,12.8-4.2,14-4.4
		c1.2-0.2,1.5-0.3,1.5,2.9c0,0-0.1,1.7,0.9,3c0,0-3.4,2.3-1.3,4.9c2.1,2.6,5.6,0.3,6.9-2.8c0.5-2.3,0.8-2.5-0.4-5.5
		C206.8,257.6,206.5,252.3,201.9,253.7z"/>
</g>
</svg>
