<?xml version="1.0" encoding="utf-8"?>
<!-- Generator: Adobe Illustrator 21.1.0, SVG Export Plug-In . SVG Version: 6.00 Build 0)  -->
<svg version="1.1" id="Layer_1" xmlns="http://www.w3.org/2000/svg" xmlns:xlink="http://www.w3.org/1999/xlink" x="0px" y="0px"
	 viewBox="0 0 1330 1300" style="enable-background:new 0 0 1330 1300;" xml:space="preserve">
<style type="text/css">
	.st0{fill:url(#SVGID_1_);}
	.st1{fill:url(#SVGID_2_);}
	.st2{clip-path:url(#SVGID_4_);}
	.st3{opacity:0.31;fill:#FFFFFF;}
</style>
<g>
	<linearGradient id="SVGID_1_" gradientUnits="userSpaceOnUse" x1="164.9171" y1="1087.8931" x2="165.1164" y2="1087.7258">
		<stop  offset="0" style="stop-color:#3076BC"/>
		<stop  offset="0.1435" style="stop-color:#395F92"/>
		<stop  offset="0.1796" style="stop-color:#3C5D91"/>
		<stop  offset="0.4895" style="stop-color:#4E5288"/>
		<stop  offset="0.7075" style="stop-color:#554E85"/>
		<stop  offset="1" style="stop-color:#6C62C6"/>
	</linearGradient>
	<path class="st0" d="M165.2,1087.8c-0.1,0-0.2,0-0.3,0"/>
</g>
<linearGradient id="SVGID_2_" gradientUnits="userSpaceOnUse" x1="127.3706" y1="1054.1028" x2="299.4996" y2="584.7658">
	<stop  offset="0" style="stop-color:#5948D1"/>
	<stop  offset="1" style="stop-color:#8565CC"/>
</linearGradient>
<path class="st1" d="M387.6,500.2c-10.2-47.6-39.7-47.3-58.7-41.6C310,464.3,204,492.6,185.1,630.8s28.4,287.6,17,350.1
	c-11.5,63.2-73.8,5.7-81.4,20.8c-7.6,15.1,51.1,68.1,100.3,37.8c48.3-29.7,53-141.4,49.2-242.2c-3.8-100.3,9.5-236.5,94.6-230.9
	C387.5,568,393.2,526.7,387.6,500.2z"/>
<g>
	<defs>
		<path id="SVGID_3_" d="M387.6,500.2c-10.2-47.6-39.7-47.3-58.7-41.6C310,464.3,204,492.6,185.1,630.8s28.4,287.6,17,350.1
			c-11.5,63.2-73.8,5.7-81.4,20.8c-7.6,15.1,51.1,68.1,100.3,37.8c48.3-29.7,53-141.4,49.2-242.2c-3.8-100.3,9.5-236.5,94.6-230.9
			C387.5,568,393.2,526.7,387.6,500.2z"/>
	</defs>
	<clipPath id="SVGID_4_">
		<use xlink:href="#SVGID_3_"  style="overflow:visible;"/>
	</clipPath>
	<g class="st2">
		<path class="st3" d="M273.3,915.6c-3.8-3.4-9.6-3.8-13.4,0c-0.3,0.3-0.5,0.6-0.8,0.9c-4.3,3.7-5.8,9.4-5.6,15.7
			c0.2,7.8,2.2,17.7,10.8,20.3c10.6,3.3,15.6-6.7,16.6-15.4C281.8,929.2,279.4,921,273.3,915.6z"/>
		<path class="st3" d="M281.6,796.8c-2-1.9-4.2-2.7-6.4-2.7c-0.1,0-0.2,0-0.3-0.1c-11.4-1.3-18.6,10.4-19.4,20.4
			c-0.7,9,4,21,12.1,25.8c10.6,6.2,18.7-6.3,21.2-14.9C291.9,815.1,289.3,804.1,281.6,796.8z"/>
		<path class="st3" d="M279.2,742.4c-1.9,0.1-3.5,0.6-4.9,1.5c-1.3,0.1-2.6,0.5-3.8,1.1c-10,4.8-14.2,24.3-3.3,30.4
			c6.8,3.8,14.2-0.5,17.3-6.9c2.6-5.3,3.8-10.8,4.2-16.7C289,746.9,284.1,742.2,279.2,742.4z"/>
		<path class="st3" d="M284.9,692.2c-0.1-0.2-0.3-0.3-0.4-0.5c-1.7-3-4.7-5.3-8.2-4.9c-9.5,1.2-15.6,7-18.6,15.9
			c-2.6,7.9-3.9,18.5,4.7,23.3c9.3,5.2,17.2-3.4,21.9-10.5C289.2,707.9,290.9,699.6,284.9,692.2z"/>
		<path class="st3" d="M299.5,641.3c0.1-0.3,0.3-0.6,0.4-1c1.3-4.5-1.6-10.8-6.6-11.6c-11.9-1.9-21.3,1.5-25,13.7
			c-3.2,10.5-2.4,27.4,8,33.9C292.2,686.3,306,656.8,299.5,641.3z"/>
		<path class="st3" d="M307.1,590.7c-6.2-4-14.4-5.5-21-1.5c-7.1,4.2-10.3,13.6-5.9,20.9c4,6.7,12.2,9.7,19.7,8.3
			c8.1-1.5,12.8-9.6,11.4-17.4C312.3,597,310.7,593.1,307.1,590.7z"/>
		<path class="st3" d="M348.3,546.3c-11.3-8-31.7-5.5-38.5,7.6c-7.9,15.2,5.3,31.5,21.4,30.7c4-0.2,6.7-2.4,8.1-5.3
			c0.2,0,0.4,0,0.5-0.1c7.1-1.2,14.3-6.2,16.6-13.3C358.8,558.4,354.3,550.6,348.3,546.3z"/>
		<path class="st3" d="M259.3,1027.9c-0.7-5.5-5.1-9.9-10.4-11.1c-5.7-1.2-11.2,1.1-15.9,4.1c-9.1,5.8-15.6,15.7-12.5,26.8
			c1.7,6,7.3,7.6,11.9,6.2c3,0.7,6.4,0,9.5-1.7C249.9,1047.8,260.6,1037.9,259.3,1027.9z"/>
		<path class="st3" d="M207.1,1060.7c0.1-1.1,0.1-2.4-0.3-3.7c-5.1-18.5-29.3-27.4-43.8-13.1c-7.4,7.3-3.7,18.2,4.9,22.4
			c4.2,2,8.8,2.6,13.4,2.8c4.2,0.3,8.4-0.2,12,2.1C201.2,1076.1,208.6,1067.8,207.1,1060.7z"/>
		<path class="st3" d="M272.7,975.7c-0.6-2.5-2.4-4.5-4.6-5.7c-5.2-5.6-13.9-9.1-20.1-2.8c-5.2,5.4-5.3,16.3-2.5,22.9
			c3.2,7.7,12.6,12.2,20.1,7.3C272.8,992.8,274.5,983.4,272.7,975.7z"/>
		<path class="st3" d="M242,991.7c-0.8-0.8-1.9-1-3.1-0.2c-0.9,0.6-1.7,1.4-2.5,2.1c0,0-0.1,0.1-0.1,0.1c-3.2,3.3-5.2,7.9-4.5,12.5
			c0.4,2.6,2.4,4.5,5.2,4.2c3-0.3,5.2-3,6.5-5.5C245.2,1001.5,247.1,992.8,242,991.7z"/>
		<path class="st3" d="M215.8,1030.3c-3-1.7-6.7,1.8-8.9,3.5c-1.2,1-2.3,2.1-2.5,3.7c-0.1,0.6,0,1.3,0.2,1.9c0,0.1,0,0.3,0,0.4
			c0.2,0.9,1.1,1.8,2,2c0.2,0,0.5,0.1,0.7,0.1c0.1,0,0.3,0,0.4,0c0.3,0,0.5,0,0.8,0c0,0,0,0,0,0c2.4-0.2,4.5-1.8,6.3-3.4
			C217,1036.5,219.2,1032.3,215.8,1030.3z"/>
		<path class="st3" d="M151.6,1029.4c-2.3-3-11.2-8.3-13-2.1c-0.5,1.7,0.1,3.3,1,4.8c1.6,3.5,4.5,6.4,8.2,7.6
			c2.6,0.9,4.9-0.2,5.6-2.9C154,1034.2,153.1,1031.4,151.6,1029.4z"/>
		<path class="st3" d="M275.7,892c-0.8-3.4-4-6.2-7.5-5.4c-8.7-0.5-12.4,12.5-6.2,18.1C269.6,911.5,277.3,898.9,275.7,892z"/>
		<path class="st3" d="M275.8,851.3c-0.4-0.8-1-1.5-1.7-2.1c-0.5-1.4-1.4-2.5-3-2.7c-0.8-0.5-1.8-0.6-2.8,0.1
			c-5.5,3.8-7.5,12-4.4,18c1.4,2.7,4.2,4.9,7.4,4.6c3.6-0.4,5.1-3.8,5.7-7C277.7,858.6,277.5,854.5,275.8,851.3z"/>
		<path class="st3" d="M256.7,834.8c-1.5-2.3-4.6-4.2-7.4-3.3c-1,0.3-1.8,1-2.4,1.8c-4.2,4-4.7,12-1.2,16.5c1.8,2.3,4.9,3.4,7.7,2.1
			c2.9-1.5,4-4.8,4.6-7.8C258.6,840.9,258.5,837.6,256.7,834.8z"/>
		<path class="st3" d="M257.2,785.3c0.5-3.5,0.5-7.7-1.9-10.5c-2.4-2.7-6.3-3.2-8.6-0.2c-2.4,3-2.5,7.9-2,11.5
			c0.3,2.5,1.5,5.1,3.6,6.5c1,1,2.3,1.7,3.8,1.6c2-0.2,3.2-1.5,3.9-3.2c0.8-1.1,1.3-2.5,1.5-3.8
			C257.6,786.4,257.5,785.8,257.2,785.3z"/>
		<path class="st3" d="M255.8,659.9c-0.5,0-1,0.1-1.6,0.5c-0.2,0.1-0.4,0.3-0.5,0.4c0,0-0.1,0-0.1,0.1c-5.6,4.1-9.5,12.7-4.9,18.9
			c5.1,6.8,13.3,1,15.1-5.4C265.3,669,263.3,658,255.8,659.9z"/>
		<path class="st3" d="M271.5,604.6c-0.2-0.9-0.6-1.9-1.2-2.8c-0.2-1.9-2.4-2.8-3.9-2.3c-0.2,0-0.4,0-0.6,0c-3.1,0.6-3.9,4.4-4.4,7
			c-0.6,3.2-1.2,7.3,0.5,10.2c0.4,0.7,0.9,1.3,1.5,1.7c0.4,0.3,0.8,0.7,1.3,0.9c2,1,3.4,0.6,4.5-0.4c0,0,0,0,0,0
			c1.2-0.5,1.6-1.5,1.4-2.5C272.2,612.7,272.1,606.8,271.5,604.6z"/>
		<path class="st3" d="M303.5,556.2c-0.4-2.1-2.2-3.5-4.3-3.3c-2.3,0.2-2.9,2-4.3,3.4c-0.3,0.3-0.6,0.7-0.7,1.1
			c-1.6,1.7-2.8,3.7-3.1,6c-0.5,4.7,4.4,7.7,7.7,3.9c1.4-1.6,2.5-3.5,3.4-5.4C302.9,560.1,303.9,558.2,303.5,556.2z"/>
		<path class="st3" d="M314.1,583.5c0.2-1.1-0.4-2.1-1.4-2.9c-1.2-0.9-2.5-1.5-3.9-1.5c-1.5,0-3.1,0.8-3.9,2.2
			c-1.4,2.4-0.2,5.7,2.3,6.9c2.3,1.2,6.9,1.7,7.8-1.5C315.3,585.6,314.9,584.5,314.1,583.5z"/>
	</g>
</g>
</svg>
