<?xml version="1.0" encoding="utf-8"?>
<!-- Generator: Adobe Illustrator 21.1.0, SVG Export Plug-In . SVG Version: 6.00 Build 0)  -->
<svg version="1.1" id="Layer_1" xmlns="http://www.w3.org/2000/svg" xmlns:xlink="http://www.w3.org/1999/xlink" x="0px" y="0px"
	 viewBox="0 0 355.2 353" style="enable-background:new 0 0 355.2 353;" xml:space="preserve">
<style type="text/css">
	.st0{fill:none;stroke:#FFFFFF;stroke-width:2;stroke-miterlimit:10;}
</style>
<g>
	<path class="st0" d="M70.5,215.2c3.3,4.9,8.2,7.2,9.1,7.6l0,0c5.4,2.4,10,2.4,13.6,0.2c6.4-4,9.3-15.1,8.6-33.9l-0.2-4.7l0,0
		c0-5.4,0.5-10.1,1.7-13.8c1.4-4.6,3.2-6.6,4.7-7.6c1.6-1,5.5-0.6,6.9,0c2.8,1.2,3.4-0.8,3.6-3.6c0.2-2.8-0.6-7.4-3.4-8.6
		c-2.6-1.1-5.7-1-8.6-0.2l0,0h-0.1c-0.6,0.2-1.2,0.4-1.8,0.6c-0.1,0.1-0.1,0.1-0.2,0.1c-0.6,0.2-1.1,0.5-1.7,0.8l0,0l0,0
		c-0.6,0.3-1.1,0.6-1.6,0.9c-4.3,2.7-11.1,10.6-9.6,33c0.3,8.7-0.1,23.6-5.5,27c-1.5,0.9-3.3,0.9-5.8-0.2h-0.1l0,0
		c-0.3-0.1-1.6-0.8-2.1-1.6c-0.2-0.2-0.2-0.7-0.2-1.3c0.3-2.8,1.1-2.4,1.7-2.2c2.8,1.2,5.3,0,5.5-2.8c0.2-2.7-1.9-6-4.7-7.2
		c-5.8-2.5-12-1.1-12.7,7.8C67.2,209.7,68.8,213.2,70.5,215.2z"/>
</g>
</svg>
