<?xml version="1.0" encoding="utf-8"?>
<!-- Generator: Adobe Illustrator 21.1.0, SVG Export Plug-In . SVG Version: 6.00 Build 0)  -->
<svg version="1.1" id="Layer_1" xmlns="http://www.w3.org/2000/svg" xmlns:xlink="http://www.w3.org/1999/xlink" x="0px" y="0px"
	 viewBox="0 0 1330 1300" style="enable-background:new 0 0 1330 1300;" xml:space="preserve">
<style type="text/css">
	.st0{fill:url(#SVGID_1_);}
	.st1{fill:url(#SVGID_2_);}
	.st2{opacity:0.68;fill:#C16470;}
	.st3{opacity:0.28;fill:#FFFFFF;}
	.st4{fill:url(#SVGID_3_);}
	.st5{opacity:0.88;fill:#262626;}
</style>
<g>
	<g>
		
			<linearGradient id="SVGID_1_" gradientUnits="userSpaceOnUse" x1="844.2408" y1="524.0344" x2="1034.6404" y2="702.8189" gradientTransform="matrix(0.9191 -0.3939 0.3939 0.9191 -264.3334 808.223)">
			<stop  offset="0" style="stop-color:#BD5665"/>
			<stop  offset="0.1865" style="stop-color:#EF708A"/>
			<stop  offset="1" style="stop-color:#F2BFC8"/>
		</linearGradient>
		<path class="st0" d="M730.6,922.9c0,0-6.8,78,0.9,91.8c7.6,13.8,4.1,13.2,37.8,6.5c34.3-6.8,106.6-21.8,117-22.2
			c10.4-0.4,12.4-1.4,12.9,26c0,0-0.5,14.5,7.2,26.1c0,0-28.6,16.1-10.6,40c17.8,23.8,46.6,8.3,57.5-16.5c4.1-18.8,7-20.3-3.4-46.2
			c-10.4-26.2-13-70.8-51.3-63.7c-37.6,7-128.5,15.3-128.5,15.3s-8.6,0.3-6.9-12.1c1.8-21.6,5.4-67,5.4-67L730.6,922.9z"/>
		<linearGradient id="SVGID_2_" gradientUnits="userSpaceOnUse" x1="528.1727" y1="1092.7753" x2="657.4419" y2="1092.7753">
			<stop  offset="0" style="stop-color:#BD5665"/>
			<stop  offset="0.1865" style="stop-color:#EF708A"/>
			<stop  offset="1" style="stop-color:#F2BFC8"/>
		</linearGradient>
		<path class="st1" d="M577.5,1162.9c4.7,31.8-4.9,39.1-12.8,46.2c-7.8,7.1-58.1,40-25.8,49.2c0,0,8,1.8,23.6-4.9
			c19.2-8.2,14.7,10.2,16.2,17.2c3.6,16.4,20.3,14.2,28.4,1c8.1-13.2,8.1-19.3,16.2-15.2s10.6,5.5,10.6,5.5
			c27.9,13.6,31.6-12.7,8.1-36.2c-13.7-19.4-17.8-33.6-24.9-66.7c-7.2-33.3-32-125.9-35.1-156.6c-3.1-30.9,17.5-72.9,28.8-90.4
			c11.4-17.8-45.2-3.3-45.2-3.3l-1,8.8c0,0-3.8,18.5-13.1,52.5c-9.1,33.5-7.4,31.5-2.4,57.1C553.9,1052.6,572.8,1130.8,577.5,1162.9
			z"/>
		<g>
			<path class="st2" d="M754.6,976.4c-0.2,0-0.4,0-0.5,0c-3.4-0.3-5.9-3.2-5.7-6.6l3.3-41.7c0.3-3.4,3.2-5.9,6.6-5.7
				c3.4,0.3,5.9,3.2,5.7,6.6l-3.3,41.7C760.5,973.9,757.8,976.4,754.6,976.4z"/>
			<path class="st3" d="M593.8,1108.5c-2.8,0-5.3-1.9-6-4.8l-10.7-46.4c-0.8-3.3,1.3-6.6,4.6-7.4c3.3-0.8,6.6,1.3,7.4,4.6l10.7,46.4
				c0.8,3.3-1.3,6.6-4.6,7.4C594.7,1108.4,594.2,1108.5,593.8,1108.5z"/>
			<path class="st3" d="M578.9,1044.8c-2.8,0-5.4-2-6-4.9l-4.6-22c-0.7-3.3,1.4-6.6,4.8-7.3c3.3-0.7,6.6,1.4,7.3,4.8l4.6,22
				c0.7,3.3-1.4,6.6-4.8,7.3C579.8,1044.7,579.3,1044.8,578.9,1044.8z"/>
			<path class="st3" d="M925.5,995.4c-2.7,0-5.2-1.8-6-4.6c-3-11.6-9.5-11.5-18.2-9.9c-1.3,0.2-2.4,0.4-3.5,0.5
				c-3.4,0.2-6.3-2.4-6.5-5.8c-0.2-3.4,2.4-6.3,5.8-6.5c0.4,0,1.3-0.2,2.1-0.3c6.5-1.1,26.2-4.6,32.3,19c0.9,3.3-1.1,6.6-4.4,7.5
				C926.5,995.3,926,995.4,925.5,995.4z"/>
		</g>
		<linearGradient id="SVGID_3_" gradientUnits="userSpaceOnUse" x1="891.7041" y1="1066.777" x2="930.5411" y2="1080.9125">
			<stop  offset="0" style="stop-color:#BD5665"/>
			<stop  offset="0.1865" style="stop-color:#EF708A"/>
			<stop  offset="1" style="stop-color:#F2BFC8"/>
		</linearGradient>
		<path class="st4" d="M895.8,1091.2c0,0,3.6-1.6,17.2-1.9s31.1-32.4,20.7-29.5c-10.4,2.9-27.3-8.6-27.3-8.6
			S877.8,1067.3,895.8,1091.2z"/>
	</g>
	<g>
		<path class="st2" d="M582.9,928.3c-6.9,15-15.4,43.1-17.2,59.9c2-0.5,5.8-1.3,8.5-1.3c2,0,3.9,0.2,5.6,0.5l0.4-0.1
			c1.8-16.8,9.4-39,16.3-54l0.2-0.4c1-3.2-2.4-7.8-5.7-8.8c-3.2-1-6.7,0.8-7.7,4.1L582.9,928.3z"/>
	</g>
	<path d="M439,788.8c0,0-12,112.2,110.3,125.1c0,0,1.7,25.9,24.7,34.5c23.2,8.7,44.9,1.1,58.7-14.7c0,0,32.4,1.2,61.3-7.2
		c0,0,28,25.5,62.3,10.7c35-15,36.4-44.7,36.4-44.7s49.1,20.4,65.8-39.8c0,0,37.6,29,99.2-106.2L439,788.8z"/>
	<path class="st5" d="M600.9,910.7L445,837.3c10.3,32.1,36.9,69.4,104.4,76.6c0,0,1.7,25.9,24.7,34.5c23.2,8.7,44.9,1.1,58.7-14.7
		c0,0,32.4,1.2,61.3-7.2c0,0,28,25.5,62.3,10.7c35-15,36.4-44.7,36.4-44.7s49.1,20.4,65.8-39.8c0,0,27.7,21.3,74.4-57.9L600.9,910.7
		z"/>
	<path class="st2" d="M586.8,1277c-1.1,0-2.2-0.4-3.1-1.3c-3.9-4-3.7-11.5-3.5-18.7c0-0.8,0-1.6,0.1-2.4c0-2.4,2-4.3,4.4-4.2
		c2.4,0,4.3,2,4.2,4.4c0,0.8,0,1.6-0.1,2.5c-0.1,3.6-0.3,11.1,1.1,12.5c1.6,1.7,1.6,4.4-0.1,6.1C589,1276.6,587.9,1277,586.8,1277z"
		/>
</g>
</svg>
