<?xml version="1.0" encoding="utf-8"?>
<!-- Generator: Adobe Illustrator 21.1.0, SVG Export Plug-In . SVG Version: 6.00 Build 0)  -->
<svg version="1.1" id="robotTop" xmlns="http://www.w3.org/2000/svg" xmlns:xlink="http://www.w3.org/1999/xlink" x="0px" y="0px"
	 viewBox="0 0 1330 1300" style="enable-background:new 0 0 1330 1300;" xml:space="preserve">
<style type="text/css">
	.st0{fill:url(#SVGID_1_);}
	.st1{fill:url(#SVGID_2_);}
	.st2{fill:url(#SVGID_3_);}
	.st3{fill:url(#SVGID_4_);}
</style>
<g>
	<linearGradient id="SVGID_1_" gradientUnits="userSpaceOnUse" x1="591.4" y1="574.25" x2="1152.4" y2="574.25">
		<stop  offset="0" style="stop-color:#95ABB8"/>
		<stop  offset="0.6977" style="stop-color:#95ABB8"/>
	</linearGradient>
	<polygon class="st0" points="1152.4,582.8 1067.1,520.5 591.4,565 677.6,628 	"/>
</g>
<g>
	<linearGradient id="SVGID_2_" gradientUnits="userSpaceOnUse" x1="528.6043" y1="-43.4506" x2="940.6043" y2="544.5494">
		<stop  offset="0.301" style="stop-color:#E0E7EA"/>
		<stop  offset="1" style="stop-color:#95ABB8"/>
	</linearGradient>
	<polygon class="st1" points="591.4,349.4 424.1,227.1 898.8,181.8 1066.2,304.1 	"/>
</g>
<linearGradient id="SVGID_3_" gradientUnits="userSpaceOnUse" x1="437.7346" y1="703.3693" x2="1169.7345" y2="693.3693">
	<stop  offset="0" style="stop-color:#95ABB8"/>
	<stop  offset="0.699" style="stop-color:#E0E7EA"/>
</linearGradient>
<path class="st2" d="M677.6,628v182.9l474.7-45.2V582.8L677.6,628z M1106.8,689c-0.1,13.6-10.8,25.7-24,26.8l-324.4,28
	c-13.1,1.1-23.8-9-23.8-22.6l0.1-24c0.1-13.6,10.8-25.7,24-26.8l324.4-28c13.4,0,23.8,9,23.8,22.6L1106.8,689z"/>
<linearGradient id="SVGID_4_" gradientUnits="userSpaceOnUse" x1="1067.2" y1="1565.45" x2="591.4999" y2="1565.45" gradientTransform="matrix(1 0 0 -1 0 2000)">
	<stop  offset="0.301" style="stop-color:#E0E7EA"/>
	<stop  offset="1" style="stop-color:#95ABB8"/>
</linearGradient>
<path class="st3" d="M1066.2,304.1l-474.7,45.2V565l475.7-44.5L1066.2,304.1z M780,502.4c0-0.1,0-0.2,0-0.3l-19.5,1.7
	c-1-12.8-11.4-22.1-24.1-20.9c-12.7,1.1-23.2,12.2-24.3,25.2l-19.6,1.7l0,0l-20.9,1.8l0,0l-22.8,2.4c0.2-50,39.5-94,87.8-98.2
	s87.2,32.9,87,82.9L780,502.4z M980.3,482.3c0-0.1,0-0.2,0-0.3l-19.5,1.7c-1-12.8-11.4-22.1-24.1-20.9
	c-12.7,1.1-23.2,12.2-24.3,25.2l-19.6,1.7c0,0.1,0,0.2,0,0.3l-43.7,3.8c0.2-50,39.5-94,87.8-98.2c48.3-4.2,87.2,32.9,87,82.9
	L980.3,482.3z"/>
</svg>
