<?xml version="1.0" encoding="utf-8"?>
<!-- Generator: Adobe Illustrator 21.1.0, SVG Export Plug-In . SVG Version: 6.00 Build 0)  -->
<svg version="1.1" id="Layer_1" xmlns="http://www.w3.org/2000/svg" xmlns:xlink="http://www.w3.org/1999/xlink" x="0px" y="0px"
	 viewBox="0 0 1330 1300" style="enable-background:new 0 0 1330 1300;" xml:space="preserve">
<style type="text/css">
	.st0{fill:#FBE7A8;}
	.st1{fill:url(#SVGID_1_);}
	.st2{fill:url(#SVGID_2_);}
	.st3{opacity:0.47;fill:url(#SVGID_3_);}
	.st4{opacity:0.5;fill:url(#SVGID_4_);}
	.st5{opacity:0.39;fill:url(#SVGID_5_);}
	.st6{opacity:0.62;fill:url(#SVGID_6_);}
	.st7{opacity:0.4;fill:url(#SVGID_7_);}
	.st8{opacity:0.62;fill:url(#SVGID_8_);}
	.st9{opacity:0.56;fill:url(#SVGID_9_);}
	.st10{opacity:0.62;fill:url(#SVGID_10_);}
	.st11{opacity:0.56;fill:url(#SVGID_11_);}
	.st12{fill:url(#SVGID_12_);}
	.st13{opacity:0.32;fill:url(#SVGID_13_);}
	.st14{opacity:0.4;fill:url(#SVGID_14_);}
	.st15{opacity:0.38;fill:url(#SVGID_15_);}
	.st16{opacity:0.38;fill:url(#SVGID_16_);}
	.st17{opacity:0.4;fill:url(#SVGID_17_);}
	.st18{opacity:0.4;fill:url(#SVGID_18_);}
	.st19{opacity:0.19;fill:url(#SVGID_19_);}
	.st20{opacity:0.19;fill:url(#SVGID_20_);}
	.st21{opacity:0.19;fill:url(#SVGID_21_);}
	.st22{opacity:0.19;fill:url(#SVGID_22_);}
	.st23{opacity:0.19;fill:url(#SVGID_23_);}
	.st24{opacity:0.19;fill:url(#SVGID_24_);}
	.st25{opacity:0.19;fill:url(#SVGID_25_);}
	.st26{opacity:0.19;fill:url(#SVGID_26_);}
	.st27{opacity:0.19;fill:url(#SVGID_27_);}
	.st28{opacity:0.19;fill:url(#SVGID_28_);}
	.st29{opacity:0.19;fill:url(#SVGID_29_);}
	.st30{opacity:0.19;fill:url(#SVGID_30_);}
	.st31{opacity:0.19;fill:url(#SVGID_31_);}
	.st32{opacity:0.19;fill:url(#SVGID_32_);}
	.st33{opacity:0.19;fill:url(#SVGID_33_);}
	.st34{opacity:0.19;fill:url(#SVGID_34_);}
	.st35{opacity:0.32;fill:url(#SVGID_35_);}
	.st36{opacity:0.32;fill:url(#SVGID_36_);}
	.st37{fill:none;}
	.st38{fill:url(#SVGID_37_);}
	.st39{opacity:0.69;fill:url(#SVGID_38_);}
	.st40{opacity:0.69;fill:url(#SVGID_39_);}
	.st41{opacity:0.69;fill:url(#SVGID_40_);}
	.st42{opacity:0.69;fill:url(#SVGID_41_);}
</style>
<path class="st0" d="M876.9,599.3c20.6,0,48.6-24.5,71.6-94.6c16.4-50.1,38.1-84.9,64.3-103.4c20.7-14.6,43.7-18.8,68.4-12.6
	c33.5,8.4,72.3,58.1,53.9,142.4c-0.4,2,0.8,4.1,2.9,4.5c2.1,0.4,4.1-0.8,4.5-2.9c19.6-89.2-23-142.2-59.4-151.3
	c-26.6-6.7-52.4-1.9-74.6,13.8c-27.6,19.5-50.2,55.5-67.2,107.2c-10.4,31.7-23,56.7-36.4,72.3c-11.3,13.1-22.7,19-32.2,16.5
	c-9.8-2.5-17.4-13.6-21.4-31.1c-4.7-20.4-4-47.7,1.8-79c0.4-2.1-1-4-3-4.4c-2.1-0.4-4,1-4.4,3c-13.8,74.1,2.7,113.1,25.2,118.9
	C872.7,599,874.7,599.3,876.9,599.3z"/>
<linearGradient id="SVGID_1_" gradientUnits="userSpaceOnUse" x1="256.5685" y1="492.6962" x2="297.4309" y2="563.472" gradientTransform="matrix(-1 0 0 1 1327.4164 0)">
	<stop  offset="0" style="stop-color:#FAD566"/>
	<stop  offset="0.1718" style="stop-color:#FACB55"/>
	<stop  offset="0.4885" style="stop-color:#FBBC3B"/>
	<stop  offset="0.7742" style="stop-color:#FBB32B"/>
	<stop  offset="1" style="stop-color:#FBB026"/>
</linearGradient>
<path class="st1" d="M914.7,415.8c173.4,57.8,246.6,151.9,201.8,371.1c0,0-38.9,40.6-87.3,32.8c-48.4-7.9,0,0,0,0
	S1202.4,537.9,906,444.5C887.9,438.8,892.3,408.4,914.7,415.8z"/>
<g>
	
		<radialGradient id="SVGID_2_" cx="247.1407" cy="682.759" r="223.7702" gradientTransform="matrix(-1 0 0 1 1327.4164 0)" gradientUnits="userSpaceOnUse">
		<stop  offset="0.2744" style="stop-color:#94533C"/>
		<stop  offset="0.4686" style="stop-color:#824834"/>
		<stop  offset="0.8544" style="stop-color:#552A1E"/>
		<stop  offset="1" style="stop-color:#421E15"/>
	</radialGradient>
	<path class="st2" d="M904.7,704.8c0-3.4,2.2-6.8,2.4-10.2c0.2-3.4,0.9-6.8,1.2-10.1c0.4-3.4,0.5-6.8,1.1-10.2
		c0.6-3.4,0.4-6.9,1.2-10.2c0.8-3.4,1.2-6.8,2.2-10.1c0.9-3.3,1.6-6.7,2.8-9.9c1.1-3.2,2.8-6.3,4.1-9.5c1.3-3.2,1.3-7,2.8-10.1
		c1.5-3.1,4.1-5.7,5.8-8.7c1.7-3,3.9-5.7,5.8-8.6c1.8-2.9,3.8-5.7,5.8-8.5c2-2.8,3.7-5.8,5.8-8.5c2.1-2.7,4.2-5.4,6.5-8
		c2.3-2.6,6.1-3.6,8.6-6c2.4-2.4,3.8-5.9,6.4-8.2c2.6-2.3,4.9-4.9,7.5-7c2.7-2.1,6.5-2.7,9.3-4.7c2.8-2,4.8-5.1,7.7-6.9
		c2.9-1.8,5.7-3.9,8.7-5.6c3-1.7,6.6-2.2,9.7-3.7c3.1-1.5,5.4-4.7,8.6-6c3.2-1.3,6.5-2.5,9.7-3.6c3.2-1.1,6.8-1.3,10.1-2.2
		c3.3-0.9,6.7-1.6,10-2.4c3.3-0.8,6.6-2.3,9.9-2.9c3.4-0.6,7.1,1.9,10.6,1.5c3.4-0.4,6.5-3.7,10-3.9c3.4-0.2,6.9,1.2,10.3,1.2
		s6.8,0.6,10.2,0.8c3.4,0.2,6.9-0.5,10.3-0.1c3.4,0.4,7.1-0.9,10.5-0.4c3.4,0.6,6.5,2.9,9.8,3.6c3.4,0.8,6.6,1.9,9.9,2.8
		c3.3,0.9,6.3,2.8,9.5,4c3.2,1.1,6.9,1.2,10,2.5c3.2,1.3,6.9,1.6,9.9,3.1c3.1,1.5,6,3.5,9,5.2c3,1.7,4.5,5.8,7.4,7.6
		c2.9,1.8,5.9,3.4,8.7,5.4c2.8,2,7.4,1.6,10.1,3.7c2.7,2.1,4.4,5.5,7,7.8c2.6,2.3,3.5,6.2,5.9,8.6s6.9,2.9,9.2,5.4
		c2.3,2.6,2.2,7,4.4,9.7c2.1,2.7,6.9,3.4,8.9,6.2c2,2.8,1.5,7.2,3.4,10.1c1.8,2.9,3.2,5.9,4.9,8.9c1.7,3,4,5.6,5.5,8.7
		c1.5,3.1,4.4,5.5,5.7,8.7c1.3,3.2,0.4,7.1,1.6,10.4c1.1,3.2,2.2,6.4,3.1,9.7c0.9,3.3,4.8,5.8,5.5,9.2c0.8,3.3,1.2,6.8,1.7,10.2
		c0.6,3.4-1.3,7.1-0.9,10.5c0.4,3.4,3.4,6.6,3.6,10c0.2,3.4-3.4,6.9-3.4,10.4c0,3.4,0.4,6.8,0.2,10.2c-0.2,3.4,1.3,7,0.9,10.3
		c-0.4,3.4-2.7,6.5-3.2,9.9c-0.6,3.4-0.8,6.8-1.5,10.1c-0.8,3.4,0.8,7.3-0.1,10.6c-0.9,3.3-3.4,6.1-4.6,9.4c-1.1,3.2-2,6.6-3.3,9.7
		c-1.3,3.2-2.8,6.3-4.3,9.3c-1.5,3.1-3.6,5.8-5.3,8.8c-1.7,3-3.4,5.9-5.2,8.8c-1.8,2.9-2,7-3.9,9.8c-2,2.8-6.1,4-8.2,6.7
		c-2.1,2.7-5,4.7-7.3,7.2c-2.3,2.6-2.3,7.2-4.7,9.7c-2.4,2.4-5.7,4-8.3,6.3c-2.6,2.3-6.6,2.8-9.2,4.9c-2.7,2.1-3.9,6.1-6.7,8.1
		c-2.8,2-6.9,1.9-9.8,3.8c-2.9,1.8-4.7,5.5-7.7,7.1c-3,1.7-6.8,1.6-9.9,3.1c-3.1,1.5-5.9,3.4-9.1,4.7c-3.2,1.3-6,3.4-9.2,4.5
		c-3.2,1.1-6,3.8-9.3,4.8c-3.3,0.9-6.7,1.7-10.1,2.5c-3.3,0.8-7,0.2-10.4,0.8c-3.4,0.6-6.8,1.1-10.2,1.5c-3.4,0.4-6.9-0.3-10.3-0.1
		c-3.4,0.2-6.8,2.1-10.3,2.1s-6.8-2.2-10.2-2.3c-3.4-0.2-6.7-1.2-10.1-1.6c-3.4-0.4-6.9,0.3-10.3-0.2c-3.4-0.6-7.1,0.5-10.5-0.3
		c-3.4-0.8-6.1-3.9-9.4-4.8c-3.3-0.9-6.7-1.4-9.9-2.6c-3.2-1.1-7.2-0.6-10.3-1.9c-3.2-1.3-6-3.5-9.1-5c-3.1-1.5-6.2-3-9.2-4.6
		c-3-1.7-5.1-4.8-8-6.6c-2.9-1.8-5.8-3.6-8.6-5.6c-2.8-2-5.7-3.8-8.3-6c-2.7-2.1-6.6-2.9-9.1-5.2c-2.6-2.3-3.3-6.5-5.8-8.9
		c-2.4-2.4-6.3-3.5-8.6-6.1c-2.3-2.6-4.4-5.3-6.5-8c-2.1-2.7-3-6.4-4.9-9.2c-2-2.8-3.7-5.7-5.5-8.6c-1.8-2.9-3.2-6-4.8-9
		c-1.7-3-3.2-6-4.7-9.1c-1.5-3.1-5.4-5.1-6.8-8.2c-1.3-3.2-0.7-7.1-1.8-10.3c-1.1-3.2-1.1-6.8-2.1-10.1c-0.9-3.3-3-6.2-3.7-9.6
		c-0.8-3.3-1.9-6.6-2.5-10c-0.6-3.4-1.7-6.7-2.1-10.1c-0.4-3.4-1.2-6.8-1.4-10.3C904.5,711.7,904.7,708.2,904.7,704.8z"/>
</g>
<linearGradient id="SVGID_3_" gradientUnits="userSpaceOnUse" x1="871.207" y1="958.3555" x2="898.6071" y2="958.3555" gradientTransform="matrix(0.6495 0.7604 0.7604 -0.6495 -67.4333 683.0241)">
	<stop  offset="0" style="stop-color:#562416"/>
	<stop  offset="1" style="stop-color:#421E15"/>
</linearGradient>
<circle class="st3" cx="1236" cy="733.4" r="13.7"/>
<linearGradient id="SVGID_4_" gradientUnits="userSpaceOnUse" x1="333.0248" y1="811.8842" x2="360.4249" y2="811.8842" gradientTransform="matrix(-1 0 0 1 1327.4164 0)">
	<stop  offset="0" style="stop-color:#562416"/>
	<stop  offset="1" style="stop-color:#421E15"/>
</linearGradient>
<circle class="st4" cx="980.7" cy="811.9" r="13.7"/>
<linearGradient id="SVGID_5_" gradientUnits="userSpaceOnUse" x1="897.4474" y1="887.1784" x2="917.3748" y2="887.1784" gradientTransform="matrix(0.7071 0.7071 0.7071 -0.7071 -46.6559 656.8406)">
	<stop  offset="0" style="stop-color:#562416"/>
	<stop  offset="1" style="stop-color:#421E15"/>
</linearGradient>
<circle class="st5" cx="1222.3" cy="671.1" r="10"/>
<linearGradient id="SVGID_6_" gradientUnits="userSpaceOnUse" x1="365.4068" y1="729.6838" x2="385.3341" y2="729.6838" gradientTransform="matrix(-1 0 0 1 1327.4164 0)">
	<stop  offset="0" style="stop-color:#562416"/>
	<stop  offset="1" style="stop-color:#421E15"/>
</linearGradient>
<circle class="st6" cx="952" cy="729.7" r="10"/>
<linearGradient id="SVGID_7_" gradientUnits="userSpaceOnUse" x1="821.5023" y1="1034.7878" x2="836.4478" y2="1034.7878" gradientTransform="matrix(0.3998 0.9166 0.9166 -0.3998 -106.163 387.2412)">
	<stop  offset="0" style="stop-color:#562416"/>
	<stop  offset="1" style="stop-color:#421E15"/>
</linearGradient>
<circle class="st7" cx="1173.7" cy="733.4" r="7.5"/>
<linearGradient id="SVGID_8_" gradientUnits="userSpaceOnUse" x1="355.6911" y1="160.4345" x2="365.6548" y2="160.4345" gradientTransform="matrix(-0.4653 -0.8852 -0.8852 0.4653 1476.0889 809.8917)">
	<stop  offset="0" style="stop-color:#562416"/>
	<stop  offset="1" style="stop-color:#421E15"/>
</linearGradient>
<circle class="st8" cx="1166.3" cy="565.3" r="5"/>
<linearGradient id="SVGID_9_" gradientUnits="userSpaceOnUse" x1="718.5344" y1="1084.7172" x2="728.498" y2="1084.7172" gradientTransform="matrix(-0.3211 0.947 0.947 0.3211 147.1495 -266.4749)">
	<stop  offset="0" style="stop-color:#562416"/>
	<stop  offset="1" style="stop-color:#421E15"/>
</linearGradient>
<circle class="st9" cx="942.1" cy="767" r="5"/>
<linearGradient id="SVGID_10_" gradientUnits="userSpaceOnUse" x1="379.1068" y1="625.0653" x2="389.0705" y2="625.0653" gradientTransform="matrix(-1 0 0 1 1327.4164 0)">
	<stop  offset="0" style="stop-color:#562416"/>
	<stop  offset="1" style="stop-color:#421E15"/>
</linearGradient>
<circle class="st10" cx="943.3" cy="625.1" r="5"/>
<linearGradient id="SVGID_11_" gradientUnits="userSpaceOnUse" x1="390.3159" y1="701.0383" x2="400.2796" y2="701.0383" gradientTransform="matrix(-1 0 0 1 1327.4164 0)">
	<stop  offset="0" style="stop-color:#562416"/>
	<stop  offset="1" style="stop-color:#421E15"/>
</linearGradient>
<circle class="st11" cx="932.1" cy="701" r="5"/>
<linearGradient id="SVGID_12_" gradientUnits="userSpaceOnUse" x1="113.8241" y1="779.5022" x2="123.7878" y2="779.5022" gradientTransform="matrix(-1 0 0 1 1327.4164 0)">
	<stop  offset="0" style="stop-color:#562416"/>
	<stop  offset="1" style="stop-color:#421E15"/>
</linearGradient>
<circle class="st12" cx="1208.6" cy="779.5" r="5"/>
<linearGradient id="SVGID_13_" gradientUnits="userSpaceOnUse" x1="909.806" y1="839.3695" x2="923.3007" y2="839.3695" gradientTransform="matrix(0.8528 0.5222 0.5222 -0.8528 -13.4518 934.5334)">
	<stop  offset="0" style="stop-color:#562416"/>
	<stop  offset="1" style="stop-color:#421E15"/>
</linearGradient>
<circle class="st13" cx="1206.5" cy="697.4" r="6.7"/>
<linearGradient id="SVGID_14_" gradientUnits="userSpaceOnUse" x1="947.9711" y1="764.7708" x2="957.7855" y2="764.7708" gradientTransform="matrix(0.8911 0.4538 0.4538 -0.8911 -1.7901 903.2081)">
	<stop  offset="0" style="stop-color:#562416"/>
	<stop  offset="1" style="stop-color:#421E15"/>
</linearGradient>
<circle class="st14" cx="1194.4" cy="654.1" r="4.9"/>
<linearGradient id="SVGID_15_" gradientUnits="userSpaceOnUse" x1="430.9899" y1="300.9488" x2="445.0856" y2="300.9488" gradientTransform="matrix(4.489700e-11 -1 -1 -4.489700e-11 1258.3505 1112.5536)">
	<stop  offset="0" style="stop-color:#562416"/>
	<stop  offset="1" style="stop-color:#421E15"/>
</linearGradient>
<circle class="st15" cx="957.4" cy="674.5" r="7"/>
<linearGradient id="SVGID_16_" gradientUnits="userSpaceOnUse" x1="318.3093" y1="388.0515" x2="327.8549" y2="388.0515" gradientTransform="matrix(-0.2337 -0.9723 -0.9723 0.2337 1431.23 892.7162)">
	<stop  offset="0" style="stop-color:#562416"/>
	<stop  offset="1" style="stop-color:#421E15"/>
</linearGradient>
<circle class="st16" cx="978.4" cy="669.3" r="4.8"/>
<linearGradient id="SVGID_17_" gradientUnits="userSpaceOnUse" x1="331.3019" y1="351.695" x2="338.2441" y2="351.695" gradientTransform="matrix(-0.3092 -0.951 -0.951 0.3092 1400.8335 906.6205)">
	<stop  offset="0" style="stop-color:#562416"/>
	<stop  offset="1" style="stop-color:#421E15"/>
</linearGradient>
<circle class="st17" cx="962.9" cy="697" r="3.5"/>
<linearGradient id="SVGID_18_" gradientUnits="userSpaceOnUse" x1="322.4433" y1="324.4536" x2="329.3855" y2="324.4536" gradientTransform="matrix(-0.3092 -0.951 -0.951 0.3092 1400.8335 906.6205)">
	<stop  offset="0" style="stop-color:#562416"/>
	<stop  offset="1" style="stop-color:#421E15"/>
</linearGradient>
<circle class="st18" cx="991.5" cy="697" r="3.5"/>
<linearGradient id="SVGID_19_" gradientUnits="userSpaceOnUse" x1="708.7399" y1="331.4958" x2="727.1365" y2="331.4958" gradientTransform="matrix(0.7063 -0.7079 -0.7079 -0.7063 733.4898 1396.8191)">
	<stop  offset="0" style="stop-color:#562416"/>
	<stop  offset="1" style="stop-color:#421E15"/>
</linearGradient>
<circle class="st19" cx="1005.9" cy="654.5" r="9.2"/>
<linearGradient id="SVGID_20_" gradientUnits="userSpaceOnUse" x1="643.888" y1="401.0769" x2="656.346" y2="401.0769" gradientTransform="matrix(0.5213 -0.8534 -0.8534 -0.5213 1011.1453 1363.304)">
	<stop  offset="0" style="stop-color:#562416"/>
	<stop  offset="1" style="stop-color:#421E15"/>
</linearGradient>
<circle class="st20" cx="1007.8" cy="599.4" r="6.2"/>
<linearGradient id="SVGID_21_" gradientUnits="userSpaceOnUse" x1="661.6354" y1="317.0718" x2="674.0934" y2="317.0718" gradientTransform="matrix(0.5213 -0.8534 -0.8534 -0.5213 1011.1453 1363.304)">
	<stop  offset="0" style="stop-color:#562416"/>
	<stop  offset="1" style="stop-color:#421E15"/>
</linearGradient>
<circle class="st21" cx="1088.7" cy="628.1" r="6.2"/>
<linearGradient id="SVGID_22_" gradientUnits="userSpaceOnUse" x1="663.5797" y1="235.0525" x2="676.0377" y2="235.0525" gradientTransform="matrix(0.5213 -0.8534 -0.8534 -0.5213 1011.1453 1363.304)">
	<stop  offset="0" style="stop-color:#562416"/>
	<stop  offset="1" style="stop-color:#421E15"/>
</linearGradient>
<circle class="st22" cx="1159.7" cy="669.2" r="6.2"/>
<linearGradient id="SVGID_23_" gradientUnits="userSpaceOnUse" x1="617.1806" y1="241.7227" x2="629.6387" y2="241.7227" gradientTransform="matrix(0.5213 -0.8534 -0.8534 -0.5213 1011.1453 1363.304)">
	<stop  offset="0" style="stop-color:#562416"/>
	<stop  offset="1" style="stop-color:#421E15"/>
</linearGradient>
<circle class="st23" cx="1129.8" cy="705.3" r="6.2"/>
<linearGradient id="SVGID_24_" gradientUnits="userSpaceOnUse" x1="684.7438" y1="150.1991" x2="697.2018" y2="150.1991" gradientTransform="matrix(0.5213 -0.8534 -0.8534 -0.5213 1011.1453 1363.304)">
	<stop  offset="0" style="stop-color:#562416"/>
	<stop  offset="1" style="stop-color:#421E15"/>
</linearGradient>
<circle class="st24" cx="1243.2" cy="695.3" r="6.2"/>
<linearGradient id="SVGID_25_" gradientUnits="userSpaceOnUse" x1="717.8596" y1="339.7222" x2="730.3176" y2="339.7222" gradientTransform="matrix(0.5213 -0.8534 -0.8534 -0.5213 1011.1453 1363.304)">
	<stop  offset="0" style="stop-color:#562416"/>
	<stop  offset="1" style="stop-color:#421E15"/>
</linearGradient>
<circle class="st25" cx="1098.7" cy="568.3" r="6.2"/>
<linearGradient id="SVGID_26_" gradientUnits="userSpaceOnUse" x1="714.4108" y1="374.1154" x2="726.8688" y2="374.1154" gradientTransform="matrix(0.5213 -0.8534 -0.8534 -0.5213 1011.1453 1363.304)">
	<stop  offset="0" style="stop-color:#562416"/>
	<stop  offset="1" style="stop-color:#421E15"/>
</linearGradient>
<circle class="st26" cx="1067.5" cy="553.3" r="6.2"/>
<linearGradient id="SVGID_27_" gradientUnits="userSpaceOnUse" x1="545.9044" y1="206.3932" x2="554.9648" y2="206.3932" gradientTransform="matrix(0.4528 -0.8916 -0.8916 -0.4528 979.8068 1351.6774)">
	<stop  offset="0" style="stop-color:#562416"/>
	<stop  offset="1" style="stop-color:#421E15"/>
</linearGradient>
<circle class="st27" cx="1045" cy="767.4" r="4.5"/>
<linearGradient id="SVGID_28_" gradientUnits="userSpaceOnUse" x1="708.1299" y1="184.0096" x2="717.1903" y2="184.0096" gradientTransform="matrix(0.4528 -0.8916 -0.8916 -0.4528 979.8068 1351.6774)">
	<stop  offset="0" style="stop-color:#562416"/>
	<stop  offset="1" style="stop-color:#421E15"/>
</linearGradient>
<circle class="st28" cx="1138.4" cy="632.9" r="4.5"/>
<linearGradient id="SVGID_29_" gradientUnits="userSpaceOnUse" x1="741.93" y1="122.9505" x2="750.9904" y2="122.9505" gradientTransform="matrix(0.4528 -0.8916 -0.8916 -0.4528 979.8068 1351.6774)">
	<stop  offset="0" style="stop-color:#562416"/>
	<stop  offset="1" style="stop-color:#421E15"/>
</linearGradient>
<circle class="st29" cx="1208.2" cy="630.4" r="4.5"/>
<linearGradient id="SVGID_30_" gradientUnits="userSpaceOnUse" x1="555.04" y1="259.9218" x2="564.1003" y2="259.9218" gradientTransform="matrix(0.4528 -0.8916 -0.8916 -0.4528 979.8068 1351.6774)">
	<stop  offset="0" style="stop-color:#562416"/>
	<stop  offset="1" style="stop-color:#421E15"/>
</linearGradient>
<circle class="st30" cx="1001.4" cy="735.1" r="4.5"/>
<linearGradient id="SVGID_31_" gradientUnits="userSpaceOnUse" x1="44.3978" y1="664.149" x2="57.6693" y2="664.149" gradientTransform="matrix(-1 1.119955e-03 1.119955e-03 1 1117.6354 84.4736)">
	<stop  offset="0" style="stop-color:#562416"/>
	<stop  offset="1" style="stop-color:#421E15"/>
</linearGradient>
<circle class="st31" cx="1067.3" cy="748.7" r="6.6"/>
<linearGradient id="SVGID_32_" gradientUnits="userSpaceOnUse" x1="54.4588" y1="823.7733" x2="63.4462" y2="823.7733" gradientTransform="matrix(-0.972 0.2348 0.2348 0.972 897.6093 -88.1644)">
	<stop  offset="0" style="stop-color:#562416"/>
	<stop  offset="1" style="stop-color:#421E15"/>
</linearGradient>
<circle class="st32" cx="1033.8" cy="726.4" r="4.5"/>
<linearGradient id="SVGID_33_" gradientUnits="userSpaceOnUse" x1="62.9632" y1="817.371" x2="69.4995" y2="817.371" gradientTransform="matrix(-0.9506 0.3103 0.3103 0.9506 911.5477 -57.7835)">
	<stop  offset="0" style="stop-color:#562416"/>
	<stop  offset="1" style="stop-color:#421E15"/>
</linearGradient>
<circle class="st33" cx="1102.2" cy="739.8" r="3.3"/>
<linearGradient id="SVGID_34_" gradientUnits="userSpaceOnUse" x1="11.3402" y1="695.3479" x2="17.8765" y2="695.3479" gradientTransform="matrix(-0.9506 0.3103 0.3103 0.9506 911.5477 -57.7835)">
	<stop  offset="0" style="stop-color:#562416"/>
	<stop  offset="1" style="stop-color:#421E15"/>
</linearGradient>
<circle class="st34" cx="1113.4" cy="607.8" r="3.3"/>
<linearGradient id="SVGID_35_" gradientUnits="userSpaceOnUse" x1="906.2826" y1="961.1223" x2="913.6433" y2="961.1223" gradientTransform="matrix(0.6636 0.7481 0.7481 -0.6636 -141.7534 665.2265)">
	<stop  offset="0" style="stop-color:#562416"/>
	<stop  offset="1" style="stop-color:#421E15"/>
</linearGradient>
<circle class="st35" cx="1181.1" cy="708.1" r="3.7"/>
<linearGradient id="SVGID_36_" gradientUnits="userSpaceOnUse" x1="176.5728" y1="874.4268" x2="181.4799" y2="874.4268" gradientTransform="matrix(-0.951 0.3092 0.3092 0.951 1101.7998 -146.3651)">
	<stop  offset="0" style="stop-color:#562416"/>
	<stop  offset="1" style="stop-color:#421E15"/>
</linearGradient>
<circle class="st36" cx="1202" cy="740.6" r="2.5"/>
<path class="st37" d="M1133.8,986.3c0,0-75,51.9-112.7-18.4"/>
<linearGradient id="SVGID_37_" gradientUnits="userSpaceOnUse" x1="300.0913" y1="988.9527" x2="129.1689" y2="785.2552" gradientTransform="matrix(-1 0 0 1 1327.4164 0)">
	<stop  offset="0" style="stop-color:#FABA36"/>
	<stop  offset="0.4778" style="stop-color:#FBB32B"/>
	<stop  offset="1" style="stop-color:#FBB026"/>
</linearGradient>
<path class="st38" d="M962.2,934.3c7.7,6.3,17.8,8.9,27.5,6.8c0.5-0.1,1-0.2,1.5-0.4c0.6,4.7,1.1,5.3,1.1,5.3s4.8,16.2,22.3,21.4
	c4.3,1.3,7.9,4.1,10.3,7.8c38.8,60.5,108.9,11.9,108.9,11.9s6.8-4,11.6-8.8c0.3,0.2,0.3,0.2,0.6,0.4c-14.4,34.9-28.6,44.9-3.7,66
	c24.9,21.1,47.8-6.4,62.6-32.5c14.8-26.1,5.5-49.4,5.5-49.4s-1.1-2.1-2.8-4.6c8.1-9.2,15.8-21,22.4-35.5
	c22.9-50.4-22.5-65.7-22.5-65.7s-1.6-0.8-4.7-1.6c6.7-18.6,8-41.1-5.2-65.7c-28.5-53.1-105.8-13.3-105.8-13.3s-12.9,5.9-22.3,14.3
	c-9.4,8.3-19,16.7-30.3,15.4c0,0-60.9-15.8-77,24.3C947.2,867.5,928.1,906.3,962.2,934.3z"/>
<linearGradient id="SVGID_38_" gradientUnits="userSpaceOnUse" x1="199.9308" y1="932.0254" x2="152.6989" y2="664.1597" gradientTransform="matrix(-1 0 0 1 1327.4164 0)">
	<stop  offset="3.188775e-04" style="stop-color:#F8E295"/>
	<stop  offset="0.3983" style="stop-color:#F9D965;stop-opacity:0"/>
	<stop  offset="0.4968" style="stop-color:#FACF55;stop-opacity:0"/>
	<stop  offset="0.6892" style="stop-color:#FABE3B;stop-opacity:0"/>
	<stop  offset="0.8628" style="stop-color:#FBB42B;stop-opacity:0"/>
	<stop  offset="1" style="stop-color:#FBB026;stop-opacity:0"/>
</linearGradient>
<path class="st39" d="M1091.7,777.3c0,0,77.6-41.2,106,12c28.5,53.1-10.8,97.1-25.6,111.1c-14.7,13.9-56.8,52.3-79.7,11.8
	c0,0-13.8-27.4,20.9-57.5c34.8-30.1,13.5-27.9,13.5-27.9"/>
<linearGradient id="SVGID_39_" gradientUnits="userSpaceOnUse" x1="139.7252" y1="1044.016" x2="175.6977" y2="945.1825" gradientTransform="matrix(-1 0 0 1 1327.4164 0)">
	<stop  offset="3.188775e-04" style="stop-color:#F8E295"/>
	<stop  offset="0.6513" style="stop-color:#F9D965;stop-opacity:0"/>
	<stop  offset="0.7083" style="stop-color:#FACF55;stop-opacity:0"/>
	<stop  offset="0.8199" style="stop-color:#FABE3B;stop-opacity:0"/>
	<stop  offset="0.9205" style="stop-color:#FBB42B;stop-opacity:0"/>
	<stop  offset="1" style="stop-color:#FBB026;stop-opacity:0"/>
</linearGradient>
<path class="st40" d="M1146.2,978.8c18.1,8.7,41.2,2.1,61.4-20.6l0.1,0.1c1.8,2.5,2.8,4.6,2.8,4.6s9.3,23.2-5.3,49.2l-0.1,0.2
	c-14.8,26.1-37.7,53.6-62.6,32.5C1117.6,1023.7,1131.8,1013.7,1146.2,978.8z"/>
<linearGradient id="SVGID_40_" gradientUnits="userSpaceOnUse" x1="183.4142" y1="978.1395" x2="67.8504" y2="840.416" gradientTransform="matrix(-1 0 0 1 1327.4164 0)">
	<stop  offset="3.188775e-04" style="stop-color:#F8E295"/>
	<stop  offset="0.5211" style="stop-color:#F9D965;stop-opacity:0"/>
	<stop  offset="0.5995" style="stop-color:#FACF55;stop-opacity:0"/>
	<stop  offset="0.7526" style="stop-color:#FABE3B;stop-opacity:0"/>
	<stop  offset="0.8908" style="stop-color:#FBB42B;stop-opacity:0"/>
	<stop  offset="1" style="stop-color:#FBB026;stop-opacity:0"/>
</linearGradient>
<path class="st41" d="M1202.7,855.6c2.6,0.6,4.8,1.4,4.8,1.4s45.4,15.3,22.5,65.7c-22.9,50.4-58.5,68.3-83.8,55.9
	c-25-12.2-17.2-41.9-2-55.9c11.7-6.8,22-16.3,27.9-21.9C1179.9,893.3,1194.9,877.2,1202.7,855.6z"/>
<linearGradient id="SVGID_41_" gradientUnits="userSpaceOnUse" x1="359.9598" y1="930.497" x2="321.0597" y2="818.5959" gradientTransform="matrix(-1 0 0 1 1327.4164 0)">
	<stop  offset="3.188775e-04" style="stop-color:#F8E295"/>
	<stop  offset="0.6886" style="stop-color:#F9D965;stop-opacity:0"/>
	<stop  offset="0.7588" style="stop-color:#F9D55F;stop-opacity:0"/>
	<stop  offset="0.8507" style="stop-color:#FACB4F;stop-opacity:0"/>
	<stop  offset="0.9542" style="stop-color:#FBB934;stop-opacity:0"/>
	<stop  offset="0.9987" style="stop-color:#FBB026;stop-opacity:0"/>
</linearGradient>
<path class="st42" d="M1026.9,805.3c-18.5-2.6-53.5-3.2-65.2,25.7c-14.8,36.6-33.7,75-0.9,103c8.6,7.4,20.4,10.3,31.3,6.9
	c7.5-2.3,15.3-7.6,19.8-18.9c2.8-6.9,3.4-14.5,2.3-21.8c-1.3-8.2-1.1-22.9,15-26.7"/>
<path class="st0" d="M1085.3,1046.3c4.2,0,8.5-0.2,12.8-0.5c37.3-2.7,74.5-17.1,107.6-41.6c36.6-27.2,67-65.4,90.3-113.5
	c7.9-16.4,11.7-32.9,15.4-48.8c0.5-2.4,1.1-4.7,1.6-7.1c16.9-71.2,21.6-166.5-52-216.6c-38.2-26-93.4-35.4-155.5-26.7
	c-57.2,8.1-116.5,31.2-162.8,63.5c-51.3,35.7-78.9,74-70.4,97.5c3.5,9.7,14.6,20.7,47.2,17.9c2.4-0.2,4.2-2.4,4-4.8
	c-0.2-2.4-2.3-4.2-4.8-4c-21.1,1.8-34.6-2.5-38.1-12.1c-5.6-15.5,13-49.5,67.1-87.2c45.2-31.5,103.1-54.1,159-62
	c59.9-8.5,112.9,0.5,149.3,25.2c54.9,37.4,71.6,109,48.4,207.2c-0.6,2.3-1.1,4.7-1.7,7.1c-3.6,15.4-7.2,31.4-14.7,46.9
	c-22.6,46.9-52.1,84-87.6,110.3c-31.7,23.5-67.3,37.3-103,39.9c-55.8,4-107-19.9-137-64.2c-1.2-2.3-14.2-26.6-23.9-56.9
	c-9.3-28.7-17.7-68.8-4.6-96.6c8-17,23.4-27.8,45.8-32.2c9.5-1.9,17.7-0.1,24.9,5.4c22.5,17.1,28.5,65.1,30,84.9
	c0.2,2.4,2.3,4.3,4.8,4.1c2.4-0.2,4.3-2.3,4.1-4.8c-2-26.1-9.1-72.7-33.5-91.3c-9.2-7-19.9-9.4-31.9-7
	c-25.3,4.9-42.9,17.4-52.1,37.1c-27.2,57.8,26.5,157.5,28.8,161.7l0.2,0.4C982.4,1021.2,1031.2,1046.3,1085.3,1046.3z"/>
</svg>
