<?xml version="1.0" encoding="utf-8"?>
<!-- Generator: Adobe Illustrator 21.1.0, SVG Export Plug-In . SVG Version: 6.00 Build 0)  -->
<svg version="1.1" id="Layer_1" xmlns="http://www.w3.org/2000/svg" xmlns:xlink="http://www.w3.org/1999/xlink" x="0px" y="0px"
	 viewBox="0 0 355.2 353" style="enable-background:new 0 0 355.2 353;" xml:space="preserve">
<style type="text/css">
	.st0{fill:none;stroke:#FFFFFF;stroke-width:2;stroke-linejoin:round;stroke-miterlimit:10;}
</style>
<g>
	<path class="st0" d="M284,160.5c0.2,0.1,0.5,0.2,0.7,0.2c2.3,0.2,5.3-2.1,7.8-9.4c0.4-1.1,0.9-2.4,1.5-3.7c2.8,1.8,5.3,4,7.1,6.8
		c0.4,0.5,0.8,1.2,1.1,1.8c-0.9,0.5-0.9-0.6-2.4-0.2c-1.6,0.5-3.1,0.5-3.2,1.6c0,0-2.1,0.5-2.3,1.6c-0.2,1-1,1.9-1,1.9
		s-1.8,0.3-1.5,1.2c0.3,0.9-1.5,0.4-1.5,1.5c0,0-0.9,0.2-0.2,1.5c0,0-1.9,0.4-0.9,1.9c0.7,1.1-1.6,3.4-0.6,3.9c0.9,0.5-0.1,2-0.1,2
		s-0.8-0.3-0.9,1.2c-0.2,1.5-0.5,3.3,0.6,3.7c1.1,0.3,1.7,1.5,1.7,1.5s-0.6,0.9,0.2,1.6c0.8,0.7,0.6,1.4,2.4,2c0,0-1.1,0.8,0.5,2.1
		c0.6,0.5,1,1,1.4,1.4c-0.1,0.2-0.2,0.4-0.3,0.6c-1.8,4.1-4.1,8.5,1.1,12.2c0,0,1,0.4,2.1,0.2c0,0.5,0.1,0.6,0.1,0.6
		s0.6,2.3,3.1,2.9c4.1,8.2,12.3,3.5,12.3,3.5s0.8-0.3,1.3-0.8c0.1,0,0.1,0,0.1,0c-1.6,3.7-3.1,4.6-0.4,7.2c2,2,4,0.9,5.5-0.9
		c0.5-0.6,1-1.2,1.4-1.9l0,0c1.6-2.6,0.6-5.3,0.6-5.3s-0.1-0.2-0.3-0.5c0.3-0.3,0.6-0.6,0.9-1l0.1-0.1c0.1-0.2,0.3-0.4,0.4-0.6
		c0.2-0.2,0.3-0.4,0.4-0.6c0,0,0.1-0.1,0.1-0.2c0.2-0.3,0.4-0.7,0.6-1.1c2.5-5.2-2.5-7.5-2.5-7.5s-0.2-0.1-0.5-0.2
		c0,0.1,0,0.1,0,0.1l0,0c0.3-1,0.6-2.1,0.5-3.3c0.3-1.1,2.2-0.8,2.2-1.7c0-1,1.6-1.3,1.6-1.9s0.9-2.3,0.9-2.3s1.5-2.1,0.4-2.7
		c0,0,1.9-3.1,0.7-4.8c0,0,1.4-3-0.2-4.2c0,0-0.3-3.1-1.5-3.9c-1.2-0.8-1.2-1.6-1.2-1.6L323,165c0,0-0.4-2.2-1.9-3
		c0,0-0.6-1.6-1.2-1.8c-0.6-0.3-2.9-1.2-2.9-1.2l-1.3-1c0,0-0.6-0.3-1.5-0.7c2.1-9.4-2.5-15.7-6.5-17.2c-2.9-1.1-7.6-1.6-11.7,3.8
		c-1.1-0.6-2.1-1-3.2-1.5c-1.4-0.6-2.9-1.1-4.3-1.6h-0.1l0,0h-0.1l0,0c-0.1,0.1-0.1,0.1-0.2,0.1l0,0c-0.4,0.2-0.8,0.4-0.9,1
		c-0.1,0.3-0.1,0.7-0.1,1l0,0l0,0v0.1v0.1v0.1v0.1v0.1v0.1c0,0.1,0,0.1,0,0.1v0.1c0,0.1,0,0.1,0,0.1l0.1,0.1c0,0.1,0,0.1,0,0.1
		l0.1,0.1l0,0l0.1,0.1l0,0l0.1,0.1l0,0c0.1,0,0.1,0.1,0.2,0.1l0,0c0.1,0,0.1,0.1,0.2,0.1s0.1,0,0.1,0c0.1,0,0.1,0.1,0.2,0.1l0,0l0,0
		c1.8,0.8,3.6,1.7,5.3,2.8c-0.6,1.2-1.1,2.4-1.6,3.9c-2.5,7.1-5.6,9.6-7.6,8.8c-2.1-0.8-3.5-5.3-2.2-12.4c0-0.2-0.1-0.4-0.3-0.5
		c-0.2-0.1-0.4,0-0.4,0.2C279.9,155.3,281.7,159.8,284,160.5z M296.5,144c2.4-3.1,5.9-5.3,10.8-3.5c3.6,1.3,7.9,7.3,5.9,16.3
		c-0.4-0.1-0.9-0.2-1.4-0.3c-1-0.2-2.1-0.4-3-0.7c-0.1-0.1-0.2-0.3-0.3-0.5c-0.4-0.6-0.8-1.3-1.3-1.9c-0.3-0.5-0.7-0.9-1-1.3
		c-1.7-2-3.6-3.8-5.6-5.3c-0.3-0.3-0.7-0.5-1.1-0.8c-0.5-0.4-1.1-0.7-1.7-1.1c-0.4-0.2-0.8-0.5-1.2-0.7
		C296.5,144.2,296.4,144.1,296.5,144z"/>
</g>
</svg>
